<svg width="597" height="558" viewBox="0 0 597 558" fill="none" xmlns="http://www.w3.org/2000/svg">
<ellipse cx="114.511" cy="160.228" rx="59.5109" ry="56.2276" fill="#F7F9FA"/>
<ellipse cx="114.558" cy="160.182" rx="41.9293" ry="39.6159" fill="#F0F5F9"/>
<ellipse cx="114.559" cy="160.183" rx="27.0634" ry="25.5703" fill="#E7ECF6"/>
<ellipse cx="478.5" cy="307.652" rx="33.5" ry="31.6517" fill="#F7F9FA"/>
<ellipse cx="478.527" cy="307.626" rx="23.6029" ry="22.3007" fill="#F0F5F9"/>
<ellipse cx="478.527" cy="307.626" rx="15.2346" ry="14.3941" fill="#E7ECF6"/>
<g filter="url(#filter0_d_158_922)">
<rect x="200" y="139.647" width="234" height="199.588" rx="45.8824" fill="#E7ECF6"/>
</g>
<path fill-rule="evenodd" clip-rule="evenodd" d="M274.801 244.577C280.631 244.577 285.357 247.9 285.357 255.562C285.357 263.224 280.631 269.436 274.801 269.436C268.971 269.436 264.245 263.224 264.245 255.562C264.245 247.9 268.971 244.577 274.801 244.577ZM296.025 246.318C298.322 246.318 300.183 248.18 300.183 250.477C300.183 252.773 298.322 254.635 296.025 254.635C293.729 254.635 291.867 252.773 291.867 250.477C291.867 248.18 293.729 246.318 296.025 246.318ZM340.933 173.991C363.424 173.991 381.656 192.223 381.656 214.714C381.656 237.204 363.424 255.437 340.933 255.437C330.339 255.437 320.69 251.39 313.447 244.759C312.365 245.78 310.906 246.406 309.301 246.406C305.962 246.406 303.256 243.7 303.256 240.362C303.256 238.306 304.283 236.49 305.851 235.398C302.268 229.336 300.211 222.266 300.211 214.714C300.211 192.224 318.443 173.991 340.933 173.991ZM336.736 213.735C335.073 213.735 333.409 213.735 331.746 213.735C331.087 213.735 330.55 214.273 330.55 214.932V234.122C330.55 234.781 331.087 235.319 331.746 235.319H336.736C337.395 235.319 337.932 234.781 337.932 234.122C337.932 227.335 337.932 221.718 337.932 214.932C337.932 214.273 337.395 213.735 336.736 213.735ZM359.162 199.016C358.503 199.016 357.965 199.554 357.965 200.213V234.122C357.965 234.781 358.503 235.318 359.162 235.318H364.152C364.81 235.318 365.348 234.781 365.348 234.122V200.213C365.348 199.554 364.81 199.016 364.152 199.016H359.162ZM318.038 221.156C317.379 221.156 316.842 221.693 316.842 222.352V234.123C316.842 234.781 317.379 235.319 318.038 235.319H323.028C323.687 235.319 324.224 234.781 324.224 234.123V222.352C324.224 221.693 323.687 221.156 323.028 221.156H318.038ZM350.444 205.987H345.454C344.795 205.987 344.258 206.524 344.258 207.183V234.123C344.258 234.781 344.795 235.319 345.454 235.319H350.444C351.103 235.319 351.64 234.781 351.64 234.123V207.183C351.64 206.524 351.103 205.987 350.444 205.987ZM319.688 209.636L332.663 198.335L340.37 202.138C341.152 202.523 342.07 202.325 342.628 201.71L353.401 190.508L353.262 192.211C353.18 193.263 353.966 194.184 355.019 194.267C356.072 194.349 356.993 193.563 357.076 192.51L357.649 185.468C357.658 185.348 357.657 185.226 357.642 185.102C357.523 184.053 356.575 183.3 355.526 183.419L348.51 184.247C347.461 184.366 346.708 185.314 346.828 186.363C346.948 187.412 347.895 188.165 348.944 188.045L350.668 187.842L340.807 198.095L333.323 194.404C332.635 194.004 331.741 194.064 331.107 194.616L317.175 206.75C316.378 207.443 316.295 208.652 316.988 209.449C317.683 210.246 318.891 210.329 319.688 209.636ZM254.058 304.304H259.831V287.893C259.831 286.694 260.803 285.721 262.003 285.721C263.202 285.721 264.175 286.694 264.175 287.893V304.304H285.428V287.893C285.428 286.694 286.4 285.721 287.599 285.721C288.799 285.721 289.771 286.694 289.771 287.893V304.304H295.544C297.039 304.304 298.259 303.084 298.259 301.589V282.995C298.259 277.775 293.61 274.81 288.319 273.498C279.437 271.294 270.432 271.145 261.283 273.498C256.006 274.854 251.344 277.772 251.344 282.995V301.589C251.344 303.084 252.563 304.304 254.058 304.304Z" fill="#8DA1E6"/>
<g filter="url(#filter1_d_158_922)">
<rect x="418" y="20" width="134" height="114.294" rx="26.2745" fill="#B0DAEA"/>
</g>
<g clip-path="url(#clip0_158_922)">
<path d="M479.726 82.2125C479.726 81.2415 478.938 80.4544 477.967 80.4544H477.353L471.332 66.8623C470.176 67.1662 469.012 67.4325 467.841 67.6628L473.508 80.4544H461.33L466.92 67.8361C465.559 68.0803 464.19 68.2757 462.815 68.4203L457.484 80.4544H456.87C455.899 80.4544 455.112 81.2415 455.112 82.2125C455.086 88.2547 461.531 92.3102 467.419 92.1752C473.305 92.3117 479.753 88.2531 479.726 82.2125Z" fill="#ECF9FF"/>
<path d="M513.13 80.4544H512.516L507.185 68.4203C505.81 68.2757 504.441 68.0803 503.08 67.8361L508.67 80.4544H496.493L502.159 67.6628C500.988 67.4326 499.824 67.1662 498.668 66.8623L492.647 80.4544H492.033C491.062 80.4544 490.274 81.2415 490.274 82.2125C490.274 84.9586 491.613 87.5118 494.043 89.4019C498.575 93.0739 506.588 93.0742 511.12 89.4018C513.55 87.5118 514.888 84.9586 514.888 82.2125C514.888 81.2415 514.101 80.4544 513.13 80.4544Z" fill="#ECF9FF"/>
<path d="M456.871 65.2169C461.696 65.2169 466.5 64.562 471.15 63.2707C480.211 60.7537 489.789 60.7537 498.85 63.2707C503.5 64.5622 508.304 65.2169 513.129 65.2169C515.123 65.2169 515.577 62.4217 513.685 61.791H513.684C509.121 60.2698 504.675 58.3142 500.47 55.9781L497.693 54.435C494.333 52.5685 490.585 51.4659 486.758 51.2063V49.394C486.672 47.0638 483.327 47.0655 483.242 49.394V51.2063C479.415 51.4659 475.667 52.5685 472.307 54.435L469.529 55.9781C465.324 58.3142 460.879 60.2698 456.315 61.791H456.315C454.423 62.4217 454.877 65.2169 456.871 65.2169Z" fill="#ECF9FF"/>
<path d="M492.033 100.614H477.968C475.055 100.614 472.693 102.976 472.693 105.889C472.693 106.86 473.48 107.647 474.451 107.647H495.549C496.52 107.647 497.307 106.86 497.307 105.889C497.307 102.976 494.946 100.614 492.033 100.614Z" fill="#ECF9FF"/>
<path d="M483.242 97.0981H486.758V64.9321C485.587 64.8885 484.413 64.8885 483.242 64.9321V97.0981Z" fill="#ECF9FF"/>
</g>
<g filter="url(#filter2_d_158_922)">
<path d="M24 307.54C24 294.539 34.5393 284 47.5402 284H150.529C163.53 284 174.069 294.539 174.069 307.54V388.46C174.069 401.461 163.53 412 150.529 412H47.5402C34.5393 412 24 401.461 24 388.46L24 307.54Z" fill="#B0C7EA"/>
</g>
<path fill-rule="evenodd" clip-rule="evenodd" d="M73.7829 330.531C75.0451 328.51 76.7981 326.491 77.0538 325.438L79.0416 317.256C79.5521 315.154 81.6889 313.853 83.7902 314.363C85.8913 314.874 87.1929 317.011 86.6824 319.112L84.5775 328.037C84.4561 328.551 84.6138 329.055 85.0067 329.408C85.3998 329.762 85.6616 329.706 88.3275 329.724L98.0001 329.711C100.043 329.89 100.745 331.027 100.737 332.643C100.729 334.26 99.3648 335.756 97.1201 335.566C98.6238 335.889 99.5456 336.902 99.5375 338.518C99.5293 340.135 98.165 341.452 95.6415 341.443C96.4495 341.773 97.7882 342.779 97.78 344.396C97.7718 346.013 96.4076 347.33 93.9211 347.321C94.6866 347.747 96.1048 348.658 96.0967 350.274C96.0885 351.891 94.7242 353.208 93.1442 353.243L76.7535 353.286C75.8063 353.286 74.9903 352.704 74.6505 351.9L74.6353 332.909C74.6347 332.008 74.3127 331.18 73.7829 330.531ZM127.157 382.994L131.671 383.005C132.65 383.008 133.451 382.212 133.454 381.232C133.475 375.112 133.496 368.992 133.517 362.872C133.521 361.882 132.732 361.089 131.743 361.087L127.229 361.076C126.25 361.073 125.449 361.869 125.446 362.849C125.425 368.969 125.403 375.089 125.382 381.209C125.379 382.199 126.167 382.992 127.157 382.994ZM124.287 360.463C123.025 358.442 121.272 356.423 121.016 355.37L119.028 347.188C118.518 345.086 116.381 343.785 114.28 344.295C112.178 344.806 110.877 346.943 111.387 349.044L113.492 357.969C113.614 358.483 113.456 358.987 113.063 359.34C112.67 359.694 112.408 359.638 109.742 359.656L100.07 359.643C98.0264 359.822 97.3244 360.959 97.3326 362.575C97.3408 364.192 98.705 365.688 100.95 365.499C99.4459 365.821 98.5241 366.834 98.5323 368.45C98.5405 370.067 99.9047 371.384 102.428 371.375C101.62 371.705 100.282 372.711 100.29 374.328C100.298 375.945 101.662 377.262 104.149 377.253C103.383 377.679 101.965 378.59 101.973 380.206C101.981 381.823 103.345 383.14 104.925 383.175L121.316 383.218C122.263 383.218 123.079 382.636 123.419 381.832L123.434 362.842C123.435 361.94 123.757 361.112 124.287 360.463ZM70.9127 353.062L66.3992 353.073C65.4201 353.076 64.6192 352.28 64.6158 351.3C64.5946 345.18 64.5734 339.06 64.5523 332.94C64.5488 331.95 65.3373 331.157 66.327 331.155L70.8405 331.143C71.8196 331.141 72.6205 331.937 72.624 332.916C72.6451 339.037 72.6663 345.157 72.6875 351.277C72.6909 352.267 71.9024 353.06 70.9127 353.062Z" fill="#EBF3FF"/>
<g filter="url(#filter3_d_158_922)">
<path d="M357 388.216C357 374.094 368.447 362.647 382.569 362.647H494.431C508.553 362.647 520 374.094 520 388.216V476.108C520 490.229 508.553 501.676 494.431 501.676H382.569C368.447 501.676 357 490.229 357 476.108V388.216Z" fill="#D7F0F5"/>
</g>
<path d="M456.518 425.081V438.832H462.047V425.081C462.047 424.664 462.387 424.324 462.804 424.324H464.52L459.28 417.373L454.045 424.324H455.761C456.179 424.324 456.518 424.664 456.518 425.081Z" fill="#78CCED"/>
<path d="M462.803 440.351H455.76H453.168V467.885H465.396V440.351H462.803Z" fill="#78CCED"/>
<path d="M434.279 451.578H446.502V467.885H434.279V451.578Z" fill="#78CCED"/>
<path d="M415.384 459.373H427.607V467.884H415.384V459.373Z" fill="#78CCED"/>
<path d="M438.11 445.036C438.826 444.444 439.257 443.604 439.321 442.673L439.936 433.689C440.009 432.62 439.404 431.601 438.431 431.156L431.397 427.921L431.324 422.2L434.063 423.87C434.471 424.118 434.917 424.283 435.394 424.352L441.606 425.256C442.579 425.398 443.561 425.109 444.304 424.466C445.047 423.824 445.474 422.893 445.474 421.911C445.474 420.254 444.29 418.85 442.657 418.575L436.091 417.465L429.925 411.468C427.86 409.458 424.666 409.229 422.331 410.917L414.701 416.437C413.852 417.052 413.324 417.997 413.242 419.043L412.613 427.302C412.553 428.077 412.787 428.844 413.265 429.458C413.746 430.073 414.43 430.482 415.201 430.615C416.059 430.762 416.944 430.537 417.637 430.004C418.325 429.472 418.761 428.665 418.835 427.798L419.385 421.2L422.689 418.878L422.597 432.032L418.055 449.66C417.601 451.427 418.546 453.244 420.257 453.886C420.661 454.038 421.083 454.111 421.505 454.111C422.074 454.111 422.643 453.973 423.157 453.703C424.052 453.235 424.708 452.4 424.96 451.422L429.071 435.185L432.659 436.648L432.59 442.406C432.572 444.136 433.847 445.591 435.563 445.793C436.49 445.898 437.394 445.627 438.11 445.036Z" fill="#78CCED"/>
<path d="M427.584 408.114C430.534 408.114 432.938 405.714 432.938 402.759C432.938 399.809 430.539 397.405 427.584 397.405C424.634 397.405 422.229 399.804 422.229 402.759C422.234 405.714 424.634 408.114 427.584 408.114Z" fill="#78CCED"/>
<defs>
<filter id="filter0_d_158_922" x="163.294" y="105.236" width="348.706" height="314.294" filterUnits="userSpaceOnUse" color-interpolation-filters="sRGB">
<feFlood flood-opacity="0" result="BackgroundImageFix"/>
<feColorMatrix in="SourceAlpha" type="matrix" values="0 0 0 0 0 0 0 0 0 0 0 0 0 0 0 0 0 0 127 0" result="hardAlpha"/>
<feOffset dx="20.6471" dy="22.9412"/>
<feGaussianBlur stdDeviation="28.6765"/>
<feComposite in2="hardAlpha" operator="out"/>
<feColorMatrix type="matrix" values="0 0 0 0 0.741667 0 0 0 0 0.902612 0 0 0 0 1 0 0 0 0.2 0"/>
<feBlend mode="normal" in2="BackgroundImageFix" result="effect1_dropShadow_158_922"/>
<feBlend mode="normal" in="SourceGraphic" in2="effect1_dropShadow_158_922" result="shape"/>
</filter>
<filter id="filter1_d_158_922" x="396.98" y="0.294119" width="199.686" height="179.98" filterUnits="userSpaceOnUse" color-interpolation-filters="sRGB">
<feFlood flood-opacity="0" result="BackgroundImageFix"/>
<feColorMatrix in="SourceAlpha" type="matrix" values="0 0 0 0 0 0 0 0 0 0 0 0 0 0 0 0 0 0 127 0" result="hardAlpha"/>
<feOffset dx="11.8235" dy="13.1373"/>
<feGaussianBlur stdDeviation="16.4216"/>
<feComposite in2="hardAlpha" operator="out"/>
<feColorMatrix type="matrix" values="0 0 0 0 0.741176 0 0 0 0 0.901961 0 0 0 0 1 0 0 0 0.2 0"/>
<feBlend mode="normal" in2="BackgroundImageFix" result="effect1_dropShadow_158_922"/>
<feBlend mode="normal" in="SourceGraphic" in2="effect1_dropShadow_158_922" result="shape"/>
</filter>
<filter id="filter2_d_158_922" x="0.45977" y="261.931" width="223.632" height="201.563" filterUnits="userSpaceOnUse" color-interpolation-filters="sRGB">
<feFlood flood-opacity="0" result="BackgroundImageFix"/>
<feColorMatrix in="SourceAlpha" type="matrix" values="0 0 0 0 0 0 0 0 0 0 0 0 0 0 0 0 0 0 127 0" result="hardAlpha"/>
<feOffset dx="13.2414" dy="14.7126"/>
<feGaussianBlur stdDeviation="18.3908"/>
<feComposite in2="hardAlpha" operator="out"/>
<feColorMatrix type="matrix" values="0 0 0 0 0.741176 0 0 0 0 0.901961 0 0 0 0 1 0 0 0 0.2 0"/>
<feBlend mode="normal" in2="BackgroundImageFix" result="effect1_dropShadow_158_922"/>
<feBlend mode="normal" in="SourceGraphic" in2="effect1_dropShadow_158_922" result="shape"/>
</filter>
<filter id="filter3_d_158_922" x="331.431" y="338.676" width="242.902" height="218.931" filterUnits="userSpaceOnUse" color-interpolation-filters="sRGB">
<feFlood flood-opacity="0" result="BackgroundImageFix"/>
<feColorMatrix in="SourceAlpha" type="matrix" values="0 0 0 0 0 0 0 0 0 0 0 0 0 0 0 0 0 0 127 0" result="hardAlpha"/>
<feOffset dx="14.3824" dy="15.9804"/>
<feGaussianBlur stdDeviation="19.9755"/>
<feComposite in2="hardAlpha" operator="out"/>
<feColorMatrix type="matrix" values="0 0 0 0 0.741176 0 0 0 0 0.901961 0 0 0 0 1 0 0 0 0.2 0"/>
<feBlend mode="normal" in2="BackgroundImageFix" result="effect1_dropShadow_158_922"/>
<feBlend mode="normal" in="SourceGraphic" in2="effect1_dropShadow_158_922" result="shape"/>
</filter>
<clipPath id="clip0_158_922">
<rect width="60" height="60" fill="white" transform="translate(455 47.647)"/>
</clipPath>
</defs>
</svg>
