<svg width="524" height="650" viewBox="0 0 524 650" fill="none" xmlns="http://www.w3.org/2000/svg">
<g opacity="0.6" clip-path="url(#clip0_130_1967)" filter="url(#filter0_f_130_1967)">
<path d="M447.45 80.9448C447.745 81.1023 447.982 81.3752 448.087 81.7193C448.191 82.0634 448.146 82.4221 447.989 82.7168C447.831 83.0116 447.563 83.2472 447.214 83.3532C446.87 83.4577 446.511 83.4123 446.216 83.2549C445.922 83.0974 445.685 82.8245 445.58 82.4804C445.476 82.1363 445.521 81.7776 445.678 81.4829C445.836 81.1881 446.109 80.9509 446.453 80.8465C446.802 80.7405 447.156 80.7874 447.45 80.9448ZM454.209 106.391C453.865 106.496 453.59 106.728 453.433 107.022C453.277 107.322 453.23 107.676 453.335 108.02C453.441 108.369 453.676 108.637 453.973 108.799C454.267 108.957 454.624 108.997 454.969 108.893C455.318 108.787 455.587 108.556 455.745 108.261C455.9 107.962 455.947 107.608 455.841 107.259C455.737 106.915 455.501 106.647 455.205 106.484C454.91 106.327 454.558 106.285 454.209 106.391ZM450.33 93.6163C449.986 93.7208 449.713 93.958 449.556 94.2527C449.398 94.5474 449.353 94.9061 449.457 95.2502C449.563 95.5993 449.799 95.8672 450.094 96.0247C450.388 96.1821 450.747 96.2275 451.091 96.123C451.44 96.017 451.708 95.7814 451.866 95.4866C452.023 95.1919 452.07 94.8382 451.964 94.4891C451.86 94.145 451.622 93.8721 451.328 93.7146C451.033 93.5572 450.679 93.5103 450.33 93.6163ZM466.121 101.482L472.211 121.541C472.885 123.76 472.597 126.046 471.581 127.939C470.567 129.838 468.829 131.348 466.61 132.021C464.386 132.697 462.104 132.407 460.208 131.393C458.311 130.384 456.801 128.645 456.127 126.424C455.585 124.639 455.662 122.824 456.234 121.199C456.823 119.528 457.93 118.055 459.422 117.036C460.101 116.577 460.275 115.66 459.816 114.981C459.354 114.308 458.436 114.129 457.758 114.593C455.737 115.973 454.235 117.957 453.443 120.215C453.122 121.126 452.915 122.073 452.835 123.045C452.474 123.298 452.097 123.532 451.697 123.741C451.129 124.042 450.512 124.297 449.857 124.496C447.114 125.328 444.289 124.971 441.949 123.721C439.602 122.467 437.736 120.322 436.904 117.58C436.681 116.846 436.544 116.11 436.488 115.381C436.428 114.658 436.443 113.948 436.535 113.262C436.546 113.197 436.557 113.132 436.562 113.064C436.616 112.245 436.001 111.54 435.182 111.486C433.299 111.353 431.391 110.392 429.752 108.826C428.089 107.23 426.716 105.016 425.921 102.397C425.125 99.7767 425.036 97.1732 425.533 94.929C426.023 92.7105 427.076 90.8583 428.567 89.6994L428.566 89.6944C428.591 89.6758 428.615 89.654 428.64 89.6354C429.253 89.0936 429.309 88.1614 428.769 87.5483C428.29 87.004 427.859 86.3994 427.487 85.7354C427.128 85.0981 426.832 84.4109 426.609 83.6761C425.777 80.9333 426.134 78.1089 427.389 75.767C428.637 73.4216 430.788 71.5539 433.529 70.7217C434.184 70.5228 434.84 70.391 435.479 70.3258C435.929 70.2819 436.37 70.2603 436.811 70.2716C437.419 71.0349 438.118 71.7121 438.89 72.2858C440.804 73.7218 443.157 74.5414 445.604 74.5646C446.424 74.568 447.089 73.9122 447.098 73.0925C447.103 72.2776 446.446 71.6076 445.627 71.6036C443.821 71.5857 442.083 70.9821 440.665 69.9205C439.286 68.8886 438.211 67.4176 437.67 65.6373L437.669 65.6323C436.995 63.4131 437.284 61.132 438.298 59.2337C439.313 57.3354 441.046 55.8269 443.27 55.1515C445.489 54.4777 447.775 54.7658 449.672 55.7804C451.57 56.7944 453.08 58.5328 453.754 60.7519L459.845 80.811L456.357 81.8699L455.618 79.4346C455.38 78.6516 454.55 78.2099 453.769 78.4472L450.245 79.5172C449.867 79.0201 449.391 78.6181 448.85 78.3304C447.886 77.8153 446.724 77.6685 445.594 78.0117C444.469 78.3534 443.583 79.1215 443.068 80.0858C442.553 81.0501 442.402 82.2127 442.745 83.3431C443.088 84.4735 443.86 85.3555 444.825 85.8706C445.789 86.3857 446.95 86.5325 448.077 86.1903C449.208 85.8471 450.091 85.0795 450.606 84.1152C450.895 83.5756 451.068 82.9763 451.106 82.353L453.212 81.7136L453.952 84.1505C454.19 84.9335 455.019 85.3751 455.801 85.1379L460.706 83.6485L462.552 89.7276L454.122 92.287C453.745 91.7932 453.268 91.3879 452.729 91.1052C451.763 90.5851 450.602 90.4383 449.471 90.7816C448.346 91.1232 447.461 91.8913 446.947 92.8606C446.432 93.8249 446.28 94.9875 446.622 96.1146C446.966 97.245 447.738 98.127 448.703 98.6421C449.667 99.1572 450.828 99.3039 451.955 98.9617C453.085 98.6185 453.969 97.851 454.484 96.8867C454.772 96.3471 454.946 95.7478 454.984 95.1245L463.413 92.5651L465.261 98.6491L460.355 100.139C459.572 100.376 459.129 101.201 459.368 101.987L460.106 104.419L458 105.058C457.624 104.566 457.146 104.159 456.606 103.877C455.642 103.362 454.479 103.21 453.349 103.553C452.224 103.895 451.34 104.668 450.825 105.632C450.31 106.596 450.158 107.759 450.5 108.886C450.843 110.016 451.616 110.898 452.58 111.414C453.545 111.929 454.706 112.075 455.833 111.733C456.963 111.39 457.847 110.622 458.362 109.658C458.65 109.119 458.824 108.519 458.863 107.901L462.387 106.831C463.17 106.593 463.612 105.764 463.373 104.978L462.635 102.546L466.122 101.487L466.121 101.482ZM439.304 98.333C438.792 96.6458 438.733 94.9752 439.051 93.5368C439.358 92.153 440.005 90.9977 440.926 90.2861C441.571 89.787 441.69 88.8559 441.19 88.2088C440.691 87.5633 439.76 87.4448 439.113 87.9444C437.634 89.0889 436.614 90.8491 436.161 92.9021C435.734 94.8218 435.804 97.0136 436.467 99.1962C437.131 101.382 438.293 103.242 439.712 104.598C441.23 106.056 443.06 106.948 444.922 107.078C445.736 107.134 446.446 106.517 446.502 105.703C446.558 104.889 445.941 104.179 445.127 104.123C443.966 104.043 442.786 103.445 441.762 102.463C440.695 101.442 439.816 100.02 439.304 98.333ZM509.766 72.7849C509.666 72.7119 509.535 72.6699 509.39 72.6632L503.778 72.5552C503.157 72.5423 502.572 72.3803 502.056 72.085C501.545 71.7915 501.108 71.3742 500.784 70.8444C500.001 69.5698 499.135 68.3604 498.195 67.2151C497.249 66.0663 496.225 64.9774 495.128 63.9614C494.676 63.5431 494.348 63.0346 494.16 62.4652C493.969 61.9006 493.925 61.302 494.034 60.6916L495.019 55.1583C495.047 55.0101 495.026 54.8782 494.977 54.7642C494.923 54.6518 494.827 54.5574 494.691 54.4861L488.353 51.1002C488.223 51.0307 488.088 51.0062 487.964 51.0221C487.846 51.0382 487.721 51.1013 487.614 51.2066L483.566 55.0972C483.121 55.5265 482.592 55.8249 482.018 55.9847C481.442 56.1396 480.835 56.1534 480.235 56.007C478.781 55.6605 477.311 55.4131 475.832 55.2705C474.356 55.1213 472.865 55.08 471.369 55.133C470.748 55.1564 470.16 55.0317 469.631 54.7658C469.098 54.5008 468.638 54.1103 468.284 53.6006L465.073 48.9911C464.989 48.8729 464.883 48.7909 464.764 48.7508C464.644 48.7108 464.508 48.7049 464.367 48.7478L462.345 49.3616L468.742 70.4296C473.091 69.4797 477.479 70.1861 481.178 72.1659C485.291 74.3592 488.566 78.1252 490.027 82.9376C491.49 87.7533 490.86 92.6994 488.661 96.8112C486.687 100.513 483.432 103.54 479.291 105.173L485.687 126.236L487.708 125.623C487.849 125.58 487.961 125.504 488.038 125.405C488.116 125.305 488.158 125.172 488.159 125.028L488.267 119.416C488.28 118.795 488.442 118.21 488.737 117.694C489.031 117.184 489.449 116.748 489.978 116.422C491.253 115.639 492.467 114.771 493.612 113.832C494.761 112.886 495.845 111.861 496.861 110.767C497.279 110.315 497.791 109.985 498.357 109.798C498.922 109.607 499.525 109.562 500.136 109.671L505.664 110.657C505.812 110.685 505.951 110.668 506.058 110.616C506.171 110.562 506.27 110.464 506.336 110.33L509.722 103.991C509.795 103.86 509.821 103.725 509.807 103.606C509.786 103.483 509.726 103.358 509.621 103.25L505.727 99.2039C505.298 98.7587 504.999 98.2302 504.844 97.6545C504.686 97.0798 504.676 96.4711 504.817 95.8726C505.164 94.4185 505.411 92.949 505.559 91.4681C505.703 89.9937 505.749 88.5018 505.693 87.012C505.668 86.3859 505.797 85.7965 506.058 85.2688C506.323 84.7362 506.72 84.2798 507.229 83.9204L511.833 80.7104C511.952 80.629 512.038 80.5192 512.078 80.3999C512.12 80.2785 512.119 80.146 512.076 80.0047L509.989 73.1295C509.945 72.9777 509.868 72.863 509.766 72.7849ZM471.737 80.2975L473.582 86.3766L462.551 89.7259L463.412 92.5618L474.443 89.2125L476.291 95.2965L465.26 98.6458L466.121 101.482L477.152 98.1324L478.422 102.316C481.783 100.931 484.426 98.4457 486.047 95.4097C487.883 91.9656 488.411 87.8219 487.188 83.7925C485.964 79.763 483.221 76.6126 479.782 74.7755C476.748 73.1549 473.169 72.5533 469.603 73.271L470.875 77.46L459.844 80.8093L460.705 83.6452L471.736 80.2959L471.737 80.2975Z" fill="#567F8E"/>
</g>
<g clip-path="url(#clip1_130_1967)" filter="url(#filter1_f_130_1967)">
<path d="M208.215 541.186C210.149 544.639 210.772 548.84 209.613 552.953C208.451 557.075 205.727 560.323 202.272 562.265C198.811 564.197 194.622 564.81 190.509 563.65C186.388 562.488 183.136 559.777 181.193 556.323C179.262 552.861 178.649 548.673 179.811 544.551C180.969 540.442 183.688 537.179 187.136 535.243C190.597 533.312 194.789 532.686 198.911 533.848C203.024 535.008 206.272 537.731 208.215 541.186ZM246.185 559.881L244.415 566.156C243.887 568.03 242.275 569.303 240.326 569.374L235.466 569.559C233.944 569.62 232.662 570.367 231.877 571.664C230.1 574.546 228.012 577.177 225.671 579.531C224.604 580.605 224.175 582.026 224.469 583.511L225.418 588.293C225.804 590.196 224.94 592.054 223.244 593.015L217.55 596.204C215.857 597.152 213.825 596.91 212.388 595.592L208.806 592.285C207.701 591.247 206.261 590.869 204.785 591.23C201.558 591.998 198.22 592.403 194.839 592.4C193.317 592.41 192.011 593.108 191.178 594.378L188.468 598.422C187.39 600.047 185.474 600.746 183.592 600.216L177.317 598.447C175.444 597.918 174.167 596.315 174.096 594.37L173.91 589.51C173.85 587.988 173.102 586.706 171.809 585.908C168.923 584.144 166.293 582.056 163.938 579.715C162.865 578.648 161.447 578.206 159.958 578.513L155.176 579.462C153.272 579.838 151.416 578.984 150.455 577.288L147.266 571.595C146.321 569.889 146.563 567.856 147.878 566.433L151.184 562.85C152.223 561.745 152.601 560.305 152.239 558.829C151.471 555.603 151.066 552.264 151.069 548.883C151.06 547.361 150.361 546.055 149.095 545.209L145.047 542.512C143.422 541.434 142.727 539.505 143.254 537.636L145.023 531.361C145.555 529.475 147.15 528.21 149.099 528.14L153.976 527.945C155.485 527.881 156.764 527.147 157.562 525.853C159.338 522.971 161.414 520.337 163.755 517.983C164.834 516.913 165.263 515.491 164.956 514.002L164.007 509.22C163.633 507.307 164.489 505.447 166.182 504.499L171.875 501.31C173.581 500.365 175.617 500.594 177.037 501.922L180.619 505.229C181.728 506.254 183.168 506.632 184.641 506.283C187.867 505.515 191.205 505.11 194.59 505.1C196.108 505.104 197.414 504.405 198.26 503.139L200.957 499.091C202.035 497.466 203.968 496.758 205.837 497.285L212.112 499.054C213.998 499.586 215.259 501.195 215.33 503.143L215.528 508.007C215.576 509.525 216.323 510.808 217.62 511.593C220.502 513.37 223.133 515.458 225.487 517.799C226.561 518.866 227.982 519.294 229.467 519L234.249 518.051C236.165 517.669 238.022 518.533 238.971 520.226L242.16 525.919C243.108 527.612 242.879 529.649 241.548 531.081L238.241 534.663C237.216 535.772 236.837 537.212 237.186 538.685C237.954 541.911 238.359 545.249 238.369 548.635C238.365 550.152 239.064 551.458 240.334 552.291L244.378 555.002C246.003 556.079 246.716 557.995 246.185 559.881ZM216.734 554.96C218.448 548.879 217.54 542.683 214.676 537.571C211.812 532.458 207.002 528.433 200.921 526.718C194.827 525 188.627 525.922 183.515 528.785C178.403 531.649 174.39 536.463 172.677 542.54C170.959 548.634 171.867 554.83 174.731 559.942C177.594 565.055 182.408 569.067 188.498 570.784C194.579 572.499 200.775 571.59 205.892 568.728C211.004 565.864 215.017 561.05 216.734 554.96ZM133.529 582.375L117.953 577.983L116.937 563.408L82.9622 553.829L74.4957 565.731L58.9194 561.34C56.9514 560.785 54.8968 561.925 54.342 563.893C53.7871 565.861 54.9357 567.918 56.9081 568.474L131.514 589.508C133.482 590.062 135.539 588.914 136.095 586.941C136.655 584.97 135.502 582.931 133.529 582.375ZM138.588 527.431L25.7514 495.62L50.126 409.163C51.8575 403.021 58.2995 399.423 64.4411 401.155L212.5 442.897C218.642 444.628 222.256 451.061 220.524 457.202L210.987 491.031L207.845 490.145C202.877 488.745 197.659 490.679 194.795 494.973L192.95 497.714C190.108 497.812 187.278 498.151 184.489 498.725L182.056 496.479C178.276 492.981 172.741 492.32 168.242 494.844L162.549 498.033C158.049 500.543 155.727 505.605 156.727 510.667L157.368 513.913C155.435 515.996 153.667 518.232 152.099 520.604L148.789 520.729C144.337 520.904 140.458 523.509 138.588 527.431ZM83.8825 461.244L111.214 454.712C113.196 454.241 114.428 452.249 113.957 450.267C113.487 448.285 111.495 447.052 109.513 447.523L75.7843 455.579C75.1203 455.736 74.4858 456.07 73.9677 456.585C72.5308 458.03 72.5415 460.372 73.986 461.809L98.5716 486.332C100.016 487.769 102.356 487.767 103.795 486.314C105.232 484.869 105.221 482.528 103.777 481.091L83.8825 461.244ZM139.562 444.52C137.766 443.538 135.52 444.2 134.538 445.997L107.387 495.699C106.409 497.483 107.071 499.728 108.855 500.706C110.651 501.688 112.897 501.026 113.879 499.23L141.026 449.54C142.008 447.744 141.346 445.498 139.562 444.52ZM138.9 497.702L172.675 489.631C174.657 489.161 175.889 487.169 175.419 485.187C175.25 484.478 174.879 483.861 174.395 483.38L149.841 458.893C148.397 457.456 146.055 457.467 144.618 458.911C143.181 460.356 143.192 462.697 144.636 464.134L164.53 483.981L137.199 490.513C135.217 490.984 133.985 492.976 134.455 494.958C134.924 496.949 136.918 498.173 138.9 497.702ZM140.922 548.668C136.631 545.809 134.706 540.589 136.106 535.621L136.417 534.521L23.7401 502.754L19.9182 516.311C18.1903 522.439 21.8009 528.885 27.9425 530.616L141.439 562.614C141.743 562.197 142.068 561.79 142.428 561.402L144.671 558.969C144.11 556.183 143.771 553.352 143.66 550.507L140.922 548.668Z" fill="#A1BEC9" fill-opacity="0.66"/>
</g>
<g clip-path="url(#clip2_130_1967)" filter="url(#filter2_f_130_1967)">
<path fill-rule="evenodd" clip-rule="evenodd" d="M431.252 461.17L423.708 463.704C422.666 464.054 422.105 465.182 422.455 466.223L424.988 473.768C426.038 476.893 429.422 478.576 432.547 477.526C435.672 476.477 437.355 473.093 436.305 469.968L433.772 462.423C433.422 461.381 432.294 460.821 431.252 461.17Z" fill="#557C8B"/>
<path d="M394.162 475.724C389.214 461.056 394.25 444.869 406.647 435.597C419.043 426.325 435.994 426.067 448.666 434.958C461.339 443.849 466.865 459.876 462.364 474.687L467.834 477.407C468.118 477.213 468.427 477.058 468.751 476.944C469.647 476.646 470.62 476.681 471.492 477.042L472.387 476.741C473.342 476.342 473.807 475.256 473.437 474.29L451.269 408.274L355.075 440.576L377.243 506.591C377.53 507.584 378.554 508.17 379.555 507.914L412.908 496.714C412.659 496.6 412.42 496.511 412.17 496.391C403.648 492.183 397.164 484.742 394.162 475.724ZM371.973 448.979L368.215 456.537C367.715 457.5 366.535 457.885 365.563 457.402C364.591 456.919 364.186 455.746 364.652 454.766L367.525 448.989L361.748 446.116C360.785 445.616 360.4 444.436 360.883 443.464C361.366 442.492 362.539 442.087 363.519 442.553L371.078 446.312C372.061 446.801 372.462 447.995 371.973 448.979ZM375.864 452.485C375.515 451.443 376.076 450.315 377.117 449.965L384.662 447.431C385.704 447.082 386.832 447.643 387.181 448.684C387.531 449.726 386.97 450.854 385.929 451.204L378.384 453.737C377.342 454.087 376.214 453.526 375.864 452.485Z" fill="#557C8B"/>
<path fill-rule="evenodd" clip-rule="evenodd" d="M425.58 456.779C424.538 457.128 423.977 458.256 424.327 459.298L428.099 458.031C427.749 456.99 426.621 456.429 425.58 456.779Z" fill="#557C8B"/>
<path d="M446.835 395.071C446.548 394.078 445.524 393.493 444.523 393.749L351.687 424.923C350.734 425.324 350.271 426.408 350.641 427.373L353.808 436.804L450.002 404.502L446.835 395.071ZM358.2 431.131C357.158 431.481 356.03 430.92 355.68 429.879C355.33 428.837 355.891 427.709 356.933 427.359C357.975 427.009 359.103 427.57 359.453 428.612C359.802 429.654 359.242 430.782 358.2 431.131ZM365.744 428.598C364.703 428.948 363.575 428.387 363.225 427.345C362.875 426.303 363.436 425.175 364.478 424.826C365.519 424.476 366.647 425.037 366.997 426.078C367.347 427.12 366.786 428.248 365.744 428.598ZM373.289 426.064C372.247 426.414 371.119 425.853 370.77 424.812C370.42 423.77 370.981 422.642 372.022 422.292C373.064 421.942 374.192 422.503 374.542 423.545C374.892 424.587 374.331 425.715 373.289 426.064ZM445.848 400.215C446.498 400.524 446.93 401.159 446.979 401.877C447.028 402.594 446.686 403.282 446.084 403.676C445.482 404.07 444.715 404.109 444.077 403.778L443.339 403.411L442.972 404.149C442.472 405.112 441.292 405.497 440.32 405.014C439.348 404.531 438.943 403.358 439.409 402.378L439.776 401.639L439.038 401.272C438.075 400.772 437.69 399.593 438.173 398.621C438.656 397.649 439.829 397.244 440.809 397.71L441.548 398.077L441.915 397.339C442.223 396.689 442.859 396.257 443.576 396.208C444.294 396.16 444.982 396.502 445.376 397.103C445.77 397.705 445.809 398.472 445.477 399.11L445.11 399.848L445.848 400.215Z" fill="#557C8B"/>
<path fill-rule="evenodd" clip-rule="evenodd" d="M487.834 489.574L470.018 480.716L466.475 487.841L484.291 496.7C486.262 497.624 488.611 496.835 489.625 494.908C490.603 492.941 489.801 490.553 487.834 489.574Z" fill="#557C8B"/>
<path fill-rule="evenodd" clip-rule="evenodd" d="M460.979 478.443C460.715 479.052 460.475 479.662 460.18 480.269C459.884 480.876 459.521 481.433 459.202 482.008L463.793 484.292L465.567 480.725L460.979 478.443Z" fill="#557C8B"/>
<path d="M442.285 435.818C428.686 429.057 412.204 432.844 402.92 444.863C393.636 456.882 394.134 473.786 404.111 485.236C414.088 496.687 430.764 499.496 443.941 491.945C457.118 484.394 463.127 468.586 458.291 454.189C455.613 446.18 449.853 439.568 442.285 435.818ZM453.056 476.726C447.14 488.625 433.643 494.688 420.818 491.208C407.993 487.727 399.412 475.672 400.324 462.414C401.236 449.156 411.386 438.389 424.567 436.697C437.747 435.005 450.288 442.859 454.519 455.456C456.881 462.458 456.355 470.113 453.056 476.726Z" fill="#557C8B"/>
<path d="M438.743 442.945C428.544 437.874 416.182 440.714 409.219 449.728C402.255 458.742 402.629 471.42 410.112 480.008C417.594 488.597 430.102 490.703 439.984 485.04C449.867 479.376 454.373 467.521 450.747 456.723C448.738 450.716 444.418 445.757 438.743 442.945ZM410.3 455.464C412.637 450.731 416.771 447.129 421.78 445.462C422.821 445.112 423.949 445.673 424.299 446.715C424.649 447.756 424.088 448.884 423.046 449.234C419.039 450.567 415.732 453.449 413.862 457.236C413.362 458.199 412.182 458.584 411.21 458.101C410.238 457.617 409.833 456.444 410.3 455.464ZM443.216 465.548L439.444 466.815L439.815 467.92L444.116 470.059C444.765 470.367 445.197 471.003 445.246 471.72C445.295 472.438 444.953 473.126 444.352 473.52C443.75 473.914 442.983 473.953 442.344 473.621L440.548 472.728C440.211 476.672 437.565 480.039 433.813 481.299C430.061 482.559 425.919 481.471 423.271 478.53L422.378 480.326C421.878 481.29 420.698 481.674 419.726 481.191C418.754 480.708 418.349 479.535 418.815 478.555L420.954 474.254L420.583 473.149L416.81 474.415C415.768 474.765 414.64 474.204 414.291 473.162C413.941 472.121 414.502 470.993 415.543 470.643L419.316 469.376L418.945 468.271L414.644 466.132C413.68 465.632 413.296 464.452 413.779 463.481C414.262 462.509 415.435 462.104 416.415 462.57L418.703 463.707C419.071 462.603 419.756 461.631 420.671 460.912L420.555 460.565C419.505 457.44 421.188 454.056 424.313 453.006C427.438 451.957 430.822 453.639 431.872 456.765L431.988 457.112C433.152 457.132 434.284 457.493 435.244 458.151L436.382 455.863C436.882 454.9 438.062 454.515 439.033 454.998C440.005 455.481 440.41 456.654 439.944 457.634L437.806 461.937L438.177 463.042L441.95 461.776C442.991 461.426 444.119 461.987 444.469 463.029C444.819 464.07 444.258 465.198 443.216 465.548Z" fill="#557C8B"/>
</g>
<g clip-path="url(#clip3_130_1967)">
<path d="M214.201 74.6195L95.6938 118.514C79.3314 124.575 70.9801 142.752 77.0408 159.115L157.514 376.377C163.575 392.74 181.752 401.091 198.115 395.03L316.622 351.136C332.984 345.075 341.335 326.898 335.275 310.535L254.801 93.2726C248.741 76.9101 230.563 68.5589 214.201 74.6195ZM323.57 309.255C328.612 322.868 321.644 338.045 308.026 343.089L199.395 383.326C185.782 388.368 170.603 381.394 165.561 367.782L88.7453 160.395C83.7032 146.782 90.6768 131.603 104.289 126.561L212.921 86.3241C226.538 81.2802 241.712 88.2556 246.755 101.868L323.57 309.255Z" fill="#A1BEC9"/>
<path d="M216.579 96.1996L182.014 109.002C186.055 119.91 180.487 132.029 169.579 136.069C158.671 140.11 146.552 134.542 142.512 123.634L107.947 136.436C99.7788 139.462 95.5953 148.568 98.6209 156.737L175.437 364.124C178.462 372.292 187.568 376.476 195.737 373.45L304.368 333.214C312.537 330.188 316.72 321.082 313.695 312.913L236.879 105.526C233.853 97.3576 224.747 93.174 216.579 96.1996ZM206.02 269.955C208.74 270.992 210.103 274.036 209.069 276.749C208.504 278.231 207.35 279.305 205.976 279.814C204.819 280.243 203.513 280.271 202.274 279.798L149.969 259.865C148.546 259.323 147.431 258.195 146.904 256.772C146.377 255.35 146.488 253.768 147.215 252.429L173.915 203.233C175.303 200.674 178.491 199.718 181.056 201.12C183.609 202.505 184.557 205.702 183.169 208.261L159.34 252.166L206.02 269.955ZM265.101 217.221L238.401 266.417C237.769 267.583 236.76 268.412 235.603 268.84C234.228 269.349 232.653 269.286 231.26 268.53C228.707 267.145 227.759 263.948 229.147 261.389L252.975 217.484L206.296 199.695C203.575 198.657 202.212 195.614 203.247 192.901C204.279 190.166 207.321 188.814 210.042 189.852L262.346 209.785C263.77 210.327 264.884 211.455 265.411 212.878C265.938 214.3 265.828 215.882 265.101 217.221Z" fill="#A1BEC9"/>
<path d="M395.708 185.92L378.884 183.224C378.063 179.35 376.986 175.614 375.663 172.041C374.339 168.468 372.723 164.932 370.822 161.457L381.83 148.452C383.661 146.288 384.541 143.484 384.278 140.669C384.012 137.851 382.635 135.257 380.438 133.471L347.553 106.751C343.113 103.142 336.599 103.735 332.871 108.12L321.673 121.355C314.003 118.975 305.997 117.674 297.99 117.492L292.207 101.879C290.187 96.4248 284.132 93.6391 278.673 95.6609L268.335 99.4903L290.282 158.744C312.099 150.663 336.335 161.798 344.416 183.614C352.497 205.431 341.362 229.667 319.545 237.748L341.492 297.002L351.831 293.172C357.29 291.151 360.069 285.093 358.049 279.639L352.267 264.03C358.222 258.671 363.447 252.464 367.718 245.667L384.835 248.413C390.522 249.318 395.851 245.523 396.867 239.888L404.411 198.193C404.914 195.407 404.27 192.542 402.635 190.231C401.002 187.924 398.507 186.369 395.708 185.92Z" fill="#A1BEC9"/>
</g>
<defs>
<filter id="filter0_f_130_1967" x="404" y="25" width="128.951" height="128.951" filterUnits="userSpaceOnUse" color-interpolation-filters="sRGB">
<feFlood flood-opacity="0" result="BackgroundImageFix"/>
<feBlend mode="normal" in="SourceGraphic" in2="BackgroundImageFix" result="shape"/>
<feGaussianBlur stdDeviation="4.5" result="effect1_foregroundBlur_130_1967"/>
</filter>
<filter id="filter1_f_130_1967" x="-3.99988" y="362" width="291.276" height="291.276" filterUnits="userSpaceOnUse" color-interpolation-filters="sRGB">
<feFlood flood-opacity="0" result="BackgroundImageFix"/>
<feBlend mode="normal" in="SourceGraphic" in2="BackgroundImageFix" result="shape"/>
<feGaussianBlur stdDeviation="2" result="effect1_foregroundBlur_130_1967"/>
</filter>
<filter id="filter2_f_130_1967" x="343" y="383" width="155.094" height="155.094" filterUnits="userSpaceOnUse" color-interpolation-filters="sRGB">
<feFlood flood-opacity="0" result="BackgroundImageFix"/>
<feBlend mode="normal" in="SourceGraphic" in2="BackgroundImageFix" result="shape"/>
<feGaussianBlur stdDeviation="3.5" result="effect1_foregroundBlur_130_1967"/>
</filter>
<clipPath id="clip0_130_1967">
<rect width="88.9465" height="88.9465" fill="white" transform="translate(413 59.8416) rotate(-16.8896)"/>
</clipPath>
<clipPath id="clip1_130_1967">
<rect width="229.591" height="229.591" fill="white" transform="translate(62.2993 366) rotate(15.7445)"/>
</clipPath>
<clipPath id="clip2_130_1967">
<rect width="111.422" height="111.422" fill="white" transform="translate(350 425.469) rotate(-18.5621)"/>
</clipPath>
<clipPath id="clip3_130_1967">
<rect width="337" height="337" fill="white" transform="translate(39.0001 117.053) rotate(-20.3245)"/>
</clipPath>
</defs>
</svg>
