<svg width="71" height="71" viewBox="0 0 71 71" fill="none" xmlns="http://www.w3.org/2000/svg">
<path d="M35.4565 55.4171V16.3879C35.4565 16.0145 35.154 15.7116 34.7806 15.7116H33.4522C33.0785 15.7116 32.776 16.0145 32.776 16.3879V55.4171C32.776 55.791 33.0785 56.0938 33.4522 56.0938H34.7806C35.154 56.0938 35.4565 55.791 35.4565 55.4171ZM28.5249 58.2141C24.3804 59.5895 20.5684 54.8809 21.2763 49.3627C16.8036 51.4056 11.6925 47.7832 11.8105 42.3071H22.1933V44.2495C19.9934 45.1017 20.6075 48.3753 22.9619 48.3753C25.3119 48.3753 25.9362 45.1044 23.7312 44.2495V42.3071H27.3057C27.5229 42.8667 27.965 43.3097 28.5249 43.5266C28.5249 46.4035 28.5249 54.8292 28.5249 58.2141ZM30.1019 57.3524C30.0888 57.3626 30.0769 57.3761 30.0638 57.3863C30.0638 52.7537 30.0638 48.1496 30.0638 43.5266C30.8627 43.2169 31.431 42.4461 31.431 41.5376C31.431 39.184 28.1586 38.5663 27.3057 40.7682C25.1794 40.7682 18.609 40.7682 16.6482 40.7682V30.0423C17.4468 29.7326 18.0154 28.9618 18.0154 28.0533C18.0154 26.873 17.059 25.9159 15.8785 25.9159C14.6981 25.9159 13.7417 26.873 13.7417 28.0533C13.7417 28.9618 14.311 29.7326 15.1093 30.0423V40.7682H11.9888C12.4072 38.8436 13.4955 37.2547 14.8499 36.2649C13.0544 34.9527 11.8036 32.656 11.8036 30.0571C11.8036 25.528 15.5531 21.8472 19.904 22.728V29.4212V30.9602C21.1134 30.9602 24.4529 30.9602 25.832 30.9602C26.6872 33.1648 29.9576 32.542 29.9576 30.1907C29.9576 27.8364 26.6859 27.2204 25.832 29.4212H21.4426V19.642C22.0743 16.8468 23.86 14.7036 26.0717 14.1922C25.9857 13.3509 25.9082 12.4832 25.8481 11.7215C23.5517 12.102 21.3495 13.6602 19.904 16.6474C19.3914 17.706 19.0275 18.8829 18.8521 20.1406C13.5778 20.0053 9.34293 24.5598 9.34293 30.0571C9.34293 32.4057 10.1149 34.5633 11.3965 36.2649C6.5673 42.6744 10.776 52.5739 18.8521 52.3897C19.5229 57.2228 22.9572 60.9186 27.0909 60.9186C28.131 60.9186 29.1502 60.6657 30.1019 60.2091V57.3524ZM25.2421 23.3325C25.2421 25.6868 28.5151 26.3025 29.367 24.1017H32.9956C32.9956 26.5079 32.9956 33.435 32.9956 35.4954H23.0307C22.1751 33.2916 18.9047 33.9133 18.9047 36.2649C18.9047 38.6202 22.1764 39.2342 23.0307 37.0344H32.9956C32.9956 38.4455 32.9956 46.8613 32.9956 49.9267H35.4565C35.4565 45.9261 35.4565 27.5153 35.4565 24.1017C35.4565 22.9952 35.4565 22.8397 35.4565 22.5631H32.9956H32.6273H29.367C28.5168 20.3673 25.2421 20.9742 25.2421 23.3325ZM62.2931 36.2622C62.2904 35.5245 61.6914 34.924 60.9579 34.924H60.4148C60.3325 34.924 60.2518 34.9317 60.2276 34.9402C59.506 34.9598 58.8193 34.9614 58.3111 34.7709C57.8998 34.6167 57.525 34.3147 57.2545 33.9187C56.8372 33.3115 56.642 32.4765 56.6576 31.364C56.6705 30.4704 56.8001 29.5673 56.9378 28.6109C57.0114 28.1026 57.084 27.5932 57.141 27.0834C57.7471 21.5935 54.5846 16.084 49.0846 13.0472C46.1792 11.4425 42.7766 10.3977 39.5052 10.1049C39.1457 10.0746 38.8004 10.1818 38.5248 10.4156C38.2537 10.6464 38.0871 10.9682 38.0554 11.3234C38.024 11.6783 38.1306 12.0251 38.3562 12.2997C38.5852 12.5784 38.9093 12.7501 39.2674 12.7817C42.1797 13.0422 45.2102 13.9732 47.8003 15.4036C52.3486 17.9131 54.9729 22.3812 54.4857 26.7863C54.4335 27.267 54.3642 27.7463 54.2943 28.2264C54.1507 29.2246 54.0023 30.2572 53.9867 31.3259C53.9636 33.0143 54.3131 34.362 55.0557 35.4449C55.2708 35.7589 55.5294 36.0362 55.8048 36.2916C55.5294 36.5469 55.2713 36.8236 55.0562 37.1376C54.3136 38.2219 53.9636 39.5702 53.9867 41.2593C54.0023 42.3253 54.1507 43.3579 54.2953 44.3669C54.3652 44.8432 54.4341 45.3189 54.4857 45.7976C54.9729 50.2033 52.3486 54.6716 47.8003 57.1803C45.2102 58.6105 42.1797 59.5416 39.2678 59.8019C38.9093 59.8336 38.5852 60.0052 38.3559 60.2849C38.1306 60.5587 38.024 60.9056 38.0554 61.2606C38.1181 61.9583 38.6894 62.4838 39.3848 62.4838C39.4243 62.4838 39.4638 62.4827 39.5045 62.4789C42.7769 62.1863 46.1792 61.1412 49.0846 59.5367C54.5846 56.502 57.7471 50.9924 57.141 45.4997C57.084 44.9907 57.0114 44.4813 56.9367 43.9659C56.8001 43.0115 56.6705 42.1108 56.6576 41.2219C56.642 40.109 56.8372 39.2717 57.255 38.6631C57.525 38.2691 57.8998 37.9672 58.3101 37.8124C58.6747 37.6757 59.1387 37.6386 59.6238 37.6345C59.6458 37.6345 59.6722 37.6359 59.6942 37.6359C59.7254 37.6359 59.7544 37.6346 59.7856 37.6342C59.9163 37.6349 60.048 37.6362 60.1798 37.6396C60.2556 37.6521 60.3346 37.6599 60.4148 37.6599H60.9579C61.6914 37.6599 62.2904 37.0594 62.2931 36.3216C62.2931 36.3115 62.2904 36.302 62.2904 36.2919C62.2904 36.2818 62.2931 36.2724 62.2931 36.2622ZM33.3905 60.2849C33.1611 60.0052 32.8374 59.8336 32.4785 59.8019C30.5214 59.6271 28.5138 59.143 26.6191 58.4136C26.5645 58.5051 26.5152 58.5998 26.4538 58.6874C25.9621 59.3921 25.52 60.0563 25.037 60.6765C27.3418 61.6345 29.8267 62.2627 32.2421 62.4789C32.2826 62.4827 32.3221 62.4838 32.3615 62.4838C33.0569 62.4838 33.6283 61.9583 33.691 61.2606C33.7223 60.9056 33.6158 60.5587 33.3905 60.2849ZM23.4273 15.7116C23.599 15.6077 23.7683 15.5014 23.946 15.4036C26.5364 13.9732 29.567 13.0422 32.4789 12.7817C32.8374 12.7501 33.1611 12.5784 33.3902 12.2997C33.6157 12.0251 33.7223 11.6783 33.691 11.3234C33.6593 10.9682 33.4926 10.6464 33.2215 10.4156C32.946 10.1818 32.6007 10.0746 32.2414 10.1049C29.1981 10.3775 26.0461 11.3072 23.2816 12.7264C23.6192 13.6889 23.6988 14.7188 23.4273 15.7116ZM35.4561 68.8437C17.2067 68.8437 2.35964 53.9923 2.35964 35.738C2.35964 17.4837 17.2067 2.63208 35.4561 2.63208C53.7057 2.63208 68.5534 17.4837 68.5534 35.738C68.5534 53.9923 53.7057 68.8437 35.4561 68.8437ZM35.4561 0.492645C16.0276 0.492645 0.220703 16.3036 0.220703 35.738C0.220703 55.1724 16.0276 70.9833 35.4561 70.9833C54.8858 70.9833 70.6925 55.1724 70.6925 35.738C70.6925 16.3036 54.8858 0.492645 35.4561 0.492645Z" fill="white"/>
</svg>
