<svg width="541" height="407" viewBox="0 0 541 407" fill="none" xmlns="http://www.w3.org/2000/svg">
<g opacity="0.4" clip-path="url(#clip0_117_1480)">
<path fill-rule="evenodd" clip-rule="evenodd" d="M473.532 244.215L466.835 248.652C465.911 249.264 465.658 250.51 466.27 251.435L470.707 258.132C472.544 260.905 476.282 261.664 479.056 259.827C481.83 257.989 482.589 254.251 480.752 251.477L476.315 244.78C475.703 243.856 474.457 243.603 473.532 244.215Z" fill="#8DA1E6"/>
<path d="M441.158 268.071C432.511 255.058 433.204 237.961 442.876 225.69C452.548 213.419 469.009 208.751 483.683 214.119C498.356 219.486 507.92 233.674 507.392 249.289L513.434 250.516C513.661 250.253 513.921 250.021 514.207 249.825C515.003 249.302 515.961 249.082 516.905 249.207L517.7 248.68C518.527 248.042 518.698 246.862 518.085 246.017L479.267 187.421L393.885 243.983L432.703 302.579C433.241 303.472 434.392 303.776 435.302 303.266L464.906 283.654C464.634 283.608 464.377 283.583 464.102 283.532C454.696 281.649 446.434 276.082 441.158 268.071ZM412.552 247.773L410.857 256.123C410.62 257.193 409.57 257.875 408.497 257.657C407.423 257.439 406.722 256.401 406.922 255.324L408.217 248.942L401.835 247.646C400.766 247.41 400.083 246.36 400.301 245.286C400.519 244.212 401.557 243.512 402.635 243.711L410.984 245.406C412.071 245.627 412.773 246.687 412.552 247.773ZM417.26 250.178C416.648 249.254 416.901 248.007 417.825 247.395L424.522 242.959C425.446 242.346 426.693 242.599 427.305 243.524C427.918 244.448 427.665 245.694 426.74 246.307L420.043 250.743C419.119 251.356 417.873 251.103 417.26 250.178Z" fill="#8DA1E6"/>
<path fill-rule="evenodd" clip-rule="evenodd" d="M466.856 241.411C465.932 242.024 465.679 243.27 466.291 244.195L469.64 241.977C469.027 241.052 467.781 240.799 466.856 241.411Z" fill="#8DA1E6"/>
<path d="M471.504 175.701C470.965 174.808 469.815 174.504 468.905 175.014L386.503 229.602C385.678 230.241 385.51 231.419 386.122 232.264L391.667 240.634L477.049 184.072L471.504 175.701ZM394.471 233.959C393.547 234.571 392.301 234.318 391.688 233.394C391.076 232.469 391.329 231.223 392.253 230.611C393.178 229.998 394.424 230.251 395.037 231.176C395.649 232.1 395.396 233.346 394.471 233.959ZM401.168 229.523C400.243 230.135 398.997 229.882 398.385 228.958C397.772 228.033 398.025 226.787 398.95 226.174C399.875 225.562 401.121 225.815 401.733 226.739C402.346 227.664 402.093 228.91 401.168 229.523ZM407.865 225.086C406.94 225.699 405.694 225.446 405.082 224.521C404.469 223.597 404.722 222.351 405.647 221.738C406.571 221.125 407.817 221.378 408.43 222.303C409.042 223.228 408.789 224.474 407.865 225.086ZM471.882 180.974C472.596 181.106 473.183 181.613 473.417 182.3C473.652 182.987 473.498 183.747 473.014 184.288C472.53 184.829 471.792 185.066 471.083 184.91L470.268 184.744L470.102 185.56C469.865 186.629 468.815 187.312 467.742 187.094C466.668 186.876 465.968 185.838 466.167 184.761L466.332 183.945L465.517 183.78C464.447 183.543 463.765 182.493 463.983 181.419C464.201 180.346 465.239 179.645 466.316 179.844L467.131 180.01L467.297 179.194C467.429 178.481 467.936 177.894 468.623 177.659C469.309 177.425 470.069 177.579 470.61 178.063C471.151 178.547 471.389 179.285 471.233 179.993L471.067 180.809L471.882 180.974Z" fill="#8DA1E6"/>
<path fill-rule="evenodd" clip-rule="evenodd" d="M536.106 257.169L516.426 253.174L514.828 261.045L534.508 265.04C536.671 265.428 538.756 264.047 539.242 261.904C539.683 259.731 538.279 257.611 536.106 257.169Z" fill="#8DA1E6"/>
<path fill-rule="evenodd" clip-rule="evenodd" d="M507.019 253.313C506.921 253.975 506.846 254.632 506.716 255.301C506.585 255.97 506.377 256.607 506.215 257.251L511.287 258.283L512.088 254.342L507.019 253.313Z" fill="#8DA1E6"/>
<path d="M477.684 216.619C462.662 213.57 447.577 221.558 441.656 235.697C435.735 249.836 440.625 266.188 453.337 274.754C466.049 283.32 483.042 281.714 493.924 270.918C504.805 260.121 506.545 243.141 498.079 230.363C493.38 223.25 486.041 218.304 477.684 216.619ZM498.847 253.702C496.178 266.847 484.596 276.276 471.184 276.224C457.771 276.172 446.263 266.652 443.698 253.487C441.133 240.322 448.224 227.178 460.636 222.093C473.048 217.009 487.323 221.4 494.731 232.581C498.859 238.793 500.34 246.394 498.847 253.702Z" fill="#8DA1E6"/>
<path d="M476.087 224.492C464.821 222.205 453.507 228.195 449.066 238.799C444.624 249.403 448.292 261.668 457.826 268.093C467.361 274.518 480.105 273.313 488.266 265.215C496.428 257.118 497.732 244.383 491.383 234.799C487.859 229.465 482.354 225.756 476.087 224.492ZM451.614 244.111C452.66 238.886 455.752 234.297 460.202 231.366C461.127 230.754 462.373 231.007 462.985 231.931C463.598 232.856 463.345 234.102 462.42 234.715C458.86 237.059 456.386 240.73 455.55 244.91C455.313 245.98 454.263 246.662 453.189 246.444C452.116 246.226 451.415 245.188 451.614 244.111ZM486.339 245.367L482.991 247.585L483.641 248.566L488.392 249.531C489.105 249.663 489.692 250.17 489.927 250.856C490.161 251.543 490.007 252.303 489.523 252.844C489.039 253.385 488.301 253.623 487.593 253.466L485.608 253.063C486.307 256.997 484.605 260.969 481.274 263.176C477.944 265.382 473.622 265.4 470.273 263.222L469.87 265.207C469.633 266.276 468.583 266.959 467.51 266.741C466.436 266.523 465.735 265.485 465.934 264.408L466.899 259.657L466.249 258.676L462.901 260.894C461.976 261.506 460.73 261.253 460.118 260.329C459.505 259.404 459.758 258.158 460.683 257.545L464.031 255.327L463.381 254.346L458.63 253.382C457.56 253.145 456.878 252.095 457.096 251.021C457.313 249.948 458.352 249.247 459.429 249.446L461.956 249.959C462.028 248.787 462.442 247.661 463.147 246.721L462.943 246.413C461.106 243.639 461.864 239.9 464.638 238.063C467.412 236.225 471.15 236.984 472.988 239.758L473.192 240.066C474.332 239.783 475.53 239.84 476.638 240.231L477.151 237.704C477.388 236.634 478.438 235.952 479.511 236.169C480.585 236.387 481.286 237.426 481.086 238.503L480.123 243.255L480.773 244.237L484.121 242.018C485.046 241.406 486.292 241.659 486.904 242.584C487.517 243.508 487.264 244.754 486.339 245.367Z" fill="#8DA1E6"/>
</g>
<g clip-path="url(#clip1_117_1480)">
<path d="M172.791 126.699C173.378 127.714 173.578 128.966 173.252 130.185C172.925 131.403 172.125 132.388 171.11 132.974C170.095 133.56 168.86 133.765 167.624 133.434C166.406 133.107 165.421 132.307 164.835 131.292C164.249 130.277 164.048 129.025 164.375 127.806C164.701 126.588 165.501 125.603 166.516 125.017C167.532 124.431 168.784 124.231 170.003 124.557C171.239 124.888 172.205 125.684 172.791 126.699ZM145.765 215.014C144.546 214.688 143.298 214.871 142.283 215.457C141.264 216.06 140.468 217.027 140.142 218.246C139.811 219.482 140.016 220.717 140.597 221.749C141.183 222.764 142.172 223.547 143.391 223.873C144.627 224.204 145.857 224.017 146.872 223.431C147.892 222.827 148.687 221.86 149.019 220.624C149.345 219.406 149.14 218.171 148.558 217.138C147.972 216.123 147.001 215.345 145.765 215.014ZM157.886 169.777C156.667 169.45 155.415 169.651 154.4 170.237C153.385 170.823 152.585 171.807 152.258 173.026C151.927 174.262 152.132 175.497 152.719 176.512C153.305 177.527 154.289 178.327 155.507 178.654C156.744 178.985 157.978 178.779 158.993 178.193C160.009 177.607 160.804 176.641 161.135 175.404C161.462 174.186 161.261 172.933 160.675 171.918C160.089 170.903 159.122 170.108 157.886 169.777ZM190.341 222.466L171.309 293.498C169.203 301.357 164.108 307.632 157.575 311.389C151.037 315.164 143.061 316.44 135.202 314.334C127.326 312.224 121.069 307.134 117.3 300.597C113.52 294.077 112.244 286.101 114.351 278.237C116.045 271.914 119.639 266.65 124.354 262.873C129.206 258.987 135.232 256.652 141.564 256.38C144.438 256.273 146.654 253.864 146.548 250.99C146.418 248.129 144.014 245.895 141.135 246.019C132.558 246.384 124.408 249.512 117.864 254.768C115.22 256.886 112.851 259.324 110.809 262.07C109.266 262.155 107.708 262.154 106.131 262.034C103.883 261.88 101.57 261.493 99.2504 260.872C89.5377 258.269 81.7868 251.972 77.1329 243.911C72.466 235.828 70.8845 225.978 73.4854 216.271C74.1825 213.67 75.1401 211.226 76.3241 208.95C77.4856 206.687 78.8467 204.598 80.389 202.727C80.5427 202.554 80.6964 202.38 80.8371 202.185C82.5173 199.846 81.9909 196.607 79.6525 194.927C74.2897 191.042 70.3883 184.647 68.4084 176.943C66.413 169.109 66.4263 159.97 68.9121 150.693C71.3979 141.416 75.9555 133.496 81.5944 127.732C87.1657 122.033 93.7358 118.468 100.324 117.779L100.329 117.762C100.438 117.753 100.551 117.733 100.661 117.724C103.489 117.246 105.385 114.574 104.912 111.747C104.493 109.237 104.331 106.639 104.453 103.971C104.566 101.408 104.958 98.8132 105.655 96.2114C108.258 86.4987 114.555 78.7478 122.634 74.0986C130.7 69.427 140.567 67.8502 150.273 70.4511C152.593 71.0725 154.789 71.8944 156.814 72.8849C158.234 73.5873 159.59 74.3419 160.883 75.1929C161.278 78.5921 162.106 81.9055 163.341 85.0439C166.38 92.8676 171.87 99.6697 179.116 104.274C181.551 105.803 184.747 105.082 186.293 102.657C187.818 100.24 187.102 97.0256 184.672 95.4977C179.325 92.0964 175.269 87.079 173.01 81.2877C170.815 75.6586 170.34 69.2853 172.029 62.9809L172.034 62.9632C174.139 55.1048 179.229 48.8473 185.767 45.0724C192.306 41.2976 200.264 40.0168 208.14 42.1272C215.998 44.2328 222.273 49.3275 226.042 55.8641C229.817 62.4023 231.093 70.3782 228.988 78.2366L209.955 149.268L197.605 145.959L199.916 137.336C200.659 134.563 199.007 131.71 196.24 130.969L183.761 127.625C183.556 125.444 182.883 123.365 181.804 121.505C179.887 118.184 176.7 115.595 172.698 114.522C168.713 113.454 164.653 114.102 161.331 116.019C158.01 117.937 155.404 121.119 154.331 125.121C153.258 129.124 153.925 133.183 155.842 136.504C157.76 139.825 160.946 142.414 164.938 143.484C168.94 144.556 172.994 143.907 176.316 141.99C178.174 140.917 179.803 139.454 181.07 137.668L188.528 139.666L186.216 148.296C185.473 151.068 187.125 153.921 189.891 154.662L207.262 159.317L201.494 180.843L171.644 172.845C171.437 170.676 170.767 168.585 169.683 166.742C167.77 163.403 164.584 160.815 160.581 159.742C156.596 158.674 152.536 159.321 149.21 161.257C145.889 163.174 143.282 166.356 142.213 170.347C141.14 174.35 141.807 178.408 143.724 181.73C145.642 185.051 148.828 187.64 152.819 188.709C156.822 189.782 160.876 189.133 164.197 187.215C166.056 186.142 167.684 184.68 168.952 182.893L198.802 190.891L193.029 212.436L175.658 207.781C172.886 207.038 170.038 208.673 169.292 211.457L166.984 220.069L159.526 218.071C159.317 215.907 158.649 213.81 157.565 211.968C155.647 208.647 152.466 206.04 148.463 204.968C144.478 203.9 140.413 204.565 137.092 206.482C133.771 208.4 131.164 211.581 130.095 215.572C129.022 219.575 129.689 223.634 131.606 226.955C133.524 230.277 136.71 232.865 140.701 233.935C144.704 235.007 148.758 234.359 152.079 232.441C153.938 231.368 155.566 229.905 156.829 228.136L169.308 231.48C172.081 232.223 174.933 230.571 175.679 227.787L177.987 219.175L190.337 222.484L190.341 222.466ZM116.304 163.392C117.905 157.417 120.826 152.332 124.44 148.638C127.916 145.084 131.986 142.844 136.047 142.43C138.894 142.139 140.973 139.586 140.684 136.732C140.393 133.885 137.84 131.806 134.986 132.095C128.46 132.763 122.161 136.116 117.007 141.391C112.179 146.318 108.325 152.977 106.254 160.705C104.18 168.446 104.194 176.141 105.909 182.808C107.727 189.964 111.526 196.01 116.832 199.848C119.153 201.524 122.409 201.002 124.084 198.681C125.76 196.361 125.238 193.104 122.917 191.429C119.608 189.04 117.202 185.071 115.97 180.249C114.684 175.229 114.703 169.367 116.304 163.392ZM373.519 217.877C373.355 217.474 373.044 217.107 372.623 216.817L356.108 206.095C354.282 204.906 352.84 203.34 351.849 201.503C350.873 199.683 350.345 197.63 350.361 195.451C350.391 190.204 350.052 184.997 349.376 179.844C348.687 174.669 347.654 169.528 346.271 164.47C345.7 162.386 345.664 160.263 346.161 158.219C346.637 156.183 347.616 154.319 349.071 152.703L362.259 138.047C362.616 137.657 362.801 137.227 362.866 136.797C362.913 136.361 362.803 135.903 362.53 135.438L349.925 113.607C349.667 113.159 349.311 112.837 348.912 112.654C348.529 112.482 348.042 112.44 347.526 112.554L328.261 116.641C326.139 117.095 324.012 117.004 322.006 116.416C320.004 115.81 318.168 114.725 316.653 113.177C312.964 109.451 309.045 105.991 304.903 102.824C300.784 99.6446 296.421 96.7596 291.866 94.1449C289.973 93.0635 288.453 91.6025 287.37 89.8296C286.275 88.0535 285.628 86.0382 285.517 83.8633L284.494 64.1825C284.466 63.6764 284.3 63.2346 284.019 62.8943C283.738 62.554 283.344 62.2842 282.843 62.1502L275.685 60.2322L255.695 134.837C270.407 140.066 282.169 150.303 289.516 163.054C297.703 177.21 300.479 194.496 295.912 211.537C291.343 228.59 280.301 242.155 266.131 250.326C253.393 257.695 238.089 260.68 222.728 257.87L202.743 332.457L209.901 334.375C210.401 334.509 210.873 334.49 211.287 334.336C211.706 334.184 212.075 333.866 212.347 333.44L223.068 316.925C224.258 315.099 225.824 313.658 227.661 312.667C229.48 311.691 231.532 311.168 233.712 311.178C238.96 311.209 244.185 310.874 249.338 310.198C254.513 309.509 259.638 308.466 264.694 307.089C266.778 306.518 268.913 306.484 270.945 306.978C272.981 307.454 274.863 308.438 276.479 309.893L291.116 323.077C291.507 323.434 291.95 323.641 292.367 323.683C292.803 323.731 293.279 323.625 293.725 323.347L315.557 310.743C316.016 310.487 316.345 310.134 316.523 309.752C316.688 309.349 316.741 308.865 316.627 308.348L312.529 289.08C312.075 286.958 312.166 284.831 312.771 282.829C313.365 280.825 314.462 278.992 315.992 277.472C319.719 273.783 323.179 269.864 326.363 265.727C329.525 261.603 332.428 257.245 335.02 252.703C336.106 250.792 337.585 249.277 339.34 248.189C341.116 247.094 343.145 246.47 345.324 246.341L364.987 245.313C365.492 245.291 365.953 245.124 366.293 244.843C366.641 244.558 366.886 244.163 367.02 243.662L373.543 219.316C373.693 218.782 373.677 218.298 373.519 217.877ZM246.326 169.777L240.558 191.304L201.496 180.837L198.805 190.88L237.868 201.346L232.095 222.891L193.032 212.424L190.341 222.466L229.404 232.933L225.434 247.749C238.012 249.852 250.488 247.346 260.945 241.309C272.794 234.452 282.047 223.09 285.871 208.821C289.694 194.552 287.362 180.085 280.523 168.24C274.491 157.791 264.944 149.366 252.994 144.895L249.019 159.729L209.956 149.263L207.266 159.305L246.328 169.772L246.326 169.777Z" fill="#8DA1E6"/>
</g>
<g opacity="0.4" clip-path="url(#clip2_117_1480)">
<path d="M392.355 27.8456L360.057 37.4426C355.597 38.7676 353.057 43.4568 354.382 47.9162L371.976 107.129C373.301 111.588 377.99 114.129 382.45 112.804L414.747 103.207C419.207 101.882 421.748 97.1928 420.423 92.7334L402.828 33.5209C401.503 29.0614 396.814 26.5206 392.355 27.8456ZM417.331 92.1874C418.434 95.8973 416.313 99.8126 412.602 100.915L382.996 109.713C379.286 110.815 375.37 108.693 374.268 104.983L357.473 48.4622C356.371 44.7522 358.492 40.8366 362.202 39.7342L391.809 30.937C395.52 29.8342 399.434 31.9564 400.537 35.6663L417.331 92.1874Z" fill="#8DA1E6"/>
<path d="M392.608 33.6287L383.188 36.4278C384.071 39.4007 382.378 42.5269 379.405 43.4102C376.432 44.2936 373.306 42.5997 372.422 39.6268L363.002 42.4259C360.776 43.0874 359.503 45.4365 360.164 47.6627L376.959 104.184C377.621 106.41 379.97 107.683 382.196 107.021L411.802 98.2242C414.028 97.5627 415.301 95.2136 414.64 92.9873L397.845 36.4663C397.184 34.24 394.835 32.9672 392.608 33.6287ZM386.749 79.6684C387.454 79.9922 387.763 80.8257 387.44 81.5295C387.264 81.9137 386.938 82.1792 386.564 82.2905C386.248 82.3843 385.901 82.3689 385.579 82.2212L372.014 76C371.645 75.8309 371.368 75.5112 371.253 75.1235C371.138 74.7358 371.195 74.3169 371.412 73.9736L379.379 61.3544C379.793 60.6979 380.658 60.4995 381.316 60.9176C381.971 61.3309 382.167 62.198 381.753 62.8545L374.643 74.1164L386.749 79.6684ZM403.392 66.6765L395.425 79.2956C395.237 79.5948 394.954 79.7976 394.638 79.8913C394.264 80.0026 393.846 79.958 393.488 79.7324C392.833 79.3191 392.637 78.4521 393.052 77.7955L400.162 66.5337L388.055 60.9817C387.35 60.6578 387.041 59.8243 387.364 59.1205C387.686 58.4111 388.519 58.1049 389.225 58.4288L402.79 64.65C403.159 64.8192 403.436 65.1389 403.551 65.5266C403.666 65.9142 403.609 66.3331 403.392 66.6765Z" fill="#8DA1E6"/>
<path d="M438.688 60.6422L434.259 59.6297C434.109 58.5846 433.888 57.5718 433.599 56.598C433.309 55.6241 432.941 54.6551 432.497 53.6974L435.654 50.4309C436.179 49.8873 436.462 49.1566 436.441 48.4034C436.42 47.6488 436.099 46.9346 435.546 46.421L427.267 38.7351C426.149 37.6971 424.406 37.7403 423.337 38.8416L420.125 42.1657C418.127 41.3981 416.02 40.9114 413.893 40.7225L412.628 36.4671C412.187 34.9807 410.625 34.1333 409.137 34.5754L406.319 35.4126L411.118 51.5615C417.064 49.7947 423.316 53.1825 425.083 59.1284C426.85 65.0743 423.462 71.3265 417.516 73.0933L422.314 89.2421L425.132 88.4049C426.62 87.9629 427.465 86.4001 427.024 84.9137L425.76 80.6596C427.438 79.3385 428.937 77.779 430.193 76.0458L434.698 77.0769C436.195 77.4172 437.679 76.5014 438.049 75.0201L440.788 64.0602C440.97 63.3279 440.849 62.5544 440.455 61.9107C440.061 61.2683 439.425 60.811 438.688 60.6422Z" fill="#8DA1E6"/>
</g>
<g opacity="0.4" clip-path="url(#clip3_117_1480)">
<path d="M83.7541 362.935C84.532 364.324 84.7827 366.013 84.3162 367.668C83.8488 369.326 82.7533 370.633 81.3636 371.414C79.9714 372.191 78.2864 372.437 76.6319 371.971C74.974 371.503 73.6659 370.413 72.8845 369.023C72.1076 367.631 71.8611 365.946 72.3286 364.288C72.7945 362.636 73.888 361.323 75.275 360.544C76.6672 359.767 78.3536 359.516 80.0116 359.983C81.6661 360.45 82.9727 361.545 83.7541 362.935ZM99.0273 370.455L98.3156 372.979C98.1032 373.733 97.4546 374.245 96.6708 374.273L94.7156 374.348C94.1035 374.372 93.5877 374.673 93.2719 375.195C92.5572 376.354 91.7173 377.412 90.7756 378.359C90.3465 378.791 90.1741 379.363 90.2924 379.96L90.674 381.884C90.8293 382.649 90.4818 383.396 89.7993 383.783L87.5092 385.066C86.8282 385.447 86.0105 385.35 85.4328 384.819L83.9919 383.489C83.5474 383.072 82.9681 382.92 82.3742 383.065C81.0765 383.374 79.7337 383.537 78.3734 383.536C77.7614 383.539 77.2362 383.82 76.901 384.331L75.8108 385.958C75.3773 386.612 74.6065 386.893 73.8496 386.679L71.3253 385.968C70.5718 385.755 70.0584 385.11 70.0297 384.328L69.9549 382.373C69.9307 381.761 69.6301 381.245 69.1097 380.924C67.9491 380.215 66.8909 379.375 65.9439 378.433C65.512 378.004 64.9418 377.826 64.3428 377.95L62.4193 378.331C61.6532 378.483 60.9067 378.139 60.52 377.457L59.2373 375.167C58.8572 374.48 58.9547 373.663 59.4834 373.09L60.8136 371.649C61.2313 371.205 61.3834 370.625 61.2378 370.032C60.929 368.734 60.766 367.391 60.7672 366.031C60.7635 365.419 60.4824 364.894 59.9731 364.553L58.3449 363.468C57.6913 363.035 57.4115 362.259 57.6235 361.507L58.3351 358.983C58.549 358.224 59.1909 357.715 59.9748 357.687L61.9366 357.609C62.5435 357.583 63.0578 357.287 63.3789 356.767C64.0936 355.608 64.9283 354.548 65.87 353.601C66.3043 353.171 66.4767 352.599 66.3532 352L65.9716 350.077C65.8212 349.307 66.1652 348.559 66.8462 348.177L69.1363 346.895C69.8225 346.515 70.6417 346.607 71.2127 347.141L72.6537 348.471C73.0996 348.883 73.6789 349.035 74.2713 348.895C75.5691 348.586 76.9119 348.423 78.2736 348.419C78.8841 348.421 79.4094 348.14 79.7498 347.63L80.8347 346.002C81.2683 345.349 82.0457 345.064 82.7975 345.276L85.3217 345.987C86.0804 346.201 86.5876 346.848 86.6159 347.632L86.6958 349.589C86.7148 350.199 87.0154 350.715 87.5374 351.031C88.6964 351.746 89.7546 352.586 90.7017 353.527C91.1335 353.956 91.7053 354.129 92.3027 354.011L94.2263 353.629C94.9968 353.475 95.744 353.823 96.1255 354.504L97.4083 356.794C97.7898 357.475 97.6975 358.294 97.1621 358.87L95.8319 360.311C95.4195 360.757 95.2674 361.336 95.4077 361.929C95.7165 363.226 95.8796 364.569 95.8836 365.931C95.882 366.541 96.1631 367.067 96.6739 367.402L98.3006 368.492C98.9543 368.926 99.2412 369.696 99.0273 370.455ZM87.1808 368.476C87.8704 366.029 87.5049 363.537 86.353 361.481C85.2011 359.424 83.2663 357.805 80.8202 357.115C78.3688 356.424 75.8748 356.795 73.8184 357.947C71.7621 359.099 70.1479 361.035 69.4588 363.479C68.7677 365.931 69.1332 368.423 70.2851 370.48C71.437 372.536 73.3733 374.15 75.8229 374.841C78.269 375.53 80.7615 375.165 82.8197 374.013C84.8761 372.861 86.4902 370.925 87.1808 368.476ZM53.7119 379.503L47.4463 377.736L47.0378 371.873L33.3713 368.02L29.9657 372.808L23.7001 371.042C22.9085 370.819 22.0821 371.277 21.8589 372.069C21.6357 372.86 22.0977 373.688 22.8911 373.911L52.9011 382.372C53.6927 382.595 54.5202 382.133 54.7438 381.34C54.9692 380.547 54.5053 379.727 53.7119 379.503ZM55.7466 357.402L10.3584 344.606L20.163 309.829C20.8595 307.358 23.4508 305.911 25.9212 306.608L85.4777 323.398C87.9481 324.095 89.4019 326.682 88.7054 329.153L84.8691 342.76L83.6053 342.404C81.607 341.84 79.508 342.618 78.3557 344.346L77.6138 345.448C76.4707 345.488 75.3322 345.624 74.2101 345.855L73.2318 344.951C71.7112 343.544 69.4849 343.278 67.675 344.294L65.3849 345.577C63.5748 346.586 62.6409 348.622 63.0433 350.658L63.3011 351.964C62.5233 352.802 61.8124 353.702 61.1817 354.656L59.8501 354.706C58.0592 354.776 56.4988 355.824 55.7466 357.402ZM33.7415 330.778L44.7354 328.151C45.5328 327.961 46.0285 327.16 45.8391 326.363C45.6497 325.565 44.8487 325.07 44.0513 325.259L30.484 328.499C30.2169 328.563 29.9617 328.697 29.7533 328.904C29.1753 329.485 29.1796 330.427 29.7607 331.005L39.6502 340.87C40.2312 341.448 41.1723 341.447 41.7512 340.863C42.3292 340.282 42.3249 339.34 41.7439 338.762L33.7415 330.778ZM56.1386 324.051C55.416 323.656 54.5126 323.922 54.1177 324.645L43.1963 344.638C42.8029 345.355 43.0692 346.259 43.7866 346.652C44.5093 347.047 45.4127 346.781 45.8076 346.058L56.7275 326.07C57.1223 325.348 56.856 324.444 56.1386 324.051ZM55.8722 345.443L69.458 342.197C70.2554 342.008 70.7511 341.207 70.5618 340.409C70.4941 340.124 70.3448 339.876 70.1501 339.682L60.2733 329.832C59.6923 329.254 58.7503 329.259 58.1723 329.84C57.5943 330.421 57.5986 331.363 58.1796 331.941L66.182 339.924L55.1881 342.552C54.3907 342.741 53.895 343.542 54.0844 344.34C54.2728 345.14 55.0748 345.633 55.8722 345.443ZM56.6854 365.944C54.9594 364.794 54.1852 362.695 54.7485 360.696L54.8733 360.254L9.54931 347.476L8.01195 352.929C7.31693 355.394 8.76927 357.987 11.2397 358.683L56.8936 371.554C57.0159 371.386 57.1464 371.223 57.2915 371.067L58.1934 370.088C57.9678 368.967 57.8315 367.829 57.7868 366.684L56.6854 365.944Z" fill="#8DA1E6"/>
</g>
<defs>
<clipPath id="clip0_117_1480">
<rect width="112.46" height="112.46" fill="white" transform="translate(385 230.575) rotate(-33.523)"/>
</clipPath>
<clipPath id="clip1_117_1480">
<rect width="312.018" height="312.018" fill="white" transform="translate(109.29) rotate(15)"/>
</clipPath>
<clipPath id="clip2_117_1480">
<rect width="89.849" height="89.849" fill="white" transform="translate(345 36.0581) rotate(-16.5487)"/>
</clipPath>
<clipPath id="clip3_117_1480">
<rect width="92.3526" height="92.3526" fill="white" transform="translate(25.0598 292.466) rotate(15.7445)"/>
</clipPath>
</defs>
</svg>
