<svg width="547" height="409" viewBox="0 0 547 409" fill="none" xmlns="http://www.w3.org/2000/svg">
<g opacity="0.4" clip-path="url(#clip0_117_1521)">
<path fill-rule="evenodd" clip-rule="evenodd" d="M476.491 85.3276L469.534 81.3112C468.574 80.7567 467.346 81.0857 466.791 82.0463L462.775 89.0029C461.111 91.8843 462.098 95.569 464.98 97.2327C467.861 98.8963 471.546 97.9091 473.21 95.0275L477.226 88.0709C477.781 87.1104 477.451 85.8821 476.491 85.3276Z" fill="#8DCBE6"/>
<path d="M440.704 66.9852C448.497 53.4433 464.109 46.4413 479.405 49.6278C494.702 52.8144 506.219 65.4681 507.957 80.9955C509.694 96.5229 501.259 111.41 487.045 117.898L488.641 123.854C488.977 123.939 489.301 124.069 489.604 124.238C490.427 124.717 491.051 125.476 491.36 126.377L492.187 126.854C493.126 127.31 494.258 126.936 494.742 126.011L529.885 65.1404L441.189 13.9315L406.046 74.8016C405.486 75.6821 405.727 76.8475 406.589 77.4344L437.342 95.1898C437.263 94.9259 437.17 94.6846 437.094 94.4156C434.585 85.157 435.885 75.2796 440.704 66.9852ZM446.119 32.3305L437.889 34.5356C436.826 34.8007 435.747 34.165 435.464 33.1069C435.18 32.0487 435.797 30.9587 436.85 30.6568L443.14 28.9713L441.455 22.6811C441.19 21.6181 441.825 20.539 442.883 20.2554C443.941 19.9717 445.032 20.5887 445.334 21.6418L447.539 29.8715C447.826 30.9424 447.19 32.0434 446.119 32.3305ZM446.065 37.6166C446.62 36.656 447.848 36.327 448.809 36.8815L455.765 40.8979C456.726 41.4525 457.055 42.6807 456.5 43.6412C455.946 44.6017 454.718 44.9308 453.757 44.3762L446.8 40.3598C445.84 39.8053 445.511 38.5771 446.065 37.6166Z" fill="#8DCBE6"/>
<path fill-rule="evenodd" clip-rule="evenodd" d="M476.025 78.1022C475.064 77.5477 473.836 77.8768 473.281 78.8373L476.76 80.8455C477.314 79.885 476.985 78.6568 476.025 78.1022Z" fill="#8DCBE6"/>
<path d="M536.915 52.966C537.474 52.0855 537.233 50.9201 536.371 50.3332L450.77 0.911581C449.831 0.458274 448.701 0.832584 448.218 1.75712L443.198 10.4529L531.894 61.6618L536.915 52.966ZM450.423 9.98679C449.463 9.43223 449.134 8.20407 449.688 7.24354C450.243 6.28301 451.471 5.95392 452.431 6.50849C453.392 7.06305 453.721 8.29121 453.166 9.25174C452.612 10.2123 451.384 10.5414 450.423 9.98679ZM457.38 14.0032C456.419 13.4486 456.09 12.2205 456.645 11.2599C457.199 10.2994 458.427 9.97033 459.388 10.5249C460.348 11.0795 460.678 12.3076 460.123 13.2681C459.568 14.2287 458.34 14.5578 457.38 14.0032ZM464.336 18.0196C463.376 17.465 463.047 16.2369 463.601 15.2763C464.156 14.3158 465.384 13.9867 466.345 14.5413C467.305 15.0959 467.634 16.324 467.08 17.2846C466.525 18.2451 465.297 18.5742 464.336 18.0196ZM532.363 55.6555C532.563 56.3531 532.371 57.1045 531.861 57.6207C531.351 58.1369 530.602 58.3376 529.902 58.1457C529.202 57.9537 528.66 57.3992 528.484 56.6949L528.269 55.8912L527.465 56.1065C526.402 56.3716 525.323 55.7359 525.039 54.6778C524.756 53.6196 525.373 52.5296 526.426 52.2277L527.229 52.0123L527.014 51.2086C526.749 50.1457 527.385 49.0665 528.443 48.7829C529.501 48.4993 530.591 49.1162 530.893 50.1693L531.108 50.973L531.912 50.7576C532.61 50.5575 533.361 50.7497 533.877 51.2599C534.393 51.7701 534.594 52.5192 534.402 53.2192C534.21 53.9192 533.656 54.461 532.951 54.6368L532.148 54.8521L532.363 55.6555Z" fill="#8DCBE6"/>
<path fill-rule="evenodd" clip-rule="evenodd" d="M492.794 147.114L487.596 127.716L479.838 129.795L485.036 149.193C485.653 151.301 487.819 152.552 489.954 152.032C492.096 151.458 493.367 149.256 492.794 147.114Z" fill="#8DCBE6"/>
<path fill-rule="evenodd" clip-rule="evenodd" d="M483.278 119.359C482.641 119.566 482.019 119.792 481.362 119.973C480.705 120.155 480.042 120.252 479.394 120.395L480.732 125.395L484.616 124.354L483.278 119.359Z" fill="#8DCBE6"/>
<path d="M503.044 76.7409C499.075 61.9346 485.201 51.9935 469.905 52.9969C454.609 54.0003 442.152 65.6688 440.152 80.8665C438.151 96.0642 447.165 110.559 461.681 115.485C476.196 120.412 492.171 114.399 499.835 101.124C504.106 93.747 505.261 84.9719 503.044 76.7409ZM479.285 112.216C466.33 115.689 452.726 109.525 446.793 97.4964C440.86 85.4673 444.25 70.9222 454.891 62.7563C465.531 54.5904 480.458 55.0782 490.543 63.9212C500.628 72.7641 503.062 87.4995 496.356 99.1157C492.636 105.58 486.492 110.295 479.285 112.216Z" fill="#8DCBE6"/>
<path d="M495.285 78.8218C492.309 67.717 481.903 60.2606 470.431 61.0129C458.959 61.7652 449.616 70.5167 448.115 81.9151C446.615 93.3136 453.376 104.184 464.263 107.879C475.149 111.574 487.13 107.065 492.878 97.1079C496.081 91.5755 496.947 84.9945 495.285 78.8218ZM466.813 65.6624C471.955 64.2692 477.442 64.9912 482.049 67.6674C483.01 68.222 483.339 69.4501 482.784 70.4107C482.23 71.3712 481.002 71.7003 480.041 71.1457C476.355 69.0039 471.966 68.4261 467.852 69.5414C466.789 69.8065 465.71 69.1708 465.426 68.1127C465.143 67.0543 465.759 65.9641 466.813 65.6624ZM481.17 97.3047L477.692 95.2965L477.103 96.3157L478.358 100.999C478.558 101.696 478.366 102.448 477.856 102.964C477.346 103.48 476.596 103.681 475.896 103.489C475.196 103.297 474.655 102.742 474.479 102.038L473.955 100.082C470.746 102.461 466.431 102.709 462.971 100.711C459.512 98.7139 457.568 94.853 458.024 90.8845L456.068 91.4086C455.005 91.6736 453.926 91.038 453.643 89.9799C453.359 88.9216 453.976 87.8317 455.029 87.5297L459.712 86.275L460.3 85.2558L456.822 83.2476C455.861 82.693 455.532 81.4648 456.087 80.5043C456.641 79.5438 457.87 79.2147 458.83 79.7693L462.308 81.7775L462.897 80.7583L461.642 76.0754C461.377 75.0125 462.013 73.9333 463.071 73.6497C464.129 73.366 465.219 73.983 465.521 75.0361L466.188 77.527C467.27 77.0683 468.463 76.9368 469.618 77.1491L469.803 76.829C471.467 73.9476 475.151 72.9602 478.033 74.6239C480.914 76.2875 481.902 79.972 480.238 82.8536L480.053 83.1737C480.815 84.0678 481.298 85.1657 481.442 86.3315L483.933 85.664C484.996 85.399 486.075 86.0347 486.359 87.0927C486.642 88.151 486.025 89.241 484.972 89.5429L480.288 90.7993L479.7 91.8185L483.178 93.8267C484.139 94.3812 484.468 95.6094 483.913 96.5699C483.359 97.5302 482.131 97.8593 481.17 97.3047Z" fill="#8DCBE6"/>
</g>
<g opacity="0.4" clip-path="url(#clip1_117_1521)">
<path d="M96.0069 62.4281C96.3235 62.5973 96.5783 62.8904 96.6905 63.2601C96.8028 63.6297 96.754 64.0151 96.5849 64.3317C96.4158 64.6482 96.1279 64.9014 95.7529 65.0153C95.3833 65.1275 94.998 65.0787 94.6814 64.9096C94.3648 64.7405 94.11 64.4473 93.9978 64.0777C93.8855 63.708 93.9343 63.3227 94.1034 63.0061C94.2725 62.6895 94.5657 62.4347 94.9354 62.3225C95.3103 62.2086 95.6903 62.259 96.0069 62.4281ZM103.267 89.7626C102.897 89.8749 102.602 90.1243 102.433 90.4409C102.266 90.7628 102.215 91.1428 102.328 91.5125C102.442 91.8874 102.695 92.1753 103.013 92.3498C103.329 92.5189 103.713 92.5623 104.083 92.45C104.458 92.3362 104.747 92.0884 104.916 91.7718C105.084 91.4499 105.134 91.0699 105.02 90.6949C104.908 90.3252 104.655 90.0374 104.337 89.8629C104.02 89.6938 103.642 89.6488 103.267 89.7626ZM99.1003 76.0399C98.7307 76.1521 98.4375 76.4069 98.2684 76.7235C98.0993 77.0401 98.0505 77.4254 98.1627 77.7951C98.2766 78.1701 98.5297 78.4579 98.8463 78.627C99.1629 78.7961 99.5483 78.8449 99.9179 78.7327C100.293 78.6188 100.581 78.3656 100.75 78.049C100.919 77.7325 100.969 77.3525 100.855 76.9775C100.743 76.6078 100.488 76.3147 100.172 76.1455C99.8553 75.9764 99.4753 75.926 99.1003 76.0399ZM116.063 84.4889L122.605 106.036C123.329 108.42 123.019 110.876 121.928 112.91C120.839 114.949 118.972 116.571 116.588 117.295C114.199 118.02 111.748 117.709 109.711 116.619C107.673 115.535 106.051 113.668 105.327 111.282C104.745 109.365 104.827 107.415 105.442 105.67C106.075 103.874 107.264 102.292 108.867 101.198C109.597 100.705 109.783 99.7198 109.29 98.9898C108.794 98.2669 107.807 98.075 107.079 98.573C104.908 100.055 103.295 102.187 102.444 104.612C102.099 105.591 101.877 106.608 101.791 107.652C101.403 107.924 100.998 108.176 100.569 108.4C99.9589 108.723 99.2951 108.997 98.5915 109.211C95.6452 110.105 92.6112 109.722 90.0971 108.379C87.5761 107.032 85.5715 104.727 84.6774 101.782C84.4378 100.993 84.2914 100.203 84.2311 99.4195C84.167 98.6433 84.1829 97.8798 84.2813 97.1439C84.2932 97.074 84.3051 97.0041 84.3101 96.9304C84.3686 96.0506 83.7078 95.2937 82.828 95.2351C80.8052 95.0926 78.7562 94.0609 76.9951 92.3781C75.209 90.664 73.7341 88.2858 72.8796 85.4717C72.0252 82.6575 71.9288 79.8608 72.4626 77.45C72.9891 75.0669 74.1208 73.0773 75.7223 71.8323L75.7207 71.827C75.7478 71.807 75.7738 71.7835 75.8009 71.7636C76.4589 71.1816 76.5196 70.1802 75.9393 69.5217C75.4244 68.9369 74.9619 68.2875 74.562 67.5742C74.1767 66.8896 73.859 66.1514 73.6193 65.3621C72.7247 62.4158 73.1083 59.3817 74.4566 56.8661C75.7979 54.3466 78.1083 52.3404 81.0529 51.4464C81.7564 51.2328 82.4604 51.0912 83.1471 51.0211C83.6301 50.974 84.1047 50.9508 84.5784 50.9629C85.2311 51.7828 85.9824 52.5103 86.8112 53.1266C88.8671 54.6691 91.3948 55.5496 94.0235 55.5745C94.9042 55.5782 95.6186 54.8737 95.6282 53.9931C95.6335 53.1178 94.9274 52.398 94.0485 52.3938C92.108 52.3745 90.2417 51.7261 88.7175 50.5858C87.2361 49.4773 86.0815 47.8971 85.5009 45.9847L85.4992 45.9793C84.7754 43.5955 85.0865 41.1451 86.1758 39.1059C87.2651 37.0667 89.1271 35.4463 91.5163 34.7209C93.9001 33.9971 96.3559 34.3065 98.3933 35.3964C100.432 36.4857 102.054 38.353 102.778 40.7369L109.321 62.2843L105.574 63.4218L104.78 60.8058C104.525 59.9648 103.634 59.4903 102.794 59.7451L99.0089 60.8945C98.6029 60.3605 98.0916 59.9288 97.5101 59.6197C96.4743 59.0664 95.227 58.9087 94.0127 59.2774C92.8038 59.6445 91.853 60.4695 91.2996 61.5054C90.7463 62.5413 90.5833 63.7902 90.952 65.0044C91.3207 66.2186 92.1505 67.1661 93.1864 67.7194C94.2223 68.2728 95.4695 68.4304 96.6802 68.0628C97.8945 67.6942 98.8435 66.8697 99.3969 65.8338C99.7065 65.2541 99.8933 64.6104 99.9338 63.9409L102.196 63.2539L102.991 65.8717C103.246 66.7127 104.137 67.1872 104.977 66.9324L110.246 65.3325L112.229 71.8626L103.174 74.6119C102.769 74.0815 102.257 73.6462 101.677 73.3425C100.639 72.7838 99.3919 72.6261 98.1777 72.9948C96.9688 73.3619 96.0179 74.1869 95.4662 75.2281C94.9129 76.264 94.7499 77.5129 95.1175 78.7236C95.4862 79.9378 96.316 80.8853 97.3519 81.4386C98.3878 81.992 99.635 82.1496 100.846 81.782C102.06 81.4133 103.009 80.5888 103.562 79.553C103.872 78.9733 104.059 78.3296 104.099 77.66L113.154 74.9107L115.139 81.4462L109.869 83.0461C109.028 83.3015 108.552 84.1872 108.809 85.0318L109.602 87.6442L107.339 88.3311C106.935 87.8025 106.422 87.3654 105.842 87.0616C104.806 86.5083 103.557 86.3453 102.343 86.714C101.134 87.081 100.185 87.9114 99.6317 88.9473C99.0784 89.9832 98.9154 91.2321 99.283 92.4428C99.6516 93.657 100.481 94.6045 101.517 95.1578C102.553 95.7112 103.801 95.8688 105.011 95.5012C106.225 95.1325 107.175 94.308 107.728 93.2721C108.038 92.6925 108.224 92.0488 108.266 91.3846L112.052 90.2352C112.893 89.9798 113.368 89.0888 113.111 88.2442L112.318 85.6318L116.064 84.4943L116.063 84.4889ZM87.2559 81.1066C86.7056 79.2942 86.6425 77.4996 86.9846 75.9545C87.3134 74.468 88.0093 73.227 88.9981 72.4626C89.6914 71.9264 89.8188 70.9263 89.282 70.2311C88.7458 69.5377 87.7456 69.4104 87.0505 69.9472C85.4618 71.1765 84.3664 73.0673 83.8795 75.2727C83.4213 77.3348 83.4965 79.6893 84.2084 82.0339C84.9213 84.3821 86.1697 86.3804 87.6942 87.8366C89.3244 89.403 91.2904 90.3605 93.2909 90.5C94.1653 90.5602 94.9276 89.8978 94.9878 89.0233C95.048 88.1489 94.3855 87.3866 93.5111 87.3264C92.2642 87.2408 90.9964 86.598 89.8961 85.5434C88.7497 84.4464 87.8062 82.9191 87.2559 81.1066ZM162.947 53.6627C162.839 53.5843 162.699 53.5392 162.542 53.532L156.514 53.416C155.847 53.4021 155.219 53.2281 154.664 52.9109C154.116 52.5957 153.646 52.1473 153.298 51.5783C152.457 50.209 151.526 48.9099 150.517 47.6796C149.5 46.4455 148.4 45.2759 147.223 44.1845C146.737 43.7351 146.384 43.1889 146.183 42.5772C145.977 41.9707 145.93 41.3277 146.047 40.6721L147.105 34.7281C147.135 34.5689 147.113 34.4273 147.06 34.3048C147.002 34.184 146.899 34.0826 146.753 34.0061L139.944 30.3689C139.805 30.2943 139.66 30.268 139.527 30.285C139.4 30.3023 139.266 30.3701 139.15 30.4833L134.802 34.6625C134.324 35.1236 133.756 35.4442 133.14 35.6159C132.521 35.7822 131.868 35.7971 131.224 35.6398C129.662 35.2676 128.083 35.0019 126.494 34.8486C124.909 34.6884 123.308 34.644 121.7 34.701C121.033 34.7261 120.402 34.5922 119.833 34.3065C119.261 34.0218 118.767 33.6024 118.386 33.0549L114.937 28.1033C114.847 27.9763 114.733 27.8882 114.605 27.8452C114.477 27.8022 114.33 27.7959 114.179 27.842L112.007 28.5013L118.879 51.1326C123.55 50.1122 128.264 50.871 132.237 52.9978C136.656 55.3538 140.174 59.3993 141.743 64.5688C143.314 69.7418 142.637 75.0549 140.275 79.4719C138.155 83.4485 134.659 86.7003 130.211 88.4546L137.08 111.081L139.252 110.421C139.404 110.375 139.523 110.294 139.606 110.187C139.69 110.08 139.735 109.937 139.737 109.783L139.853 103.754C139.866 103.087 140.04 102.459 140.358 101.904C140.673 101.356 141.122 100.888 141.69 100.538C143.06 99.6972 144.364 98.7648 145.594 97.7554C146.828 96.7391 147.992 95.6388 149.084 94.4628C149.533 93.9773 150.083 93.6231 150.691 93.4229C151.298 93.2173 151.946 93.1686 152.602 93.2855L158.54 94.3454C158.7 94.3751 158.848 94.3572 158.964 94.3007C159.085 94.2426 159.191 94.138 159.262 93.9935L162.9 87.1847C162.978 87.0439 163.006 86.8989 162.99 86.7709C162.968 86.6393 162.904 86.5047 162.791 86.3889L158.608 82.0421C158.147 81.5639 157.826 80.9962 157.66 80.3777C157.49 79.7604 157.479 79.1066 157.631 78.4637C158.003 76.9016 158.268 75.3231 158.427 73.7323C158.582 72.1484 158.632 70.5458 158.571 68.9455C158.544 68.273 158.684 67.6398 158.964 67.0729C159.248 66.5009 159.675 66.0106 160.221 65.6245L165.167 62.1763C165.295 62.0889 165.387 61.9709 165.43 61.8428C165.475 61.7124 165.474 61.5701 165.428 61.4183L163.186 54.0328C163.138 53.8698 163.056 53.7466 162.947 53.6627ZM122.095 61.7328L124.078 68.263L112.228 71.8608L113.153 74.9071L125.003 71.3093L126.987 77.8448L115.138 81.4426L116.063 84.4889L127.912 80.8911L129.277 85.3856C132.887 83.8973 135.726 81.2276 137.468 77.9664C139.44 74.2667 140.007 69.8155 138.693 65.4871C137.379 61.1587 134.432 57.7744 130.738 55.801C127.479 54.0602 123.634 53.4139 119.803 54.1849L121.17 58.6847L109.32 62.2826L110.245 65.3289L122.095 61.731L122.095 61.7328Z" fill="#8DCBE6"/>
</g>
<g opacity="0.4" clip-path="url(#clip2_117_1521)">
<path d="M75.4274 259.89L23.8117 273.721C16.685 275.63 12.4557 282.955 14.3653 290.082L39.721 384.711C41.6306 391.838 48.9559 396.067 56.0826 394.157L107.698 380.327C114.825 378.417 119.054 371.092 117.145 363.965L91.7889 269.337C89.8793 262.21 82.5541 257.981 75.4274 259.89ZM112.267 362.967C113.856 368.896 110.326 375.013 104.395 376.602L57.0807 389.28C51.1517 390.868 45.0348 387.337 43.4461 381.408L19.2429 291.08C17.6542 285.151 21.1858 279.034 27.1148 277.446L74.4293 264.768C80.3604 263.179 86.4752 266.711 88.0639 272.64L112.267 362.967Z" fill="#8DCBE6"/>
<path d="M75.5817 269.069L60.5271 273.103C61.8001 277.854 58.9806 282.738 54.2296 284.011C49.4785 285.284 44.5949 282.464 43.3219 277.713L28.2673 281.747C24.7095 282.701 22.5908 286.37 23.5441 289.928L47.7473 380.256C48.7006 383.813 52.3702 385.932 55.9281 384.979L103.243 372.301C106.8 371.348 108.919 367.678 107.966 364.12L83.7625 273.793C82.8092 270.235 79.1395 268.116 75.5817 269.069ZM64.3185 341.809C65.4231 342.353 65.8775 343.687 65.3354 344.789C65.0396 345.391 64.5116 345.798 63.9131 345.958C63.409 346.093 62.8582 346.054 62.3551 345.806L41.116 335.362C40.5379 335.078 40.113 334.559 39.947 333.939C39.781 333.32 39.8896 332.658 40.2482 332.123L53.4196 312.458C54.1044 311.435 55.4842 311.158 56.509 311.849C57.5295 312.532 57.8033 313.915 57.1185 314.938L45.3636 332.488L64.3185 341.809ZM91.2616 321.925L78.0902 341.59C77.7784 342.056 77.321 342.365 76.817 342.501C76.2184 342.661 75.5576 342.572 75.0007 342.199C73.9803 341.516 73.7065 340.133 74.3913 339.11L86.1462 321.56L67.1913 312.239C66.0867 311.696 65.6323 310.361 66.1744 309.259C66.7164 308.148 68.0501 307.698 69.1547 308.242L90.3938 318.687C90.9719 318.971 91.3967 319.489 91.5628 320.109C91.7288 320.728 91.6202 321.39 91.2616 321.925Z" fill="#8DCBE6"/>
<path d="M147.478 313.872L140.5 312.076C140.307 310.413 140 308.798 139.583 307.242C139.166 305.685 138.624 304.133 137.96 302.596L143.105 297.553C143.961 296.713 144.441 295.567 144.441 294.372C144.44 293.175 143.962 292.029 143.107 291.191L130.31 278.651C128.582 276.957 125.816 276.951 124.075 278.651L118.841 283.783C115.705 282.481 112.386 281.619 109.022 281.228L107.2 274.428C106.563 272.052 104.123 270.642 101.746 271.279L97.2428 272.485L104.158 298.293C113.66 295.747 123.427 301.386 125.973 310.888C128.52 320.391 122.881 330.158 113.378 332.704L120.293 358.512L124.796 357.305C127.174 356.668 128.582 354.227 127.945 351.851L126.124 345.053C128.841 343.03 131.284 340.622 133.349 337.928L140.448 339.756C142.807 340.36 145.199 338.971 145.848 336.639L150.66 319.38C150.981 318.227 150.823 316.996 150.225 315.958C149.628 314.923 148.638 314.171 147.478 313.872Z" fill="#8DCBE6"/>
</g>
<g clip-path="url(#clip3_117_1521)">
<path d="M381.601 192.198C385.434 196.031 387.818 201.339 387.818 207.193C387.818 213.059 385.434 218.354 381.601 222.2C377.756 226.033 372.46 228.398 366.606 228.398C360.74 228.398 355.445 226.033 351.599 222.2C347.766 218.354 345.401 213.059 345.401 207.193C345.401 201.345 347.772 196.031 351.599 192.198C355.445 188.365 360.74 185.981 366.606 185.981C372.46 185.981 377.756 188.365 381.601 192.198ZM438.613 202.733V211.665C438.613 214.331 436.96 216.61 434.417 217.427L428.078 219.478C426.094 220.123 424.681 221.585 424.128 223.588C422.856 228.048 421.081 232.292 418.87 236.267C417.862 238.079 417.825 240.112 418.765 241.961L421.794 247.914C423.01 250.279 422.562 253.049 420.682 254.947L414.361 261.268C412.481 263.148 409.711 263.584 407.327 262.38L401.375 259.352C399.532 258.393 397.493 258.43 395.68 259.456C391.712 261.668 387.461 263.443 383.002 264.696C380.999 265.273 379.537 266.68 378.91 268.664L376.84 275.004C376.023 277.547 373.757 279.181 371.078 279.181H362.147C359.481 279.181 357.202 277.541 356.385 275.004L354.333 268.664C353.688 266.68 352.226 265.267 350.223 264.696C345.764 263.443 341.519 261.668 337.544 259.456C335.732 258.449 333.699 258.393 331.85 259.352L325.898 262.38C323.526 263.584 320.762 263.148 318.864 261.268L312.543 254.947C310.663 253.049 310.227 250.279 311.431 247.914L314.46 241.961C315.418 240.118 315.381 238.079 314.355 236.267C312.144 232.299 310.368 228.048 309.115 223.588C308.538 221.585 307.131 220.123 305.147 219.478L298.808 217.427C296.264 216.61 294.63 214.325 294.63 211.665V202.733C294.63 200.049 296.264 197.788 298.808 196.971L305.165 194.901C307.131 194.256 308.544 192.812 309.115 190.81C310.387 186.35 312.144 182.105 314.355 178.131C315.381 176.319 315.418 174.285 314.46 172.436L311.431 166.484C310.227 164.101 310.663 161.33 312.543 159.45L318.864 153.129C320.762 151.25 323.533 150.795 325.898 152.018L331.85 155.046C333.693 155.986 335.732 155.949 337.544 154.942C341.513 152.73 345.764 150.955 350.223 149.683C352.226 149.124 353.688 147.718 354.333 145.733L356.385 139.394C357.202 136.851 359.487 135.198 362.147 135.198H371.078C373.763 135.198 376.023 136.851 376.84 139.394L378.91 145.733C379.537 147.718 380.999 149.13 383.002 149.683C387.461 150.955 391.706 152.73 395.68 154.942C397.493 155.949 399.526 155.986 401.375 155.046L407.327 152.018C409.711 150.801 412.481 151.25 414.361 153.129L420.682 159.45C422.562 161.33 423.016 164.101 421.794 166.484L418.765 172.436C417.825 174.279 417.862 176.319 418.87 178.131C421.081 182.099 422.856 186.35 424.128 190.81C424.687 192.812 426.094 194.274 428.078 194.901L434.417 196.971C436.96 197.788 438.613 200.049 438.613 202.733ZM397.953 207.193C397.953 198.537 394.452 190.705 388.776 185.029C383.1 179.353 375.262 175.833 366.606 175.833C357.933 175.833 350.1 179.353 344.424 185.029C338.748 190.705 335.247 198.544 335.247 207.193C335.247 215.866 338.748 223.699 344.424 229.375C350.1 235.051 357.939 238.552 366.606 238.552C375.262 238.552 383.094 235.051 388.776 229.375C394.452 223.699 397.953 215.86 397.953 207.193ZM298.439 274.267H276.269L269.512 255.426L221.156 255.426L214.417 274.267H192.247C189.446 274.267 187.161 276.533 187.161 279.334C187.161 282.136 189.44 284.421 192.247 284.421H298.433C301.234 284.421 303.519 282.142 303.519 279.334C303.525 276.527 301.246 274.267 298.439 274.267ZM284.685 199.944L124.086 199.944V76.8905C124.086 68.1492 131.243 61.0112 139.984 61.0112L350.715 61.0112C359.456 61.0112 366.612 68.1492 366.612 76.8905V125.038H362.14C355.07 125.038 348.909 129.529 346.728 136.255L345.315 140.555C341.605 141.741 337.999 143.239 334.534 145.033L330.492 142.975C324.208 139.769 316.665 140.954 311.671 145.955L305.35 152.276C300.349 157.257 299.17 164.795 302.37 171.097L304.422 175.139C302.647 178.604 301.148 182.21 299.962 185.92L295.644 187.314C289.839 189.2 285.693 194.078 284.685 199.944ZM187.954 133.012L221.561 114.239C224 112.881 224.884 109.798 223.527 107.359C222.169 104.92 219.086 104.036 216.647 105.393L175.17 128.552C174.353 129.006 173.641 129.682 173.149 130.554C171.792 132.993 172.676 136.077 175.115 137.434L216.647 160.63C219.086 161.987 222.169 161.115 223.527 158.664C224.884 156.225 224 153.142 221.561 151.784L187.954 133.012ZM255.15 90.2635C252.417 89.6369 249.702 91.3446 249.075 94.0782L231.752 169.703C231.126 172.418 232.833 175.133 235.548 175.76C238.282 176.386 240.997 174.679 241.624 171.945L258.947 96.3388C259.573 93.6052 257.865 90.8901 255.15 90.2635ZM274.046 160.63L315.578 137.434C318.016 136.077 318.901 132.993 317.543 130.554C317.058 129.682 316.339 129.006 315.522 128.552L274.046 105.393C271.607 104.036 268.523 104.92 267.166 107.359C265.808 109.798 266.693 112.881 269.131 114.239L302.739 133.012L269.131 151.784C266.693 153.142 265.808 156.225 267.166 158.664C268.523 161.115 271.607 161.987 274.046 160.63ZM295.656 227.077C288.936 224.903 284.458 218.735 284.458 211.665V210.098L124.086 210.098V229.393C124.086 238.116 131.243 245.272 139.984 245.272L301.523 245.272C301.768 244.609 302.045 243.952 302.377 243.307L304.428 239.265C302.653 235.8 301.154 232.194 299.95 228.484L295.656 227.077Z" fill="#8DCBE6"/>
</g>
<defs>
<clipPath id="clip0_117_1521">
<rect width="112.46" height="112.46" fill="white" transform="translate(449.23) rotate(30)"/>
</clipPath>
<clipPath id="clip1_117_1521">
<rect width="95.5468" height="95.5468" fill="white" transform="translate(59 39.7588) rotate(-16.8896)"/>
</clipPath>
<clipPath id="clip2_117_1521">
<rect width="142.497" height="142.497" fill="white" transform="translate(0 270.881) rotate(-15)"/>
</clipPath>
<clipPath id="clip3_117_1521">
<rect width="314.514" height="314.514" fill="white" transform="translate(124.093 15.4556)"/>
</clipPath>
</defs>
</svg>
