<svg width="629" height="429" viewBox="0 0 629 429" fill="none" xmlns="http://www.w3.org/2000/svg">
<g opacity="0.4" clip-path="url(#clip0_172_49)">
<path fill-rule="evenodd" clip-rule="evenodd" d="M582.338 241.934H574.305C573.196 241.934 572.297 242.833 572.297 243.942V251.975C572.297 255.302 574.994 257.999 578.321 257.999C581.648 257.999 584.346 255.302 584.346 251.975V243.942C584.346 242.833 583.447 241.934 582.338 241.934Z" fill="#8DCDE6"/>
<path d="M542.174 243.942C542.152 228.318 552.172 214.448 567.012 209.56C581.852 204.671 598.153 209.871 607.421 222.449C616.69 235.028 616.828 252.137 607.763 264.864L612.123 269.223C612.457 269.129 612.802 269.079 613.149 269.075C614.102 269.078 615.021 269.423 615.74 270.049H616.694C617.735 269.974 618.529 269.084 618.485 268.041V197.754H516.067V268.041C516.023 269.083 516.814 269.972 517.854 270.049H553.365C553.164 269.86 552.964 269.697 552.763 269.503C545.961 262.739 542.148 253.535 542.174 243.942ZM529.536 211.223L523.512 217.247C522.724 218.008 521.471 217.997 520.696 217.223C519.922 216.448 519.911 215.196 520.672 214.408L525.277 209.803L520.672 205.198C519.911 204.41 519.922 203.158 520.696 202.383C521.471 201.609 522.724 201.598 523.512 202.359L529.536 208.383C530.32 209.167 530.32 210.439 529.536 211.223ZM532.133 215.828C532.133 214.718 533.032 213.819 534.141 213.819H542.174C543.283 213.819 544.182 214.718 544.182 215.828C544.182 216.937 543.283 217.836 542.174 217.836H534.141C533.032 217.836 532.133 216.937 532.133 215.828Z" fill="#8DCDE6"/>
<path fill-rule="evenodd" clip-rule="evenodd" d="M578.321 235.909C577.212 235.909 576.313 236.808 576.313 237.918H580.329C580.329 236.808 579.43 235.909 578.321 235.909Z" fill="#8DCDE6"/>
<path d="M618.485 183.696C618.529 182.654 617.738 181.765 616.698 181.688H517.855C516.814 181.765 516.023 182.654 516.067 183.696V193.737H618.485V183.696ZM522.092 189.721C520.983 189.721 520.084 188.822 520.084 187.713C520.084 186.603 520.983 185.704 522.092 185.704C523.201 185.704 524.1 186.603 524.1 187.713C524.1 188.822 523.201 189.721 522.092 189.721ZM530.125 189.721C529.016 189.721 528.116 188.822 528.116 187.713C528.116 186.603 529.016 185.704 530.125 185.704C531.234 185.704 532.133 186.603 532.133 187.713C532.133 188.822 531.234 189.721 530.125 189.721ZM538.157 189.721C537.048 189.721 536.149 188.822 536.149 187.713C536.149 186.603 537.048 185.704 538.157 185.704C539.267 185.704 540.166 186.603 540.166 187.713C540.166 188.822 539.267 189.721 538.157 189.721ZM615.888 188.301C616.411 188.805 616.62 189.552 616.436 190.254C616.252 190.956 615.704 191.505 615.002 191.688C614.3 191.872 613.553 191.663 613.049 191.141L612.46 190.552L611.872 191.141C611.084 191.902 609.832 191.891 609.057 191.116C608.282 190.342 608.272 189.089 609.033 188.301L609.621 187.713L609.033 187.124C608.272 186.336 608.282 185.084 609.057 184.309C609.832 183.535 611.084 183.524 611.872 184.285L612.46 184.873L613.049 184.285C613.553 183.763 614.3 183.554 615.002 183.737C615.704 183.921 616.252 184.469 616.436 185.172C616.62 185.874 616.411 186.62 615.888 187.125L615.3 187.713L615.888 188.301Z" fill="#8DCDE6"/>
<path fill-rule="evenodd" clip-rule="evenodd" d="M627.349 287.291L613.149 273.091L607.47 278.77L621.67 292.97C623.259 294.488 625.761 294.488 627.349 292.97C628.917 291.402 628.917 288.859 627.349 287.291Z" fill="#8DCDE6"/>
<path fill-rule="evenodd" clip-rule="evenodd" d="M605.231 268.012C604.783 268.51 604.357 269.016 603.879 269.502C603.401 269.988 602.875 270.404 602.385 270.852L606.044 274.513L608.887 271.669L605.231 268.012Z" fill="#8DCDE6"/>
<path d="M601.04 221.221C590.2 210.383 573.214 208.711 560.468 217.228C547.723 225.745 542.77 242.079 548.636 256.24C554.503 270.402 569.557 278.447 584.591 275.456C599.625 272.465 610.453 259.271 610.452 243.942C610.463 235.418 607.076 227.241 601.04 221.221ZM598.202 263.823C588.718 273.308 573.855 274.773 562.703 267.322C551.55 259.871 547.214 245.579 552.346 233.187C557.478 220.795 570.649 213.754 583.804 216.369C596.959 218.985 606.435 230.529 606.436 243.942C606.446 251.401 603.483 258.556 598.202 263.823Z" fill="#8DCDE6"/>
<path d="M595.361 226.903C587.231 218.773 574.491 217.519 564.932 223.907C555.373 230.294 551.657 242.545 556.057 253.166C560.457 263.787 571.748 269.822 583.023 267.578C594.299 265.335 602.42 255.439 602.419 243.942C602.427 237.549 599.887 231.417 595.361 226.903ZM564.123 229.742C567.88 225.964 572.993 223.846 578.321 223.86C579.43 223.86 580.329 224.759 580.329 225.869C580.329 226.978 579.43 227.877 578.321 227.877C574.058 227.865 569.968 229.559 566.963 232.582C566.175 233.343 564.922 233.332 564.148 232.558C563.373 231.783 563.362 230.53 564.123 229.742ZM592.378 249.967H588.362V251.143L591.79 254.572C592.312 255.076 592.521 255.822 592.338 256.525C592.154 257.227 591.605 257.775 590.903 257.959C590.201 258.143 589.455 257.933 588.95 257.411L587.518 255.979C585.929 259.645 582.316 262.016 578.321 262.016C574.326 262.016 570.713 259.644 569.123 255.979L567.692 257.411C566.904 258.172 565.651 258.161 564.876 257.387C564.102 256.612 564.091 255.36 564.852 254.572L568.28 251.144V249.967H564.264C563.155 249.967 562.255 249.068 562.255 247.959C562.255 246.849 563.155 245.95 564.264 245.95H568.28V244.774L564.852 241.345C564.091 240.557 564.102 239.305 564.876 238.53C565.651 237.756 566.904 237.745 567.692 238.506L569.515 240.329C570.222 239.391 571.189 238.681 572.296 238.287V237.918C572.296 234.59 574.994 231.893 578.321 231.893C581.648 231.893 584.346 234.59 584.346 237.918V238.287C585.452 238.681 586.419 239.39 587.127 240.328L588.951 238.504C589.739 237.743 590.991 237.754 591.766 238.528C592.54 239.303 592.551 240.556 591.79 241.344L588.362 244.774V245.95H592.378C593.488 245.95 594.387 246.849 594.387 247.959C594.387 249.068 593.487 249.967 592.378 249.967Z" fill="#8DCDE6"/>
</g>
<g opacity="0.4" clip-path="url(#clip1_172_49)">
<path d="M43.5578 77.3321C43.9305 77.5312 44.2303 77.8762 44.3624 78.3113C44.4945 78.7464 44.4371 79.1999 44.2381 79.5726C44.039 79.9452 43.7003 80.2432 43.2589 80.3772C42.8238 80.5093 42.3703 80.4519 41.9976 80.2528C41.625 80.0538 41.3251 79.7087 41.193 79.2736C41.0609 78.8386 41.1183 78.385 41.3174 78.0124C41.5164 77.6397 41.8615 77.3398 42.2966 77.2078C42.7379 77.0737 43.1852 77.1331 43.5578 77.3321ZM52.1029 109.505C51.6678 109.637 51.3208 109.931 51.1218 110.303C50.9246 110.682 50.8653 111.13 50.9974 111.565C51.1314 112.006 51.4294 112.345 51.8039 112.55C52.1766 112.749 52.6282 112.8 53.0633 112.668C53.5046 112.534 53.8454 112.243 54.0444 111.87C54.2415 111.491 54.3008 111.044 54.1668 110.602C54.0347 110.167 53.7368 109.829 53.3622 109.623C52.9896 109.424 52.5442 109.371 52.1029 109.505ZM47.1988 93.3533C46.7637 93.4854 46.4186 93.7853 46.2196 94.1579C46.0205 94.5305 45.9631 94.9841 46.0952 95.4192C46.2292 95.8605 46.5272 96.1993 46.8998 96.3983C47.2725 96.5974 47.726 96.6548 48.1611 96.5227C48.6025 96.3887 48.9412 96.0907 49.1403 95.7181C49.3393 95.3455 49.3986 94.8982 49.2646 94.4568C49.1325 94.0218 48.8327 93.6767 48.46 93.4776C48.0874 93.2786 47.6401 93.2193 47.1988 93.3533ZM67.1635 103.298L74.864 128.66C75.7159 131.465 75.3517 134.356 74.0676 136.75C72.7855 139.15 70.5877 141.059 67.7818 141.911C64.9697 142.765 62.0856 142.399 59.6876 141.116C57.2893 139.84 55.3801 137.642 54.5276 134.834C53.8422 132.577 53.9396 130.282 54.6634 128.228C55.4083 126.115 56.8079 124.253 58.6938 122.964C59.5529 122.384 59.7725 121.225 59.1926 120.366C58.6082 119.515 57.447 119.289 56.5897 119.875C54.0343 121.62 52.1357 124.129 51.1339 126.983C50.7283 128.135 50.4674 129.332 50.3654 130.561C49.9093 130.881 49.4323 131.177 48.927 131.441C48.2094 131.822 47.428 132.144 46.5999 132.395C43.1321 133.448 39.561 132.997 36.6019 131.416C33.6346 129.831 31.2752 127.118 30.2229 123.652C29.9408 122.723 29.7686 121.793 29.6976 120.871C29.6221 119.958 29.6408 119.059 29.7566 118.193C29.7706 118.111 29.7847 118.028 29.7905 117.942C29.8594 116.906 29.0816 116.015 28.0461 115.946C25.6652 115.779 23.2535 114.564 21.1807 112.584C19.0784 110.566 17.3424 107.767 16.3367 104.455C15.331 101.142 15.2176 97.8505 15.8459 95.0131C16.4656 92.208 17.7976 89.8662 19.6826 88.4009L19.6807 88.3946C19.7126 88.3712 19.7432 88.3435 19.7751 88.3201C20.5496 87.635 20.621 86.4564 19.938 85.6813C19.3319 84.993 18.7876 84.2286 18.3169 83.389C17.8634 82.5833 17.4894 81.7144 17.2073 80.7854C16.1544 77.3176 16.6058 73.7464 18.1928 70.7855C19.7716 67.8201 22.491 65.4587 25.9567 64.4064C26.7848 64.155 27.6134 63.9884 28.4216 63.9059C28.9901 63.8504 29.5488 63.8231 30.1064 63.8374C30.8745 64.8024 31.7589 65.6587 32.7343 66.384C35.1541 68.1996 38.1293 69.236 41.2233 69.2653C42.2599 69.2696 43.1008 68.4404 43.1121 67.404C43.1183 66.3737 42.2872 65.5265 41.2527 65.5216C38.9687 65.4989 36.7721 64.7357 34.9781 63.3935C33.2345 62.0888 31.8755 60.2289 31.1921 57.978L31.1901 57.9716C30.3382 55.1658 30.7044 52.2817 31.9865 49.8816C33.2686 47.4814 35.4602 45.5742 38.2723 44.7203C41.0781 43.8684 43.9685 44.2327 46.3666 45.5154C48.7667 46.7975 50.6759 48.9954 51.5278 51.8012L59.2283 77.1628L54.8188 78.5017L53.8839 75.4226C53.5834 74.4327 52.5346 73.8742 51.5468 74.1742L47.0911 75.527C46.6134 74.8985 46.0115 74.3903 45.3271 74.0265C44.1079 73.3752 42.6398 73.1897 41.2106 73.6236C39.7878 74.0557 38.6686 75.0267 38.0173 76.246C37.366 77.4652 37.1742 78.9352 37.6081 80.3644C38.042 81.7936 39.0188 82.9087 40.238 83.56C41.4573 84.2113 42.9253 84.3969 44.3503 83.9642C45.7795 83.5303 46.8966 82.5598 47.5479 81.3406C47.9123 80.6583 48.1322 79.9006 48.1798 79.1126L50.8427 78.3041L51.7782 81.3852C52.0788 82.3751 53.1275 82.9336 54.1153 82.6337L60.3176 80.7505L62.6512 88.4366L51.9933 91.6726C51.5169 91.0483 50.9137 90.5359 50.2312 90.1784C49.0101 89.5208 47.542 89.3353 46.1128 89.7692C44.69 90.2012 43.5708 91.1723 42.9214 92.3978C42.2701 93.6171 42.0783 95.087 42.5109 96.512C42.9449 97.9412 43.9216 99.0564 45.1409 99.7077C46.3601 100.359 47.8282 100.544 49.2531 100.112C50.6823 99.6779 51.7994 98.7075 52.4507 97.4882C52.8151 96.806 53.035 96.0483 53.0827 95.2602L63.7406 92.0242L66.0761 99.7166L59.8739 101.6C58.884 101.9 58.3236 102.943 58.6255 103.937L59.5591 107.012L56.8962 107.82C56.4203 107.198 55.8165 106.684 55.1341 106.326C53.9148 105.675 52.4449 105.483 51.0157 105.917C49.5928 106.349 48.4755 107.326 47.8242 108.545C47.1729 109.765 46.9811 111.235 47.4138 112.66C47.8477 114.089 48.8244 115.204 50.0437 115.855C51.2629 116.507 52.731 116.692 54.156 116.259C55.5852 115.826 56.7022 114.855 57.3535 113.636C57.718 112.954 57.9378 112.196 57.9874 111.414L62.4431 110.061C63.433 109.761 63.9915 108.712 63.6896 107.718L62.756 104.643L67.1655 103.304L67.1635 103.298ZM33.2578 99.3169C32.6101 97.1837 32.5358 95.0714 32.9385 93.2528C33.3255 91.5032 34.1445 90.0425 35.3083 89.1428C36.1244 88.5117 36.2743 87.3345 35.6425 86.5163C35.0114 85.7002 33.8342 85.5503 33.016 86.1821C31.146 87.629 29.8568 89.8546 29.2837 92.4503C28.7444 94.8774 28.8329 97.6488 29.6708 100.408C30.5099 103.172 31.9793 105.524 33.7737 107.238C35.6924 109.082 38.0064 110.209 40.361 110.373C41.3902 110.444 42.2874 109.664 42.3583 108.635C42.4291 107.606 41.6494 106.708 40.6202 106.638C39.1526 106.537 37.6604 105.78 36.3653 104.539C35.016 103.248 33.9055 101.45 33.2578 99.3169ZM122.347 67.0151C122.22 66.9228 122.055 66.8697 121.871 66.8612L114.775 66.7247C113.99 66.7084 113.251 66.5036 112.598 66.1302C111.953 65.7591 111.4 65.2314 110.99 64.5617C110 62.95 108.905 61.421 107.717 59.9729C106.52 58.5204 105.225 57.1437 103.839 55.8591C103.268 55.3302 102.852 54.6873 102.615 53.9673C102.373 53.2535 102.318 52.4967 102.455 51.725L103.701 44.7289C103.736 44.5415 103.711 44.3747 103.648 44.2306C103.58 44.0884 103.459 43.9691 103.287 43.879L95.2727 39.598C95.1083 39.5102 94.9382 39.4792 94.7814 39.4993C94.6314 39.5196 94.4743 39.5994 94.338 39.7326L89.2205 44.6516C88.6576 45.1944 87.9895 45.5717 87.2635 45.7738C86.5355 45.9695 85.7673 45.987 85.0086 45.8019C83.1701 45.3639 81.3122 45.0511 79.4417 44.8707C77.5756 44.6821 75.6912 44.6299 73.7994 44.6969C73.0141 44.7265 72.2707 44.5688 71.6016 44.2326C70.9284 43.8975 70.3469 43.4038 69.8987 42.7594L65.8383 36.9313C65.7332 36.7819 65.5984 36.6782 65.4476 36.6276C65.2968 36.577 65.1247 36.5695 64.9461 36.6238L62.3903 37.3998L70.4781 64.0372C75.9762 62.8361 81.5247 63.7293 86.2008 66.2325C91.4019 69.0055 95.5426 73.7671 97.39 79.8516C99.2387 85.9404 98.4426 92.194 95.6619 97.3928C93.1669 102.073 89.0517 105.901 83.8159 107.966L91.9018 134.597L94.4575 133.821C94.6362 133.766 94.777 133.671 94.8742 133.545C94.9735 133.418 95.026 133.251 95.0281 133.069L95.1646 125.973C95.181 125.188 95.3858 124.449 95.7591 123.796C96.1302 123.151 96.6585 122.6 97.3277 122.188C98.9393 121.198 100.475 120.101 101.923 118.913C103.375 117.717 104.745 116.421 106.03 115.037C106.559 114.466 107.206 114.049 107.922 113.813C108.636 113.571 109.399 113.514 110.171 113.652L117.16 114.899C117.348 114.934 117.523 114.913 117.659 114.847C117.801 114.778 117.927 114.655 118.01 114.485L122.291 106.471C122.383 106.305 122.416 106.134 122.398 105.984C122.372 105.829 122.296 105.67 122.163 105.534L117.24 100.418C116.697 99.8551 116.32 99.1869 116.124 98.459C115.924 97.7324 115.911 96.9628 116.09 96.2061C116.528 94.3675 116.84 92.5096 117.027 90.6372C117.209 88.773 117.268 86.8867 117.196 85.0032C117.165 84.2116 117.329 83.4663 117.659 82.7991C117.994 82.1258 118.496 81.5487 119.138 81.0943L124.96 77.0357C125.11 76.9328 125.22 76.794 125.27 76.6432C125.322 76.4896 125.322 76.3222 125.268 76.1435L122.628 67.4507C122.572 67.2588 122.476 67.1138 122.347 67.0151ZM74.2641 76.5137L76.5977 84.1998L62.6506 88.4345L63.7393 92.02L77.6864 87.7853L80.022 95.4777L66.0749 99.7124L67.1635 103.298L81.1107 99.0632L82.7169 104.353C86.9665 102.602 90.3073 99.4593 92.3578 95.6208C94.6786 91.2663 95.3466 86.0271 93.7998 80.9325C92.2529 75.8379 88.7847 71.8546 84.4366 69.5319C80.6007 67.4829 76.0749 66.7222 71.5666 67.6297L73.1747 72.926L59.2276 77.1607L60.3163 80.7463L74.2634 76.5116L74.2641 76.5137Z" fill="#8DCDE6"/>
</g>
<g clip-path="url(#clip2_172_49)">
<path d="M303.611 60.6222L182.754 93.0057C166.067 97.4769 156.165 114.629 160.636 131.316L220.006 352.887C224.477 369.574 241.629 379.476 258.316 375.005L379.173 342.622C395.86 338.15 405.762 320.998 401.291 304.311L341.921 82.7405C337.45 66.0536 320.298 56.1509 303.611 60.6222ZM389.87 301.974C393.59 315.857 385.326 330.178 371.438 333.899L260.653 363.584C246.77 367.304 232.448 359.035 228.728 345.152L172.057 133.653C168.337 119.77 176.606 105.448 190.489 101.728L301.274 72.0429C315.162 68.3218 329.479 76.5923 333.199 90.4749L389.87 301.974Z" fill="#8DCDE6"/>
<path d="M303.972 82.1146L268.722 91.5598C271.703 102.684 265.101 114.119 253.977 117.1C242.853 120.081 231.418 113.479 228.437 102.354L193.187 111.799C184.856 114.032 179.896 122.624 182.128 130.955L238.799 342.454C241.031 350.785 249.623 355.745 257.954 353.513L368.739 323.828C377.07 321.596 382.031 313.004 379.799 304.673L323.127 93.1738C320.895 84.8432 312.303 79.8824 303.972 82.1146ZM277.6 252.432C280.186 253.705 281.25 256.83 279.981 259.41C279.288 260.819 278.052 261.772 276.651 262.147C275.47 262.464 274.181 262.372 273.003 261.791L223.272 237.336C221.918 236.671 220.923 235.456 220.535 234.006C220.146 232.555 220.4 231.006 221.24 229.753L252.08 183.709C253.684 181.313 256.915 180.663 259.314 182.281C261.704 183.881 262.345 187.12 260.741 189.515L233.217 230.607L277.6 252.432ZM340.686 205.875L309.846 251.919C309.116 253.011 308.045 253.735 306.865 254.052C305.463 254.427 303.916 254.22 302.612 253.346C300.223 251.747 299.582 248.508 301.185 246.112L328.709 205.02L284.327 183.196C281.74 181.923 280.676 178.798 281.945 176.217C283.214 173.616 286.337 172.563 288.924 173.836L338.654 198.292C340.008 198.957 341.003 200.171 341.392 201.622C341.78 203.073 341.526 204.622 340.686 205.875Z" fill="#8DCDE6"/>
<path d="M472.315 187.018L455.977 182.815C455.524 178.92 454.806 175.138 453.83 171.494C452.853 167.85 451.584 164.216 450.029 160.617L462.077 148.808C464.08 146.843 465.206 144.159 465.204 141.36C465.202 138.557 464.082 135.874 462.08 133.912L432.118 104.549C428.072 100.584 421.596 100.57 417.518 104.55L405.263 116.568C397.921 113.517 390.149 111.499 382.271 110.585L378.005 94.6612C376.514 89.0993 370.801 85.7968 365.235 87.2884L354.691 90.1135L370.883 150.542C393.132 144.58 416.001 157.784 421.963 180.033C427.925 202.283 414.721 225.151 392.472 231.113L408.664 291.542L419.207 288.717C424.774 287.225 428.07 281.508 426.58 275.946L422.315 260.028C428.678 255.292 434.398 249.654 439.233 243.346L455.855 247.625C461.378 249.039 466.979 245.788 468.499 240.326L479.766 199.917C480.519 197.217 480.147 194.333 478.747 191.904C477.349 189.48 475.033 187.718 472.315 187.018Z" fill="#8DCDE6"/>
</g>
<g opacity="0.4" clip-path="url(#clip3_172_49)">
<path d="M156.383 346.983C157.836 349.576 158.304 352.731 157.433 355.821C156.56 358.916 154.515 361.356 151.92 362.815C149.32 364.266 146.174 364.726 143.085 363.855C139.989 362.982 137.547 360.946 136.088 358.351C134.637 355.752 134.177 352.606 135.05 349.51C135.92 346.424 137.962 343.973 140.551 342.52C143.151 341.069 146.3 340.599 149.395 341.472C152.485 342.343 154.924 344.388 156.383 346.983ZM184.901 361.024L183.572 365.737C183.176 367.144 181.965 368.101 180.501 368.154L176.85 368.293C175.707 368.338 174.744 368.9 174.155 369.874C172.82 372.039 171.252 374.014 169.494 375.783C168.693 376.589 168.371 377.656 168.591 378.772L169.304 382.364C169.594 383.793 168.945 385.188 167.671 385.91L163.395 388.305C162.123 389.017 160.596 388.835 159.518 387.845L156.827 385.362C155.997 384.582 154.916 384.298 153.807 384.57C151.384 385.146 148.877 385.451 146.337 385.448C145.194 385.455 144.213 385.98 143.587 386.934L141.552 389.971C140.742 391.192 139.303 391.717 137.89 391.318L133.177 389.989C131.77 389.593 130.811 388.388 130.757 386.928L130.618 383.277C130.573 382.134 130.011 381.171 129.04 380.572C126.873 379.247 124.897 377.679 123.129 375.921C122.322 375.119 121.258 374.788 120.139 375.018L116.548 375.731C115.117 376.013 113.723 375.372 113.001 374.098L110.606 369.822C109.897 368.541 110.079 367.014 111.066 365.945L113.55 363.254C114.329 362.424 114.613 361.343 114.342 360.234C113.765 357.811 113.461 355.303 113.463 352.764C113.456 351.621 112.931 350.64 111.98 350.005L108.94 347.979C107.72 347.169 107.197 345.72 107.593 344.317L108.922 339.604C109.321 338.187 110.52 337.237 111.983 337.184L115.646 337.038C116.78 336.99 117.74 336.438 118.339 335.467C119.674 333.302 121.232 331.324 122.991 329.556C123.802 328.752 124.123 327.684 123.893 326.566L123.18 322.975C122.9 321.538 123.542 320.141 124.813 319.428L129.089 317.033C130.371 316.324 131.9 316.496 132.966 317.493L135.657 319.976C136.49 320.747 137.571 321.031 138.677 320.769C141.101 320.192 143.608 319.888 146.15 319.88C147.29 319.883 148.271 319.358 148.907 318.407L150.932 315.367C151.742 314.147 153.194 313.615 154.597 314.01L159.31 315.339C160.727 315.738 161.674 316.947 161.727 318.41L161.876 322.064C161.912 323.204 162.473 324.167 163.447 324.756C165.612 326.091 167.587 327.659 169.356 329.418C170.162 330.219 171.23 330.541 172.345 330.32L175.937 329.607C177.375 329.32 178.771 329.969 179.483 331.24L181.878 335.516C182.59 336.788 182.418 338.317 181.418 339.393L178.935 342.084C178.165 342.917 177.881 343.998 178.143 345.104C178.719 347.527 179.024 350.035 179.031 352.577C179.028 353.717 179.553 354.698 180.507 355.324L183.544 357.359C184.765 358.169 185.3 359.608 184.901 361.024ZM162.782 357.328C164.069 352.761 163.387 348.107 161.236 344.268C159.085 340.428 155.473 337.404 150.905 336.117C146.328 334.826 141.671 335.519 137.832 337.669C133.992 339.82 130.978 343.435 129.692 348C128.401 352.577 129.084 357.231 131.234 361.07C133.385 364.91 137.001 367.924 141.574 369.213C146.142 370.501 150.796 369.818 154.639 367.668C158.478 365.518 161.492 361.902 162.782 357.328ZM100.289 377.918L88.5906 374.62L87.8277 363.673L62.3101 356.479L55.9512 365.418L44.2523 362.12C42.7742 361.703 41.2311 362.559 40.8144 364.038C40.3976 365.516 41.2603 367.061 42.7417 367.478L98.7755 383.276C100.254 383.692 101.799 382.83 102.216 381.348C102.637 379.868 101.771 378.336 100.289 377.918ZM104.089 336.652L19.3409 312.76L37.6479 247.825C38.9483 243.212 43.7867 240.51 48.3994 241.81L159.602 273.161C164.214 274.461 166.929 279.293 165.628 283.906L158.465 309.313L156.106 308.648C152.374 307.596 148.455 309.049 146.304 312.274L144.918 314.333C142.784 314.406 140.658 314.661 138.563 315.092L136.736 313.405C133.897 310.778 129.74 310.281 126.361 312.177L122.085 314.572C118.705 316.457 116.961 320.259 117.713 324.061L118.194 326.499C116.742 328.063 115.414 329.743 114.237 331.525L111.751 331.618C108.407 331.75 105.493 333.706 104.089 336.652ZM63.0012 286.941L83.5287 282.035C85.0176 281.681 85.9431 280.186 85.5896 278.697C85.236 277.208 83.7403 276.282 82.2515 276.636L56.919 282.686C56.4203 282.804 55.9437 283.055 55.5546 283.442C54.4754 284.527 54.4834 286.286 55.5684 287.365L74.0338 305.784C75.1187 306.863 76.8758 306.862 77.9568 305.77C79.036 304.685 79.028 302.926 77.9431 301.847L63.0012 286.941ZM104.821 274.38C103.471 273.643 101.784 274.14 101.047 275.489L80.655 312.819C79.9204 314.159 80.4177 315.845 81.7572 316.58C83.1065 317.317 84.7933 316.82 85.5307 315.471L105.92 278.151C106.657 276.801 106.16 275.115 104.821 274.38ZM104.323 314.323L129.69 308.262C131.179 307.908 132.105 306.413 131.751 304.924C131.625 304.391 131.346 303.928 130.982 303.566L112.541 285.175C111.456 284.096 109.697 284.104 108.618 285.189C107.539 286.274 107.547 288.033 108.631 289.112L123.573 304.018L103.046 308.924C101.557 309.278 100.631 310.774 100.985 312.263C101.337 313.758 102.834 314.677 104.323 314.323ZM105.841 352.603C102.619 350.455 101.173 346.534 102.225 342.803L102.458 341.977L17.8303 318.118L14.9598 328.3C13.6621 332.903 16.3738 337.744 20.9866 339.044L106.23 363.077C106.459 362.763 106.702 362.458 106.973 362.167L108.657 360.339C108.236 358.246 107.981 356.121 107.898 353.984L105.841 352.603Z" fill="#8DCDE6"/>
</g>
<defs>
<clipPath id="clip0_172_49">
<rect width="112.46" height="112.46" fill="white" transform="translate(516.065 181.668)"/>
</clipPath>
<clipPath id="clip1_172_49">
<rect width="112.46" height="112.46" fill="white" transform="translate(0.00012207 50.6501) rotate(-16.8896)"/>
</clipPath>
<clipPath id="clip2_172_49">
<rect width="333.654" height="333.654" fill="white" transform="translate(127 86.356) rotate(-15)"/>
</clipPath>
<clipPath id="clip3_172_49">
<rect width="172.438" height="172.438" fill="white" transform="translate(46.7909 215.406) rotate(15.7445)"/>
</clipPath>
</defs>
</svg>
