<svg width="521" height="433" viewBox="0 0 521 433" fill="none" xmlns="http://www.w3.org/2000/svg">
<g clip-path="url(#clip0_117_1522)">
<path fill-rule="evenodd" clip-rule="evenodd" d="M300.838 266.1L279.293 269.31C276.318 269.753 274.266 272.524 274.709 275.499L277.92 297.044C279.249 305.968 287.562 312.125 296.486 310.795C305.41 309.465 311.567 301.153 310.237 292.228L307.027 270.683C306.583 267.708 303.812 265.656 300.838 266.1Z" fill="#B3CCF0"/>
<path d="M193.915 287.539C187.613 245.641 208.943 204.435 246.792 185.393C284.641 166.35 330.442 173.781 360.328 203.814C390.215 233.846 397.423 279.682 378.196 317.438L391.632 327.389C392.491 327.004 393.396 326.732 394.325 326.58C396.881 326.208 399.486 326.767 401.663 328.158L404.221 327.776C406.985 327.158 408.758 324.456 408.223 321.674L380.131 133.156L105.434 174.09L133.525 362.608C133.824 365.42 136.301 367.488 139.122 367.28L234.366 353.087C233.752 352.661 233.149 352.305 232.532 351.863C211.586 336.44 197.68 313.277 193.915 287.539ZM146.943 204.832L133.192 223.398C131.382 225.754 128.019 226.226 125.632 224.458C123.244 222.69 122.715 219.335 124.441 216.917L134.951 202.726L120.76 192.216C118.404 190.407 117.933 187.043 119.7 184.656C121.468 182.269 124.823 181.739 127.241 183.465L145.808 197.216C148.224 199.006 148.732 202.415 146.943 204.832ZM155.747 216.144C155.304 213.17 157.356 210.399 160.331 209.956L181.876 206.745C184.851 206.302 187.622 208.354 188.065 211.329C188.508 214.304 186.456 217.074 183.481 217.518L161.936 220.728C158.961 221.171 156.191 219.119 155.747 216.144Z" fill="#B3CCF0"/>
<path fill-rule="evenodd" clip-rule="evenodd" d="M287.657 251.546C284.682 251.99 282.63 254.761 283.073 257.735L293.846 256.13C293.402 253.155 290.632 251.103 287.657 251.546Z" fill="#B3CCF0"/>
<path d="M374.514 95.451C374.216 92.6382 371.738 90.5703 368.918 90.779L103.807 130.284C101.048 130.907 99.2817 133.607 99.8164 136.385L103.829 163.316L378.527 122.382L374.514 95.451ZM118.383 150.136C115.408 150.579 112.637 148.527 112.194 145.552C111.75 142.577 113.802 139.806 116.777 139.363C119.752 138.92 122.523 140.972 122.966 143.947C123.409 146.922 121.357 149.692 118.383 150.136ZM139.928 146.925C136.953 147.368 134.182 145.316 133.739 142.341C133.295 139.367 135.347 136.596 138.322 136.153C141.297 135.709 144.068 137.761 144.511 140.736C144.954 143.711 142.902 146.482 139.928 146.925ZM161.473 143.715C158.498 144.158 155.727 142.106 155.284 139.131C154.84 136.156 156.893 133.385 159.867 132.942C162.842 132.499 165.613 134.551 166.056 137.526C166.5 140.501 164.447 143.271 161.473 143.715ZM369.39 108.839C370.992 109.983 371.851 111.902 371.639 113.859C371.427 115.816 370.175 117.505 368.365 118.279C366.556 119.053 364.47 118.79 362.908 117.591L361.095 116.248L359.752 118.061C357.943 120.417 354.579 120.888 352.192 119.121C349.804 117.352 349.275 113.998 351.001 111.58L352.344 109.767L350.531 108.424C348.175 106.615 347.704 103.251 349.471 100.864C351.24 98.4762 354.594 97.9469 357.012 99.6731L358.825 101.016L360.168 99.2028C361.312 97.601 363.231 96.7411 365.188 96.9534C367.144 97.1657 368.834 98.4173 369.608 100.227C370.381 102.037 370.118 104.123 368.92 105.684L367.577 107.497L369.39 108.839Z" fill="#B3CCF0"/>
<path fill-rule="evenodd" clip-rule="evenodd" d="M439.693 369.763L395.931 337.352L382.969 354.854L426.73 387.265C431.598 390.701 438.308 389.701 441.962 384.995C445.541 380.162 444.525 373.343 439.693 369.763Z" fill="#B3CCF0"/>
<path fill-rule="evenodd" clip-rule="evenodd" d="M372.663 326.895C371.66 328.41 370.721 329.937 369.633 331.432C368.545 332.927 367.301 334.252 366.165 335.649L377.442 344.005L383.932 335.242L372.663 326.895Z" fill="#B3CCF0"/>
<path d="M342.721 203.071C309.315 178.333 263.087 180.638 232.307 208.575C201.527 236.513 194.769 282.302 216.164 317.941C237.56 353.579 281.151 369.142 320.278 355.111C359.406 341.079 383.175 301.363 377.047 260.249C373.669 237.382 361.316 216.804 342.721 203.071ZM352.137 318.469C330.491 347.698 291.212 357.567 258.321 342.04C225.43 326.513 208.088 289.914 216.899 254.626C225.711 219.337 258.224 195.188 294.553 196.946C330.883 198.704 360.911 225.881 366.274 261.855C369.283 281.855 364.195 302.23 352.137 318.469Z" fill="#B3CCF0"/>
<path d="M329.759 220.579C304.706 202.025 270.034 203.752 246.949 224.705C223.863 245.657 218.794 280 234.84 306.729C250.887 333.459 283.58 345.131 312.926 334.607C342.272 324.084 360.099 294.295 355.502 263.46C352.968 246.31 343.704 230.878 329.759 220.579ZM247.112 240.68C255.679 229.045 268.545 221.321 282.841 219.229C285.816 218.786 288.587 220.838 289.03 223.813C289.474 226.788 287.421 229.559 284.447 230.002C273.009 231.673 262.715 237.853 255.863 247.162C254.053 249.518 250.69 249.989 248.302 248.221C245.915 246.452 245.385 243.097 247.112 240.68ZM330.979 283.632L320.206 285.237L320.677 288.393L331.241 296.218C332.843 297.361 333.703 299.28 333.491 301.237C333.278 303.194 332.027 304.884 330.217 305.657C328.407 306.431 326.321 306.168 324.76 304.969L320.347 301.701C317.549 312.166 308.805 319.972 298.091 321.568C287.376 323.165 276.736 318.248 271.009 309.053L267.741 313.466C265.932 315.822 262.568 316.293 260.181 314.525C257.793 312.757 257.264 309.402 258.99 306.985L266.815 296.42L266.344 293.263L255.572 294.869C252.597 295.312 249.826 293.26 249.383 290.285C248.939 287.31 250.992 284.539 253.966 284.096L264.739 282.491L264.269 279.334L253.704 271.51C251.348 269.701 250.877 266.337 252.644 263.95C254.412 261.562 257.767 261.033 260.185 262.759L265.805 266.921C267.327 264.122 269.637 261.831 272.449 260.332L272.301 259.341C270.971 250.417 277.127 242.104 286.052 240.774C294.976 239.444 303.289 245.6 304.618 254.525L304.766 255.516C307.892 256.129 310.769 257.645 313.042 259.877L317.204 254.257C319.013 251.901 322.377 251.43 324.764 253.198C327.152 254.966 327.681 258.321 325.955 260.739L318.131 271.308L318.601 274.465L329.374 272.859C332.349 272.416 335.12 274.468 335.563 277.443C336.006 280.417 333.954 283.188 330.979 283.632Z" fill="#B3CCF0"/>
</g>
<g opacity="0.4" clip-path="url(#clip1_117_1522)">
<path d="M122.341 33.674C122.497 33.9438 122.55 34.2767 122.463 34.6006C122.376 34.9244 122.164 35.186 121.894 35.3418C121.624 35.4976 121.296 35.5521 120.967 35.4641C120.644 35.3773 120.382 35.1647 120.226 34.8949C120.07 34.6251 120.017 34.2922 120.104 33.9684C120.191 33.6445 120.403 33.3829 120.673 33.2272C120.943 33.0714 121.276 33.0181 121.6 33.1048C121.928 33.1929 122.185 33.4042 122.341 33.674ZM115.158 57.1466C114.834 57.0598 114.502 57.1085 114.232 57.2642C113.961 57.4247 113.75 57.6816 113.663 58.0055C113.575 58.334 113.63 58.6622 113.784 58.9367C113.94 59.2065 114.203 59.4144 114.527 59.5012C114.855 59.5892 115.182 59.5393 115.452 59.3835C115.723 59.2231 115.934 58.9662 116.023 58.6376C116.109 58.3138 116.055 57.9856 115.9 57.7111C115.744 57.4413 115.486 57.2346 115.158 57.1466ZM118.379 45.1234C118.055 45.0366 117.723 45.0899 117.453 45.2457C117.183 45.4014 116.97 45.6631 116.884 45.9869C116.796 46.3155 116.85 46.6437 117.006 46.9134C117.162 47.1832 117.423 47.3959 117.747 47.4826C118.076 47.5707 118.404 47.5161 118.674 47.3603C118.943 47.2046 119.155 46.9476 119.243 46.6191C119.33 46.2952 119.276 45.9623 119.121 45.6926C118.965 45.4228 118.708 45.2114 118.379 45.1234ZM127.005 59.1273L121.947 78.0062C121.387 80.0948 120.033 81.7626 118.297 82.7612C116.559 83.7645 114.439 84.1036 112.35 83.544C110.257 82.9831 108.594 81.6303 107.592 79.893C106.588 78.1599 106.249 76.0401 106.809 73.9499C107.259 72.2696 108.214 70.8705 109.467 69.8665C110.757 68.8337 112.358 68.2132 114.041 68.1409C114.805 68.1125 115.394 67.4722 115.366 66.7083C115.331 65.9479 114.692 65.3541 113.927 65.3872C111.648 65.484 109.481 66.3154 107.742 67.7124C107.04 68.2753 106.41 68.9232 105.867 69.6531C105.457 69.6757 105.043 69.6754 104.624 69.6436C104.026 69.6025 103.412 69.4998 102.795 69.3347C100.214 68.643 98.1536 66.9692 96.9167 64.8268C95.6763 62.6784 95.256 60.0606 95.9472 57.4807C96.1325 56.7892 96.387 56.1397 96.7017 55.5349C97.0104 54.9334 97.3722 54.3781 97.7821 53.8809C97.8229 53.8348 97.8638 53.7888 97.9012 53.7368C98.3478 53.1153 98.2078 52.2544 97.5863 51.8079C96.161 50.7753 95.1241 49.0756 94.5979 47.028C94.0675 44.9458 94.0711 42.517 94.7317 40.0514C95.3924 37.5857 96.6038 35.4805 98.1025 33.9487C99.5832 32.4339 101.329 31.4866 103.08 31.3035L103.082 31.2988C103.111 31.2965 103.141 31.2911 103.17 31.2889C103.922 31.1616 104.426 30.4515 104.3 29.7002C104.189 29.0331 104.146 28.3425 104.178 27.6335C104.208 26.9523 104.312 26.2626 104.497 25.5711C105.189 22.9896 106.863 20.9296 109.01 19.6939C111.154 18.4523 113.776 18.0332 116.356 18.7245C116.972 18.8897 117.556 19.1081 118.094 19.3713C118.472 19.558 118.832 19.7586 119.176 19.9848C119.281 20.8882 119.501 21.7689 119.829 22.603C120.637 24.6824 122.096 26.4902 124.022 27.7139C124.669 28.1204 125.519 27.9288 125.929 27.2843C126.335 26.6417 126.144 25.7875 125.499 25.3814C124.077 24.4774 122.999 23.1439 122.399 21.6047C121.816 20.1085 121.689 18.4146 122.138 16.739L122.139 16.7344C122.699 14.6457 124.052 12.9826 125.79 11.9793C127.527 10.976 129.643 10.6356 131.736 11.1965C133.824 11.7562 135.492 13.1102 136.494 14.8475C137.497 16.5853 137.836 18.7051 137.277 20.7937L132.218 39.6726L128.936 38.7931L129.55 36.5011C129.747 35.7642 129.308 35.0061 128.573 34.809L125.256 33.9203C125.202 33.3407 125.023 32.788 124.736 32.2936C124.227 31.4109 123.38 30.7228 122.316 30.4378C121.257 30.154 120.178 30.326 119.295 30.8356C118.412 31.3453 117.72 32.1909 117.434 33.2548C117.149 34.3186 117.327 35.3974 117.836 36.2801C118.346 37.1629 119.193 37.8509 120.253 38.1351C121.317 38.4202 122.395 38.2478 123.278 37.7381C123.771 37.4529 124.204 37.0642 124.541 36.5893L126.523 37.1205L125.909 39.4141C125.711 40.1509 126.15 40.9091 126.886 41.1062L131.503 42.3432L129.97 48.0646L122.036 45.9388C121.981 45.3623 121.803 44.8065 121.515 44.3169C121.006 43.4294 120.159 42.7414 119.096 42.4563C118.036 42.1725 116.957 42.3445 116.073 42.8589C115.191 43.3685 114.498 44.2141 114.214 45.2749C113.929 46.3387 114.106 47.4175 114.615 48.3002C115.125 49.183 115.972 49.871 117.033 50.1552C118.097 50.4403 119.174 50.2679 120.057 49.7582C120.551 49.473 120.984 49.0843 121.32 48.6094L129.254 50.7352L127.72 56.4613L123.103 55.2243C122.366 55.0268 121.609 55.4612 121.411 56.2012L120.797 58.4901L118.815 57.9589C118.76 57.384 118.582 56.8266 118.294 56.337C117.784 55.4542 116.939 54.7615 115.875 54.4764C114.816 54.1926 113.735 54.3693 112.853 54.879C111.97 55.3886 111.277 56.2342 110.993 57.295C110.708 58.3588 110.885 59.4376 111.395 60.3203C111.904 61.2031 112.751 61.8911 113.812 62.1753C114.876 62.4604 115.953 62.288 116.836 61.7783C117.33 61.4931 117.763 61.1044 118.098 60.6342L121.415 61.523C122.152 61.7204 122.91 61.2813 123.108 60.5413L123.722 58.2525L127.004 59.132L127.005 59.1273ZM107.328 43.4264C107.753 41.8384 108.529 40.487 109.49 39.5052C110.414 38.5605 111.496 37.965 112.575 37.8551C113.332 37.7779 113.884 37.0992 113.807 36.3408C113.73 35.584 113.051 35.0316 112.293 35.1084C110.559 35.2859 108.884 36.1771 107.514 37.579C106.231 38.8885 105.207 40.6582 104.657 42.7124C104.105 44.7697 104.109 46.8148 104.565 48.5869C105.048 50.4887 106.058 52.0957 107.468 53.1158C108.085 53.5611 108.95 53.4225 109.396 52.8057C109.841 52.1889 109.702 51.3233 109.085 50.878C108.206 50.2433 107.566 49.1882 107.239 47.9066C106.897 46.5725 106.902 45.0144 107.328 43.4264ZM175.69 57.9075C175.647 57.8003 175.564 57.7027 175.452 57.6258L171.063 54.7762C170.578 54.46 170.194 54.0437 169.931 53.5557C169.672 53.072 169.531 52.5263 169.535 51.9472C169.544 50.5526 169.453 49.1685 169.274 47.799C169.09 46.4236 168.816 45.0572 168.449 43.7128C168.297 43.159 168.287 42.5947 168.419 42.0516C168.546 41.5103 168.806 41.015 169.193 40.5854L172.698 36.6903C172.793 36.5866 172.842 36.4723 172.859 36.3579C172.872 36.2422 172.842 36.1203 172.77 35.9969L169.42 30.1945C169.351 30.0755 169.257 29.9898 169.15 29.9413C169.049 29.8956 168.919 29.8843 168.782 29.9147L163.662 31.0009C163.098 31.1215 162.532 31.0974 161.999 30.9411C161.467 30.7801 160.979 30.4918 160.576 30.0803C159.596 29.0899 158.555 28.1703 157.454 27.3286C156.359 26.4836 155.199 25.7168 153.989 25.0218C153.486 24.7344 153.082 24.3461 152.794 23.8749C152.503 23.4029 152.331 22.8672 152.301 22.2892L152.029 17.0584C152.022 16.9239 151.978 16.8065 151.903 16.716C151.828 16.6256 151.724 16.5539 151.591 16.5183L149.688 16.0085L144.375 35.8371C148.285 37.2269 151.411 39.9476 153.364 43.3365C155.54 47.0989 156.278 51.6931 155.064 56.2224C153.85 60.7548 150.915 64.3601 147.149 66.5318C143.763 68.4904 139.696 69.2836 135.613 68.5368L130.301 88.3606L132.204 88.8704C132.337 88.906 132.462 88.9011 132.572 88.8601C132.684 88.8195 132.782 88.7351 132.854 88.622L135.704 84.2327C136.02 83.7473 136.436 83.3641 136.924 83.1009C137.408 82.8414 137.953 82.7025 138.533 82.7052C139.927 82.7133 141.316 82.6243 142.685 82.4446C144.061 82.2615 145.423 81.9842 146.767 81.6183C147.321 81.4665 147.888 81.4576 148.428 81.5889C148.969 81.7154 149.469 81.9769 149.899 82.3636L153.789 85.8676C153.893 85.9625 154.011 86.0175 154.122 86.0288C154.238 86.0414 154.364 86.0132 154.483 85.9394L160.285 82.5894C160.407 82.5215 160.495 82.4275 160.542 82.3262C160.586 82.2189 160.6 82.0902 160.57 81.953L159.48 76.8318C159.36 76.268 159.384 75.7026 159.545 75.1706C159.703 74.6378 159.994 74.1508 160.401 73.7466C161.391 72.7661 162.311 71.7247 163.157 70.6251C163.998 69.529 164.769 68.3707 165.458 67.1636C165.747 66.6557 166.14 66.2529 166.606 65.9638C167.078 65.6727 167.617 65.507 168.197 65.4727L173.423 65.1995C173.557 65.1936 173.679 65.1492 173.77 65.0745C173.862 64.9987 173.927 64.8937 173.963 64.7607L175.697 58.2899C175.737 58.148 175.732 58.0194 175.69 57.9075ZM141.885 45.1235L140.352 50.8449L129.97 48.0631L129.255 50.7321L139.637 53.514L138.103 59.2401L127.721 56.4582L127.005 59.1273L137.387 61.9091L136.332 65.847C139.675 66.4057 142.991 65.7398 145.77 64.1352C148.92 62.3129 151.379 59.2929 152.395 55.5005C153.411 51.7082 152.792 47.8632 150.974 44.715C149.371 41.9378 146.833 39.6985 143.657 38.5104L142.601 42.4529L132.219 39.6711L131.503 42.3401L141.886 45.122L141.885 45.1235Z" fill="#B3CCF0"/>
</g>
<g opacity="0.4" clip-path="url(#clip2_117_1522)">
<path d="M456.355 124.38L424.057 133.977C419.597 135.302 417.057 139.991 418.382 144.45L435.976 203.663C437.301 208.122 441.99 210.663 446.45 209.338L478.747 199.741C483.207 198.416 485.748 193.727 484.423 189.268L466.828 130.055C465.503 125.596 460.814 123.055 456.355 124.38ZM481.331 188.722C482.434 192.432 480.313 196.347 476.602 197.45L446.996 206.247C443.286 207.349 439.37 205.227 438.268 201.517L421.473 144.996C420.371 141.286 422.492 137.371 426.202 136.268L455.809 127.471C459.52 126.368 463.434 128.491 464.537 132.201L481.331 188.722Z" fill="#B3CCF0"/>
<path d="M456.608 130.163L447.188 132.962C448.071 135.935 446.378 139.061 443.405 139.944C440.432 140.828 437.306 139.134 436.422 136.161L427.002 138.96C424.776 139.622 423.503 141.971 424.164 144.197L440.959 200.718C441.621 202.944 443.97 204.217 446.196 203.556L475.802 194.758C478.028 194.097 479.301 191.748 478.64 189.522L461.845 133C461.184 130.774 458.835 129.501 456.608 130.163ZM450.749 176.203C451.454 176.526 451.763 177.36 451.44 178.064C451.264 178.448 450.938 178.713 450.564 178.825C450.248 178.918 449.901 178.903 449.579 178.755L436.014 172.534C435.645 172.365 435.368 172.045 435.253 171.658C435.138 171.27 435.195 170.851 435.412 170.508L443.379 157.889C443.793 157.232 444.658 157.034 445.316 157.452C445.971 157.865 446.167 158.732 445.753 159.389L438.643 170.651L450.749 176.203ZM467.392 163.211L459.425 175.83C459.237 176.129 458.954 176.332 458.638 176.425C458.264 176.537 457.846 176.492 457.488 176.267C456.833 175.853 456.637 174.986 457.052 174.33L464.162 163.068L452.055 157.516C451.35 157.192 451.041 156.359 451.364 155.655C451.686 154.945 452.519 154.639 453.225 154.963L466.79 161.184C467.159 161.353 467.436 161.673 467.551 162.061C467.666 162.448 467.609 162.867 467.392 163.211Z" fill="#B3CCF0"/>
<path d="M502.688 157.176L498.259 156.164C498.109 155.119 497.888 154.106 497.599 153.132C497.309 152.158 496.941 151.189 496.497 150.232L499.654 146.965C500.179 146.422 500.462 145.691 500.441 144.938C500.42 144.183 500.099 143.469 499.546 142.955L491.267 135.269C490.149 134.231 488.406 134.274 487.337 135.376L484.125 138.7C482.127 137.932 480.02 137.446 477.893 137.257L476.628 133.001C476.187 131.515 474.625 130.668 473.137 131.11L470.319 131.947L475.118 148.096C481.064 146.329 487.316 149.717 489.083 155.663C490.85 161.609 487.462 167.861 481.516 169.627L486.314 185.776L489.132 184.939C490.62 184.497 491.465 182.934 491.024 181.448L489.76 177.194C491.438 175.873 492.937 174.313 494.193 172.58L498.698 173.611C500.195 173.951 501.679 173.036 502.049 171.554L504.788 160.594C504.97 159.862 504.849 159.089 504.455 158.445C504.061 157.802 503.425 157.345 502.688 157.176Z" fill="#B3CCF0"/>
</g>
<g opacity="0.4" clip-path="url(#clip3_117_1522)">
<path d="M83.7541 349.468C84.532 350.857 84.7827 352.547 84.3162 354.201C83.8488 355.859 82.7533 357.166 81.3636 357.947C79.9714 358.724 78.2864 358.971 76.6319 358.504C74.974 358.037 73.6659 356.946 72.8845 355.557C72.1076 354.164 71.8611 352.479 72.3286 350.822C72.7945 349.169 73.888 347.856 75.275 347.078C76.6672 346.301 78.3536 346.049 80.0116 346.516C81.6661 346.983 82.9727 348.078 83.7541 349.468ZM99.0273 356.988L98.3156 359.512C98.1032 360.266 97.4546 360.778 96.6708 360.806L94.7156 360.881C94.1035 360.905 93.5877 361.206 93.2719 361.728C92.5572 362.887 91.7173 363.945 90.7756 364.892C90.3465 365.324 90.1741 365.896 90.2924 366.493L90.674 368.417C90.8293 369.182 90.4818 369.929 89.7993 370.316L87.5092 371.599C86.8282 371.98 86.0105 371.883 85.4328 371.353L83.9919 370.022C83.5474 369.605 82.9681 369.453 82.3742 369.598C81.0765 369.907 79.7337 370.07 78.3734 370.069C77.7614 370.073 77.2362 370.354 76.901 370.864L75.8108 372.491C75.3773 373.145 74.6065 373.426 73.8496 373.213L71.3253 372.501C70.5718 372.289 70.0584 371.643 70.0297 370.861L69.9549 368.906C69.9307 368.294 69.6301 367.778 69.1097 367.457C67.9491 366.748 66.8909 365.908 65.9439 364.966C65.512 364.537 64.9418 364.359 64.3428 364.483L62.4193 364.865C61.6532 365.016 60.9067 364.672 60.52 363.99L59.2373 361.7C58.8572 361.014 58.9547 360.196 59.4834 359.623L60.8136 358.182C61.2313 357.738 61.3834 357.159 61.2378 356.565C60.929 355.267 60.766 353.924 60.7672 352.564C60.7635 351.952 60.4824 351.427 59.9731 351.086L58.3449 350.001C57.6913 349.568 57.4115 348.792 57.6235 348.04L58.3351 345.516C58.549 344.757 59.1909 344.248 59.9748 344.22L61.9366 344.142C62.5435 344.116 63.0578 343.821 63.3789 343.3C64.0936 342.141 64.9283 341.081 65.87 340.134C66.3043 339.704 66.4767 339.132 66.3532 338.533L65.9716 336.61C65.8212 335.84 66.1652 335.092 66.8462 334.711L69.1363 333.428C69.8225 333.048 70.6417 333.14 71.2127 333.674L72.6537 335.004C73.0996 335.417 73.6789 335.569 74.2713 335.428C75.5691 335.12 76.9119 334.957 78.2736 334.953C78.8841 334.954 79.4094 334.673 79.7498 334.164L80.8347 332.535C81.2683 331.882 82.0457 331.597 82.7975 331.809L85.3217 332.52C86.0804 332.734 86.5876 333.382 86.6159 334.165L86.6958 336.122C86.7148 336.733 87.0154 337.248 87.5374 337.564C88.6964 338.279 89.7546 339.119 90.7017 340.061C91.1335 340.49 91.7053 340.662 92.3027 340.544L94.2263 340.162C94.9968 340.008 95.744 340.356 96.1255 341.037L97.4083 343.327C97.7898 344.008 97.6975 344.827 97.1621 345.403L95.8319 346.844C95.4195 347.29 95.2674 347.869 95.4077 348.462C95.7165 349.76 95.8796 351.102 95.8836 352.464C95.882 353.075 96.1631 353.6 96.6739 353.935L98.3006 355.025C98.9543 355.459 99.2412 356.229 99.0273 356.988ZM87.1808 355.009C87.8704 352.563 87.5049 350.07 86.353 348.014C85.2011 345.957 83.2663 344.338 80.8202 343.648C78.3688 342.957 75.8748 343.328 73.8184 344.48C71.7621 345.632 70.1479 347.568 69.4588 350.012C68.7677 352.464 69.1332 354.956 70.2851 357.013C71.437 359.069 73.3733 360.683 75.8229 361.374C78.269 362.063 80.7615 361.698 82.8197 360.547C84.8761 359.395 86.4902 357.458 87.1808 355.009ZM53.7119 366.036L47.4463 364.27L47.0378 358.407L33.3713 354.554L29.9657 359.341L23.7001 357.575C22.9085 357.352 22.0821 357.81 21.8589 358.602C21.6357 359.394 22.0977 360.221 22.8911 360.445L52.9011 368.905C53.6927 369.128 54.5202 368.666 54.7438 367.873C54.9692 367.08 54.5053 366.26 53.7119 366.036ZM55.7466 343.935L10.3584 331.139L20.163 296.362C20.8595 293.891 23.4508 292.444 25.9212 293.141L85.4777 309.931C87.9481 310.628 89.4019 313.215 88.7054 315.686L84.8691 329.293L83.6053 328.937C81.607 328.373 79.508 329.152 78.3557 330.879L77.6138 331.982C76.4707 332.021 75.3322 332.157 74.2101 332.388L73.2318 331.485C71.7112 330.078 69.4849 329.812 67.675 330.827L65.3849 332.11C63.5748 333.119 62.6409 335.155 63.0433 337.192L63.3011 338.498C62.5233 339.335 61.8124 340.235 61.1817 341.189L59.8501 341.239C58.0592 341.309 56.4988 342.358 55.7466 343.935ZM33.7415 317.311L44.7354 314.684C45.5328 314.494 46.0285 313.693 45.8391 312.896C45.6497 312.099 44.8487 311.603 44.0513 311.792L30.484 315.033C30.2169 315.096 29.9617 315.23 29.7533 315.437C29.1753 316.019 29.1796 316.961 29.7607 317.539L39.6502 327.403C40.2312 327.981 41.1723 327.98 41.7512 327.396C42.3292 326.815 42.3249 325.873 41.7439 325.295L33.7415 317.311ZM56.1386 310.584C55.416 310.189 54.5126 310.456 54.1177 311.178L43.1963 331.171C42.8029 331.888 43.0692 332.792 43.7866 333.185C44.5093 333.58 45.4127 333.314 45.8076 332.591L56.7275 312.604C57.1223 311.881 56.856 310.978 56.1386 310.584ZM55.8722 331.977L69.458 328.73C70.2554 328.541 70.7511 327.74 70.5618 326.942C70.4941 326.657 70.3448 326.409 70.1501 326.215L60.2733 316.366C59.6923 315.788 58.7503 315.792 58.1723 316.373C57.5943 316.954 57.5986 317.896 58.1796 318.474L66.182 326.457L55.1881 329.085C54.3907 329.274 53.895 330.075 54.0844 330.873C54.2728 331.674 55.0748 332.166 55.8722 331.977ZM56.6854 352.478C54.9594 351.328 54.1852 349.228 54.7485 347.23L54.8733 346.787L9.54931 334.009L8.01195 339.462C7.31693 341.927 8.76927 344.52 11.2397 345.216L56.8936 358.087C57.0159 357.919 57.1464 357.756 57.2915 357.6L58.1934 356.621C57.9678 355.5 57.8315 354.362 57.7868 353.217L56.6854 352.478Z" fill="#B3CCF0"/>
</g>
<defs>
<clipPath id="clip0_117_1522">
<rect width="304.962" height="304.962" fill="white" transform="translate(99 130.947) rotate(-8.47546)"/>
</clipPath>
<clipPath id="clip1_117_1522">
<rect width="82.9284" height="82.9284" fill="white" transform="translate(105.463) rotate(15)"/>
</clipPath>
<clipPath id="clip2_117_1522">
<rect width="89.849" height="89.849" fill="white" transform="translate(409 132.592) rotate(-16.5487)"/>
</clipPath>
<clipPath id="clip3_117_1522">
<rect width="92.3526" height="92.3526" fill="white" transform="translate(25.0598 279) rotate(15.7445)"/>
</clipPath>
</defs>
</svg>
