<svg width="149" height="38" viewBox="0 0 149 38" fill="none" xmlns="http://www.w3.org/2000/svg">
<g clip-path="url(#clip0_65_468)">
<mask id="mask0_65_468" style="mask-type:luminance" maskUnits="userSpaceOnUse" x="48" y="14" width="101" height="11">
<path d="M149 14.4219H48.3945V24.4721H149V14.4219Z" fill="white"/>
</mask>
<g mask="url(#mask0_65_468)">
<path d="M105.606 19.0008V23.5797H106.292H106.978V19.0008V14.4219H106.292H105.606V19.0008Z" fill="white"/>
<path d="M122.5 15.2436V16.0185H123.186H123.872V15.2436V14.4688H123.186H122.5V15.2436Z" fill="white"/>
<path d="M68.3173 14.9672C67.7067 15.0611 67.2715 15.3053 67.03 15.6904C66.926 15.8595 63.973 23.1858 63.8833 23.5004C63.8597 23.5756 63.921 23.5803 64.6829 23.5803H65.5063L66.2066 21.805C67.9814 17.3341 68.2414 16.7001 68.3457 16.5968C68.4922 16.4512 68.7573 16.4512 68.8993 16.5921C68.9608 16.6532 69.1076 16.9631 69.2305 17.2872C69.3536 17.6112 69.9403 19.1516 70.5366 20.7155L71.6156 23.5568L72.4578 23.5709C73.1205 23.5803 73.2908 23.5709 73.2765 23.5239C72.0463 20.2834 70.3142 15.8125 70.2338 15.6904C70.0918 15.4697 69.8127 15.2255 69.5664 15.1221C69.2636 14.986 68.6721 14.9155 68.3173 14.9672Z" fill="white"/>
<path d="M48.3945 19.3537V23.5804H49.1516H49.9087V19.3537V15.127H49.1516H48.3945V19.3537Z" fill="white"/>
<path d="M52.2796 15.1875C52.218 15.2157 52.1188 15.3049 52.0668 15.3754C51.9673 15.5069 51.9673 15.535 51.9532 19.2546C51.9389 23.3122 51.9389 23.2699 52.1944 23.4578C52.3268 23.5564 52.3696 23.5564 54.4185 23.5564C56.4345 23.5564 56.5244 23.5517 56.9124 23.4531C58.6728 22.9881 59.5151 21.6685 59.5151 19.3532C59.5151 16.9439 58.5685 15.5538 56.6804 15.2016C56.1648 15.103 52.4643 15.0936 52.2796 15.1875ZM56.5101 16.6997C57.5607 16.9721 58.0054 17.7611 58.0009 19.3438C57.9961 20.1562 57.911 20.6353 57.6931 21.0767C57.4375 21.5886 57.0687 21.8704 56.4628 22.0066C56.2216 22.063 55.8809 22.077 54.8208 22.0676L53.4817 22.0536L53.4674 19.4001C53.4626 17.9396 53.4674 16.7185 53.4817 16.6856C53.5146 16.5964 56.1365 16.6058 56.5101 16.6997Z" fill="white"/>
<path d="M73.9579 18.2125C73.9767 20.9551 73.9863 21.3355 74.0571 21.5844C74.3602 22.6411 75.0462 23.2657 76.1395 23.4911C76.5275 23.571 76.8018 23.5804 78.5527 23.5804H80.526V22.8337V22.0822L78.5291 22.0682L76.5275 22.0541L76.2339 21.9226C75.8887 21.7629 75.742 21.6173 75.5952 21.3027L75.4864 21.0678L75.4721 18.0951L75.458 15.127H74.7009H73.9438L73.9579 18.2125Z" fill="white"/>
<path d="M89.8248 15.1739C88.5994 15.4275 87.9556 16.24 87.9556 17.5456C87.9556 18.8089 88.5282 19.565 89.7304 19.8984C89.9572 19.9642 90.3311 19.983 91.6468 20.0065C93.1658 20.0346 93.2934 20.044 93.4922 20.1333C93.7573 20.2554 93.9985 20.5231 94.0412 20.7391C94.0553 20.833 94.0601 21.0303 94.0508 21.1805C94.0224 21.5609 93.852 21.8099 93.5254 21.9648L93.2794 22.0776H90.6907H88.0975V22.829V23.5804H90.6955C92.7967 23.5804 93.3646 23.5663 93.6626 23.5099C94.6375 23.3268 95.2906 22.7256 95.5082 21.8146C95.565 21.5703 95.579 21.3543 95.5602 20.9504C95.513 19.936 95.1579 19.3161 94.4056 18.9357C93.8472 18.6586 93.7146 18.6398 91.9069 18.6069L90.2507 18.5788L89.9668 18.4379C89.6072 18.2594 89.47 18.0246 89.47 17.6019C89.47 17.2309 89.6072 16.9491 89.8628 16.7801L90.0567 16.6533L92.4939 16.6298L94.9355 16.6063L94.9499 15.8643L94.9639 15.127L92.4891 15.1316C91.1262 15.1363 89.9288 15.1551 89.8248 15.1739Z" fill="white"/>
<path d="M118.005 16.1595V16.9579H117.531H117.053L117.068 17.6013L117.082 18.2494L117.545 18.2635L118.005 18.2776V20.0951C118.005 22.0253 118.033 22.3305 118.241 22.7579C118.383 23.0444 118.691 23.3308 118.998 23.4482C119.225 23.5375 119.372 23.5516 120.219 23.5704L121.175 23.5891V22.9786V22.3681L120.527 22.3493C119.755 22.3305 119.609 22.2789 119.467 21.9689C119.386 21.7857 119.377 21.6402 119.377 20.0246V18.2729L120.29 18.2635L121.199 18.2494L121.213 17.6013L121.227 16.9579H120.304H119.377L119.367 16.1689L119.353 15.3846L118.681 15.3705L118.005 15.3564V16.1595Z" fill="white"/>
<path d="M99.0521 17.0049C97.9875 17.2163 97.254 17.9301 96.9701 19.0244C96.7997 19.6912 96.7997 20.8512 96.9701 21.5181C97.2444 22.5795 97.9686 23.3027 98.9717 23.5094C99.4212 23.608 101.432 23.6033 101.887 23.5094C102.563 23.3685 103.145 22.974 103.51 22.4198C104.04 21.6026 104.191 20.0106 103.851 18.8976C103.534 17.8785 102.857 17.2304 101.887 17.0284C101.527 16.9533 99.4072 16.9345 99.0521 17.0049ZM101.745 18.3716C102.114 18.5078 102.403 18.8318 102.54 19.278C102.691 19.7617 102.696 20.7761 102.545 21.2598C102.417 21.659 102.166 21.9643 101.835 22.1286C101.612 22.2367 101.574 22.2414 100.448 22.2414C99.3316 22.2414 99.2793 22.2367 99.0428 22.1286C98.7257 21.9878 98.5034 21.7436 98.3662 21.3913C98.2762 21.1612 98.2526 20.9968 98.2335 20.4427C98.2006 19.4141 98.3378 18.9351 98.7541 18.5829C99.0712 18.3105 99.2464 18.2776 100.434 18.2776C101.385 18.2729 101.513 18.2823 101.745 18.3716Z" fill="white"/>
<path d="M108.838 19.2217C108.857 21.6825 108.857 21.6872 109.136 22.2602C109.297 22.5842 109.761 23.0586 110.083 23.2183C110.211 23.284 110.476 23.3873 110.67 23.4484C111.01 23.5517 111.086 23.5564 112.397 23.5564C113.764 23.5564 113.769 23.5564 114.148 23.4296C115.066 23.1196 115.657 22.4622 115.832 21.5416C115.856 21.4149 115.875 20.3347 115.875 19.1371V16.958H115.213H114.555L114.541 19.1277L114.526 21.3021L114.408 21.5323C114.271 21.7999 114.096 21.9549 113.746 22.1193C113.49 22.2414 113.471 22.2414 112.373 22.2414C111.337 22.2414 111.247 22.2367 111.043 22.1428C110.745 22.0019 110.461 21.7389 110.329 21.4759C110.22 21.2552 110.22 21.2411 110.206 19.1043L110.192 16.958H109.506H108.819L108.838 19.2217Z" fill="white"/>
<path d="M122.5 20.2689V23.5798H123.163H123.825V20.2689V16.958H123.163H122.5V20.2689Z" fill="white"/>
<path d="M127.568 17.0326C126.541 17.2533 125.879 17.9202 125.567 19.0473C125.482 19.3666 125.462 19.5451 125.462 20.2683C125.462 20.9916 125.482 21.17 125.567 21.4894C125.874 22.6071 126.475 23.2271 127.502 23.49C127.81 23.5652 128.027 23.5793 129.031 23.5793C130.318 23.5793 130.635 23.5323 131.193 23.2646C131.78 22.9828 132.272 22.3207 132.494 21.5129C132.589 21.1654 132.603 21.0057 132.603 20.2683C132.603 19.2962 132.547 19.0144 132.244 18.3757C131.898 17.6619 131.297 17.2016 130.474 17.0279C130.024 16.934 128.008 16.934 127.568 17.0326ZM130.493 18.4368C130.786 18.5965 130.966 18.8172 131.122 19.207C131.217 19.4418 131.226 19.5498 131.226 20.2683C131.226 20.9869 131.217 21.0949 131.122 21.3297C130.957 21.743 130.777 21.9543 130.464 22.1046L130.19 22.2408H129.026H127.866L127.582 22.0999C127.067 21.8369 126.859 21.3814 126.821 20.4327C126.792 19.7424 126.873 19.2868 127.081 18.9111C127.223 18.6622 127.545 18.4039 127.819 18.3241C127.9 18.2959 128.477 18.2818 129.102 18.2865L130.237 18.2959L130.493 18.4368Z" fill="white"/>
<path d="M134.685 17.0236C134.491 17.1082 134.34 17.2866 134.283 17.4792C134.254 17.5731 134.235 18.8176 134.235 20.607V23.5797H134.898H135.561V21.0014C135.561 19.5832 135.575 18.3903 135.589 18.348C135.613 18.2823 135.787 18.2729 137.032 18.2729C137.893 18.2729 138.542 18.2917 138.693 18.3245C139.195 18.4325 139.54 18.6815 139.763 19.0947L139.89 19.3295L139.905 21.4523L139.919 23.5797H140.605H141.291L141.277 21.3584C141.258 19.3718 141.248 19.1135 141.173 18.8834C140.856 17.9347 140.255 17.3853 139.204 17.0894C138.873 16.9955 138.712 16.9908 136.838 16.972C135.206 16.9626 134.798 16.972 134.685 17.0236Z" fill="white"/>
<path d="M144.339 17.005C143.918 17.0895 143.586 17.2539 143.34 17.4934C143.014 17.8222 142.891 18.1462 142.858 18.7755C142.805 19.8369 143.241 20.4662 144.197 20.7198C144.523 20.8043 144.76 20.8184 145.877 20.8419C147.396 20.8748 147.467 20.8889 147.604 21.2552C147.699 21.49 147.675 21.8281 147.561 21.9925C147.381 22.2461 147.443 22.2414 145.096 22.2649L142.919 22.2884L142.905 22.9365L142.891 23.5846L145.2 23.5705C147.448 23.5517 147.519 23.5517 147.793 23.4484C148.408 23.223 148.787 22.7862 148.934 22.1334C149.023 21.7295 149.005 21.2129 148.886 20.8231C148.792 20.5225 148.456 20.1421 148.143 19.9825C147.675 19.7523 147.457 19.7195 145.971 19.6866C144.963 19.6678 144.547 19.6396 144.467 19.5974C144.187 19.4424 144.083 18.9446 144.258 18.6017C144.419 18.273 144.429 18.273 146.695 18.273H148.716V17.6155V16.958L146.624 16.9627C145.47 16.9674 144.443 16.9862 144.339 17.005Z" fill="white"/>
<path d="M81.6945 21.8747C81.6757 21.8888 81.6616 22.2833 81.6616 22.7435V23.5794H82.3951H83.1286V22.7106V21.8418H82.428C82.04 21.8418 81.7089 21.8559 81.6945 21.8747Z" fill="white"/>
</g>
<path d="M18.5368 29.803V9.40367C18.5368 9.20848 18.3786 9.05014 18.1834 9.05014H17.4889C17.2935 9.05014 17.1354 9.20848 17.1354 9.40367V29.803C17.1354 29.9984 17.2935 30.1566 17.4889 30.1566H18.1834C18.3786 30.1566 18.5368 29.9984 18.5368 29.803ZM14.9129 31.2649C12.7461 31.9837 10.7531 29.5227 11.1233 26.6385C8.78491 27.7063 6.11278 25.813 6.17449 22.9508H11.6027V23.966C10.4525 24.4114 10.7736 26.1224 12.0045 26.1224C13.2331 26.1224 13.5595 24.4128 12.4067 23.966V22.9508H14.2755C14.389 23.2433 14.6202 23.4748 14.9129 23.5882C14.9129 25.0918 14.9129 29.4957 14.9129 31.2649ZM15.7373 30.8145C15.7305 30.8198 15.7243 30.8269 15.7174 30.8322C15.7174 28.4109 15.7174 26.0045 15.7174 23.5882C16.1351 23.4263 16.4322 23.0234 16.4322 22.5486C16.4322 21.3184 14.7214 20.9956 14.2755 22.1464C13.1638 22.1464 9.72875 22.1464 8.70363 22.1464V16.5404C9.12114 16.3785 9.41841 15.9756 9.41841 15.5008C9.41841 14.8839 8.91839 14.3836 8.30125 14.3836C7.68414 14.3836 7.18412 14.8839 7.18412 15.5008C7.18412 15.9756 7.48172 16.3785 7.89909 16.5404V22.1464H6.26768C6.4864 21.1405 7.05539 20.31 7.7635 19.7927C6.82477 19.1069 6.17083 17.9065 6.17083 16.5481C6.17083 14.1809 8.13111 12.257 10.4058 12.7174V16.2157V17.0201C11.0381 17.0201 12.784 17.0201 13.505 17.0201C13.9521 18.1724 15.6619 17.8469 15.6619 16.6179C15.6619 15.3874 13.9514 15.0654 13.505 16.2157H11.2102V11.1045C11.5404 9.64347 12.474 8.5233 13.6303 8.256C13.5854 7.81628 13.5448 7.36279 13.5134 6.96465C12.3129 7.16355 11.1615 7.97796 10.4058 9.53926C10.1378 10.0926 9.94756 10.7077 9.85588 11.365C7.09843 11.2943 4.8844 13.6748 4.8844 16.5481C4.8844 17.7756 5.28799 18.9034 5.95801 19.7927C3.43328 23.1428 5.63362 28.3169 9.85588 28.2206C10.2066 30.7467 12.002 32.6784 14.1632 32.6784C14.7069 32.6784 15.2398 32.5463 15.7373 32.3076V30.8145ZM13.1966 13.0334C13.1966 14.2639 14.9078 14.5857 15.3531 13.4354H17.2502C17.2502 14.6931 17.2502 18.3136 17.2502 19.3905H12.0404C11.5931 18.2387 9.88338 18.5636 9.88338 19.7927C9.88338 21.0238 11.5938 21.3447 12.0404 20.1949H17.2502C17.2502 20.9325 17.2502 25.3311 17.2502 26.9333H18.5368C18.5368 24.8423 18.5368 15.2196 18.5368 13.4354C18.5368 12.8571 18.5368 12.7758 18.5368 12.6312H17.2502H17.0576H15.3531C14.9086 11.4835 13.1966 11.8007 13.1966 13.0334ZM32.5671 19.7913C32.5657 19.4057 32.2525 19.0919 31.8691 19.0919H31.5851C31.5421 19.0919 31.4999 19.0959 31.4873 19.1003C31.11 19.1106 30.751 19.1114 30.4853 19.0118C30.2703 18.9312 30.0743 18.7734 29.9329 18.5664C29.7147 18.2491 29.6127 17.8127 29.6208 17.2312C29.6276 16.7641 29.6953 16.2921 29.7673 15.7922C29.8058 15.5265 29.8438 15.2603 29.8736 14.9939C30.1904 12.1245 28.5371 9.2448 25.6616 7.65758C24.1426 6.81883 22.3638 6.27278 20.6535 6.11973C20.4655 6.10388 20.285 6.15994 20.1409 6.28212C19.9992 6.40272 19.912 6.57095 19.8955 6.75661C19.8791 6.9421 19.9348 7.12335 20.0527 7.26687C20.1725 7.41252 20.3419 7.50226 20.5291 7.51882C22.0517 7.65494 23.6361 8.14158 24.9902 8.88917C27.368 10.2008 28.7401 12.5362 28.4854 14.8385C28.4581 15.0898 28.4218 15.3403 28.3853 15.5912C28.3102 16.113 28.2326 16.6527 28.2245 17.2113C28.2124 18.0937 28.3951 18.7981 28.7834 19.3641C28.8958 19.5283 29.031 19.6732 29.175 19.8067C29.031 19.9401 28.8961 20.0847 28.7836 20.2489C28.3954 20.8156 28.2124 21.5203 28.2245 22.4031C28.2326 22.9603 28.3102 23.5 28.3858 24.0274C28.4224 24.2763 28.4584 24.525 28.4854 24.7752C28.7401 27.0779 27.368 29.4133 24.9902 30.7245C23.6361 31.4721 22.0517 31.9587 20.5293 32.0948C20.3419 32.1113 20.1725 32.201 20.0526 32.3472C19.9348 32.4903 19.8791 32.6716 19.8955 32.8572C19.9283 33.2218 20.227 33.4965 20.5905 33.4965C20.6112 33.4965 20.6318 33.4959 20.6531 33.494C22.3639 33.341 24.1426 32.7948 25.6616 31.9562C28.5371 30.37 30.1904 27.4903 29.8736 24.6195C29.8438 24.3534 29.8058 24.0872 29.7668 23.8178C29.6953 23.3189 29.6276 22.8482 29.6208 22.3836C29.6127 21.8019 29.7147 21.3643 29.9332 21.0462C30.0743 20.8403 30.2703 20.6824 30.4848 20.6015C30.6754 20.5301 30.918 20.5107 31.1716 20.5086C31.1831 20.5086 31.1969 20.5093 31.2084 20.5093C31.2247 20.5093 31.2399 20.5086 31.2562 20.5084C31.3245 20.5088 31.3934 20.5095 31.4623 20.5112C31.5019 20.5178 31.5432 20.5218 31.5851 20.5218H31.8691C32.2525 20.5218 32.5657 20.208 32.5671 19.8224C32.5671 19.8171 32.5657 19.8121 32.5657 19.8068C32.5657 19.8016 32.5671 19.7966 32.5671 19.7913ZM17.4566 32.3472C17.3367 32.201 17.1675 32.1113 16.9799 32.0948C15.9567 32.0034 14.9071 31.7504 13.9165 31.3692C13.8879 31.417 13.8622 31.4664 13.8301 31.5123C13.573 31.8805 13.3419 32.2277 13.0894 32.5519C14.2943 33.0526 15.5935 33.3809 16.8563 33.494C16.8774 33.4959 16.898 33.4965 16.9187 33.4965C17.2822 33.4965 17.5809 33.2218 17.6137 32.8572C17.6301 32.6716 17.5744 32.4903 17.4566 32.3472ZM12.2478 9.05014C12.3375 8.99586 12.4261 8.9403 12.519 8.88917C13.8733 8.14158 15.4577 7.65494 16.98 7.51882C17.1675 7.50226 17.3367 7.41252 17.4565 7.26687C17.5744 7.12335 17.6301 6.9421 17.6137 6.75661C17.5972 6.57095 17.51 6.40272 17.3683 6.28212C17.2242 6.15994 17.0437 6.10388 16.8559 6.11973C15.2648 6.26221 13.6169 6.74815 12.1717 7.48992C12.3481 7.99295 12.3898 8.53126 12.2478 9.05014ZM18.5366 36.8206C8.99562 36.8206 1.23348 29.0583 1.23348 19.5173C1.23348 9.97636 8.99562 2.21392 18.5366 2.21392C28.0775 2.21392 35.84 9.97636 35.84 19.5173C35.84 29.0583 28.0775 36.8206 18.5366 36.8206ZM18.5366 1.0957C8.37921 1.0957 0.115234 9.35958 0.115234 19.5173C0.115234 29.6751 8.37921 37.9389 18.5366 37.9389C28.6945 37.9389 36.9584 29.6751 36.9584 19.5173C36.9584 9.35958 28.6945 1.0957 18.5366 1.0957Z" fill="white"/>
</g>
<defs>
<clipPath id="clip0_65_468">
<rect width="149" height="37.1094" fill="white" transform="translate(0 0.837891)"/>
</clipPath>
</defs>
</svg>
