<svg width="212" height="70" viewBox="0 0 212 70" fill="none" xmlns="http://www.w3.org/2000/svg">
<path d="M62.7966 11.5784L56.2341 5.01587C55.3796 4.16138 53.9954 4.16138 53.1409 5.01587L46.5784 11.5784C45.7239 12.4329 45.7239 13.8171 46.5784 14.6716L52.5 20.5933V24.0625H45.9375C44.7284 24.0625 43.75 25.0409 43.75 26.25V32.8125H48.125V28.4375H54.6875C55.8966 28.4375 56.875 27.4591 56.875 26.25V20.5933L62.7966 14.6716C63.6511 13.8171 63.6511 12.4329 62.7966 11.5784Z" fill="#131414"/>
<path d="M37.1875 24.0625H30.625V19.6875H32.8125C34.0205 19.6875 35 18.7091 35 17.5V8.75C35 7.54089 34.0205 6.5625 32.8125 6.5625H24.0625C22.8545 6.5625 21.875 7.54089 21.875 8.75V17.5C21.875 18.7091 22.8545 19.6875 24.0625 19.6875H26.25V26.25C26.25 27.4591 27.2295 28.4375 28.4375 28.4375H35V32.8125H39.375V26.25C39.375 25.0409 38.3966 24.0625 37.1875 24.0625Z" fill="#131414"/>
<path d="M10.9375 10.9371C13.2771 10.9371 15.518 11.6467 17.5 12.9658V10.9375C17.5 6.89092 13.8191 3.68831 9.62959 4.50221C6.51403 5.1073 4.375 8.02018 4.375 11.194V12.9658C6.35702 11.6467 8.59793 10.9371 10.9375 10.9371Z" fill="#131414"/>
<path d="M10.9375 48.1245C8.61087 48.1245 6.39093 48.9997 4.51465 50.6057L9.11742 60.2758C9.52331 60.8846 10.2058 61.2499 10.9375 61.2499C11.6692 61.2499 12.3517 60.8846 12.7576 60.2758L17.3603 50.6057C15.4841 48.9997 13.2641 48.1245 10.9375 48.1245Z" fill="#131414"/>
<path d="M6.5625 14.2607C5.79826 14.661 5.05686 15.1285 4.375 15.7314V47.9658C5.07154 47.5022 5.80908 47.1432 6.5625 46.8345V14.2607Z" fill="#131414"/>
<path d="M13.125 13.42C12.4096 13.2448 11.6826 13.1245 10.9375 13.1245C10.1924 13.1245 9.46537 13.2448 8.75 13.42V46.1733C9.46777 46.0335 10.1948 45.937 10.9375 45.937C11.6802 45.937 12.4072 46.0335 13.125 46.1733V13.42Z" fill="#131414"/>
<path d="M15.3125 14.2607V46.8345C16.0659 47.1432 16.8035 47.5022 17.5 47.9658V15.7314C16.8181 15.1285 16.0767 14.661 15.3125 14.2607Z" fill="#131414"/>
<path d="M59.0625 65.625H24.0625C20.4381 65.625 17.5 62.6869 17.5 59.0625L65.625 59.0625C65.625 62.6869 62.6869 65.625 59.0625 65.625Z" fill="#131414"/>
<path d="M56.875 35H26.25C23.8338 35 21.875 36.9587 21.875 39.375V56.875H61.25V39.375C61.25 36.9587 59.2912 35 56.875 35ZM35 52.5C35 50.0837 36.9588 48.125 39.375 48.125H41.5625C39.1463 48.125 37.1875 46.1662 37.1875 43.75C37.1875 41.3337 39.1463 39.375 41.5625 39.375C43.9787 39.375 45.9375 41.3337 45.9375 43.75C45.9375 46.1662 43.9787 48.125 41.5625 48.125H43.75C46.1662 48.125 48.125 50.0837 48.125 52.5H35Z" fill="#131414"/>
<path d="M97.325 34.55H106.05V37.3H97.325V34.55ZM97.6 44H94.35V26.5H107.125V29.225H97.6V44ZM109.968 44V30.65H112.943V34.325L112.593 33.25C112.993 32.35 113.618 31.6667 114.468 31.2C115.335 30.7333 116.41 30.5 117.693 30.5V33.475C117.56 33.4417 117.435 33.425 117.318 33.425C117.201 33.4083 117.085 33.4 116.968 33.4C115.785 33.4 114.843 33.75 114.143 34.45C113.443 35.1333 113.093 36.1583 113.093 37.525V44H109.968ZM126.222 44.175C124.855 44.175 123.639 43.8833 122.572 43.3C121.505 42.7 120.664 41.8833 120.047 40.85C119.43 39.8167 119.122 38.6417 119.122 37.325C119.122 35.9917 119.43 34.8167 120.047 33.8C120.664 32.7667 121.505 31.9583 122.572 31.375C123.639 30.7917 124.855 30.5 126.222 30.5C127.605 30.5 128.83 30.7917 129.897 31.375C130.98 31.9583 131.822 32.7583 132.422 33.775C133.039 34.7917 133.347 35.975 133.347 37.325C133.347 38.6417 133.039 39.8167 132.422 40.85C131.822 41.8833 130.98 42.7 129.897 43.3C128.83 43.8833 127.605 44.175 126.222 44.175ZM126.222 41.5C126.989 41.5 127.672 41.3333 128.272 41C128.872 40.6667 129.339 40.1833 129.672 39.55C130.022 38.9167 130.197 38.175 130.197 37.325C130.197 36.4583 130.022 35.7167 129.672 35.1C129.339 34.4667 128.872 33.9833 128.272 33.65C127.672 33.3167 126.997 33.15 126.247 33.15C125.48 33.15 124.797 33.3167 124.197 33.65C123.614 33.9833 123.147 34.4667 122.797 35.1C122.447 35.7167 122.272 36.4583 122.272 37.325C122.272 38.175 122.447 38.9167 122.797 39.55C123.147 40.1833 123.614 40.6667 124.197 41C124.797 41.3333 125.472 41.5 126.222 41.5ZM143.91 30.5C144.977 30.5 145.927 30.7083 146.76 31.125C147.61 31.5417 148.277 32.1833 148.76 33.05C149.243 33.9 149.485 35 149.485 36.35V44H146.36V36.75C146.36 35.5667 146.077 34.6833 145.51 34.1C144.96 33.5167 144.185 33.225 143.185 33.225C142.452 33.225 141.802 33.375 141.235 33.675C140.668 33.975 140.227 34.425 139.91 35.025C139.61 35.6083 139.46 36.35 139.46 37.25V44H136.335V30.65H139.31V34.25L138.785 33.15C139.252 32.3 139.927 31.65 140.81 31.2C141.71 30.7333 142.743 30.5 143.91 30.5ZM158.474 44.175C157.008 44.175 155.874 43.8 155.074 43.05C154.274 42.2833 153.874 41.1583 153.874 39.675V27.7H156.999V39.6C156.999 40.2333 157.158 40.725 157.474 41.075C157.808 41.425 158.266 41.6 158.849 41.6C159.549 41.6 160.133 41.4167 160.599 41.05L161.474 43.275C161.108 43.575 160.658 43.8 160.124 43.95C159.591 44.1 159.041 44.175 158.474 44.175ZM151.674 33.25V30.75H160.574V33.25H151.674ZM169.881 44.175C168.397 44.175 167.097 43.8833 165.981 43.3C164.881 42.7 164.022 41.8833 163.406 40.85C162.806 39.8167 162.506 38.6417 162.506 37.325C162.506 35.9917 162.797 34.8167 163.381 33.8C163.981 32.7667 164.797 31.9583 165.831 31.375C166.881 30.7917 168.072 30.5 169.406 30.5C170.706 30.5 171.864 30.7833 172.881 31.35C173.897 31.9167 174.697 32.7167 175.281 33.75C175.864 34.7833 176.156 36 176.156 37.4C176.156 37.5333 176.147 37.6833 176.131 37.85C176.131 38.0167 176.122 38.175 176.106 38.325H164.981V36.25H174.456L173.231 36.9C173.247 36.1333 173.089 35.4583 172.756 34.875C172.422 34.2917 171.964 33.8333 171.381 33.5C170.814 33.1667 170.156 33 169.406 33C168.639 33 167.964 33.1667 167.381 33.5C166.814 33.8333 166.364 34.3 166.031 34.9C165.714 35.4833 165.556 36.175 165.556 36.975V37.475C165.556 38.275 165.739 38.9833 166.106 39.6C166.472 40.2167 166.989 40.6917 167.656 41.025C168.322 41.3583 169.089 41.525 169.956 41.525C170.706 41.525 171.381 41.4083 171.981 41.175C172.581 40.9417 173.114 40.575 173.581 40.075L175.256 42C174.656 42.7 173.897 43.2417 172.981 43.625C172.081 43.9917 171.047 44.175 169.881 44.175ZM186.732 30.5C187.799 30.5 188.749 30.7083 189.582 31.125C190.432 31.5417 191.099 32.1833 191.582 33.05C192.066 33.9 192.307 35 192.307 36.35V44H189.182V36.75C189.182 35.5667 188.899 34.6833 188.332 34.1C187.782 33.5167 187.007 33.225 186.007 33.225C185.274 33.225 184.624 33.375 184.057 33.675C183.491 33.975 183.049 34.425 182.732 35.025C182.432 35.6083 182.282 36.35 182.282 37.25V44H179.157V30.65H182.132V34.25L181.607 33.15C182.074 32.3 182.749 31.65 183.632 31.2C184.532 30.7333 185.566 30.5 186.732 30.5ZM201.946 44.175C200.663 44.175 199.504 43.8917 198.471 43.325C197.454 42.7417 196.654 41.9417 196.071 40.925C195.488 39.9083 195.196 38.7083 195.196 37.325C195.196 35.9417 195.488 34.7417 196.071 33.725C196.654 32.7083 197.454 31.9167 198.471 31.35C199.504 30.7833 200.663 30.5 201.946 30.5C203.063 30.5 204.063 30.75 204.946 31.25C205.829 31.7333 206.529 32.475 207.046 33.475C207.563 34.475 207.821 35.7583 207.821 37.325C207.821 38.875 207.571 40.1583 207.071 41.175C206.571 42.175 205.879 42.925 204.996 43.425C204.113 43.925 203.096 44.175 201.946 44.175ZM202.321 41.5C203.071 41.5 203.738 41.3333 204.321 41C204.921 40.6667 205.396 40.1833 205.746 39.55C206.113 38.9167 206.296 38.175 206.296 37.325C206.296 36.4583 206.113 35.7167 205.746 35.1C205.396 34.4667 204.921 33.9833 204.321 33.65C203.738 33.3167 203.071 33.15 202.321 33.15C201.571 33.15 200.896 33.3167 200.296 33.65C199.713 33.9833 199.238 34.4667 198.871 35.1C198.521 35.7167 198.346 36.4583 198.346 37.325C198.346 38.175 198.521 38.9167 198.871 39.55C199.238 40.1833 199.713 40.6667 200.296 41C200.896 41.3333 201.571 41.5 202.321 41.5ZM206.371 44V40.85L206.496 37.3L206.246 33.75V25.45H209.346V44H206.371Z" fill="#131414"/>
</svg>
