<svg width="206" height="70" viewBox="0 0 206 70" fill="none" xmlns="http://www.w3.org/2000/svg">
<path d="M2.1875 19.6875V60.1562C2.18845 61.0262 2.53446 61.8602 3.1496 62.4754C3.76475 63.0905 4.5988 63.4366 5.46875 63.4375H64.5312C65.4012 63.4366 66.2352 63.0905 66.8504 62.4754C67.4655 61.8602 67.8116 61.0262 67.8125 60.1562V19.6875H2.1875ZM54.6875 42.6562C54.6866 43.5262 54.3405 44.3602 53.7254 44.9754C53.1102 45.5905 52.2762 45.9366 51.4062 45.9375H50.807C50.4489 47.2314 49.9315 48.4758 49.2668 49.6423L50.4679 50.8434C50.6711 51.0465 50.8323 51.2876 50.9423 51.5531C51.0523 51.8185 51.1089 52.1031 51.1088 52.3904C51.1088 52.6777 51.0521 52.9622 50.942 53.2276C50.832 53.493 50.6707 53.7341 50.4674 53.9372L47.3741 57.0305C46.9575 57.4284 46.4036 57.6505 45.8275 57.6505C45.2514 57.6505 44.6974 57.4284 44.2809 57.0305L43.0798 55.8294C41.9133 56.4941 40.6689 57.0114 39.375 57.3695V59.0625C39.3744 59.6425 39.1438 60.1985 38.7337 60.6087C38.3235 61.0188 37.7675 61.2494 37.1875 61.25H32.8125C32.2325 61.2494 31.6765 61.0188 31.2663 60.6087C30.8562 60.1985 30.6256 59.6425 30.625 59.0625V57.3695C29.3311 57.0114 28.0867 56.494 26.9202 55.8293L25.7191 57.0304C25.3088 57.4403 24.7525 57.6705 24.1725 57.6705C23.5925 57.6705 23.0363 57.4403 22.6259 57.0304L19.5321 53.9366C19.1225 53.5261 18.8924 52.9699 18.8924 52.39C18.8924 51.8101 19.1225 51.2538 19.5321 50.8434L20.7332 49.6423C20.0685 48.4758 19.5511 47.2314 19.193 45.9375H17.5C16.92 45.9369 16.364 45.7063 15.9538 45.2962C15.5437 44.886 15.3131 44.33 15.3125 43.75V39.375C15.3131 38.795 15.5437 38.239 15.9538 37.8288C16.364 37.4187 16.92 37.1881 17.5 37.1875H19.193C19.5511 35.8936 20.0685 34.6492 20.7332 33.4827L19.5321 32.2816C19.1225 31.8712 18.8924 31.3149 18.8924 30.735C18.8924 30.1551 19.1225 29.5989 19.5321 29.1884L22.6259 26.0946C23.0363 25.6847 23.5925 25.4545 24.1725 25.4545C24.7525 25.4545 25.3088 25.6847 25.7191 26.0946L26.9202 27.2957C28.0867 26.631 29.3311 26.1136 30.625 25.7555V24.0625C30.6256 23.4825 30.8562 22.9265 31.2663 22.5163C31.6765 22.1062 32.2325 21.8756 32.8125 21.875H37.1875C37.7675 21.8756 38.3235 22.1062 38.7337 22.5163C39.1438 22.9265 39.3744 23.4825 39.375 24.0625V25.7555C40.6689 26.1136 41.9133 26.631 43.0798 27.2957L44.2809 26.0946C44.6975 25.6965 45.2516 25.4743 45.8279 25.4744C46.4041 25.4745 46.9582 25.6968 47.3746 26.0951L50.4679 29.1884C50.6711 29.3914 50.8323 29.6326 50.9422 29.8979C51.0522 30.1633 51.1088 30.4478 51.1088 30.735C51.1088 31.0223 51.0522 31.3067 50.9422 31.5721C50.8323 31.8375 50.6711 32.0786 50.4679 32.2816L49.2669 33.4827C49.9316 34.6492 50.4489 35.8936 50.807 37.1875H51.4062C52.2762 37.1884 53.1102 37.5345 53.7254 38.1496C54.3405 38.7648 54.6866 39.5988 54.6875 40.4688V42.6562ZM67.8125 17.5V9.84375C67.8116 8.9738 67.4655 8.13975 66.8504 7.5246C66.2352 6.90946 65.4012 6.56345 64.5312 6.5625H5.46875C4.5988 6.56345 3.76475 6.90946 3.1496 7.5246C2.53446 8.13975 2.18845 8.9738 2.1875 9.84375V17.5H67.8125ZM60.1562 8.75C60.8052 8.75 61.4396 8.94244 61.9792 9.30299C62.5188 9.66354 62.9394 10.176 63.1877 10.7756C63.4361 11.3751 63.5011 12.0349 63.3745 12.6714C63.2478 13.3079 62.9353 13.8926 62.4764 14.3514C62.0176 14.8103 61.4329 15.1228 60.7964 15.2495C60.1599 15.3761 59.5001 15.3111 58.9006 15.0627C58.301 14.8144 57.7885 14.3938 57.428 13.8542C57.0674 13.3146 56.875 12.6802 56.875 12.0312C56.8759 11.1613 57.222 10.3273 57.8371 9.7121C58.4523 9.09696 59.2863 8.75095 60.1562 8.75ZM52.5 8.75C53.149 8.75 53.7834 8.94244 54.323 9.30299C54.8626 9.66354 55.2831 10.176 55.5315 10.7756C55.7798 11.3751 55.8448 12.0349 55.7182 12.6714C55.5916 13.3079 55.2791 13.8926 54.8202 14.3514C54.3613 14.8103 53.7766 15.1228 53.1401 15.2495C52.5036 15.3761 51.8439 15.3111 51.2443 15.0627C50.6448 14.8144 50.1323 14.3938 49.7717 13.8542C49.4112 13.3146 49.2188 12.6802 49.2188 12.0312C49.2197 11.1613 49.5657 10.3273 50.1809 9.7121C50.796 9.09696 51.6301 8.75095 52.5 8.75ZM9.84375 10.9375H42.6562C42.9463 10.9375 43.2245 11.0527 43.4296 11.2579C43.6348 11.463 43.75 11.7412 43.75 12.0312C43.75 12.3213 43.6348 12.5995 43.4296 12.8046C43.2245 13.0098 42.9463 13.125 42.6562 13.125H9.84375C9.55367 13.125 9.27547 13.0098 9.07035 12.8046C8.86523 12.5995 8.75 12.3213 8.75 12.0312C8.75 11.7412 8.86523 11.463 9.07035 11.2579C9.27547 11.0527 9.55367 10.9375 9.84375 10.9375ZM35 29.5312C32.6204 29.5312 30.2943 30.2369 28.3158 31.5589C26.3373 32.8809 24.7952 34.7599 23.8846 36.9583C22.974 39.1568 22.7357 41.5758 23.1999 43.9097C23.6642 46.2435 24.81 48.3873 26.4926 50.0699C28.1752 51.7525 30.319 52.8983 32.6528 53.3626C34.9867 53.8268 37.4057 53.5885 39.6042 52.6779C41.8026 51.7673 43.6816 50.2252 45.0036 48.2467C46.3256 46.2682 47.0312 43.9421 47.0312 41.5625C47.0276 38.3727 45.7589 35.3146 43.5034 33.0591C41.2479 30.8036 38.1898 29.5349 35 29.5312ZM31.864 43.5754C31.9656 43.6769 32.0461 43.7975 32.1011 43.9302C32.156 44.0628 32.1843 44.2051 32.1843 44.3487C32.1843 44.4923 32.156 44.6345 32.1011 44.7672C32.0461 44.8999 31.9656 45.0204 31.864 45.122C31.7625 45.2235 31.6419 45.3041 31.5092 45.3591C31.3765 45.414 31.2343 45.4423 31.0907 45.4423C30.9471 45.4423 30.8049 45.414 30.6722 45.3591C30.5395 45.3041 30.4189 45.2235 30.3174 45.122L27.6642 42.4683C27.5626 42.3667 27.482 42.2462 27.4271 42.1135C27.3721 41.9808 27.3438 41.8386 27.3438 41.6949C27.3438 41.5513 27.3721 41.4091 27.4271 41.2764C27.482 41.1437 27.5626 41.0232 27.6642 40.9216L30.3174 38.2684C30.5225 38.0633 30.8007 37.9481 31.0907 37.9481C31.3808 37.9481 31.6589 38.0633 31.864 38.2684C32.0691 38.4735 32.1844 38.7517 32.1844 39.0417C32.1844 39.3318 32.0691 39.61 31.864 39.8151L29.9842 41.6949L31.864 43.5754ZM37.2292 39.6834L34.7277 44.6865C34.5977 44.9456 34.3702 45.1426 34.0951 45.2341C33.8201 45.3257 33.5199 45.3043 33.2606 45.1746C33.0013 45.045 32.8041 44.8177 32.7122 44.5427C32.6204 44.2677 32.6415 43.9675 32.7709 43.7081L35.2723 38.705C35.4023 38.4459 35.6298 38.2489 35.9049 38.1573C36.1799 38.0658 36.4801 38.0872 36.7394 38.2169C36.9987 38.3465 37.1959 38.5738 37.2878 38.8488C37.3796 39.1238 37.3585 39.424 37.2292 39.6834ZM42.3358 42.4683L39.6826 45.122C39.4775 45.3271 39.1993 45.4423 38.9093 45.4423C38.6192 45.4423 38.3411 45.3271 38.136 45.122C37.9309 44.9169 37.8156 44.6387 37.8156 44.3487C37.8156 44.0586 37.9309 43.7805 38.136 43.5754L40.0158 41.6949L38.136 39.8151C37.9309 39.61 37.8156 39.3318 37.8156 39.0417C37.8156 38.7517 37.9309 38.4735 38.136 38.2684C38.3411 38.0633 38.6192 37.9481 38.9093 37.9481C39.1993 37.9481 39.4775 38.0633 39.6826 38.2684L42.3358 40.9216C42.4374 41.0232 42.518 41.1437 42.5729 41.2764C42.6279 41.4091 42.6562 41.5513 42.6562 41.6949C42.6562 41.8386 42.6279 41.9808 42.5729 42.1135C42.518 42.2462 42.4374 42.3667 42.3358 42.4683Z" fill="#131414"/>
<path d="M94.35 44V26.5H102.55C104.65 26.5 106.25 26.9167 107.35 27.75C108.45 28.5667 109 29.6667 109 31.05C109 31.9833 108.783 32.7833 108.35 33.45C107.917 34.1 107.333 34.6083 106.6 34.975C105.883 35.325 105.1 35.5 104.25 35.5L104.7 34.6C105.683 34.6 106.567 34.7833 107.35 35.15C108.133 35.5 108.75 36.0167 109.2 36.7C109.667 37.3833 109.9 38.2333 109.9 39.25C109.9 40.75 109.325 41.9167 108.175 42.75C107.025 43.5833 105.317 44 103.05 44H94.35ZM97.6 41.45H102.85C104.067 41.45 105 41.25 105.65 40.85C106.3 40.45 106.625 39.8083 106.625 38.925C106.625 38.0583 106.3 37.425 105.65 37.025C105 36.6083 104.067 36.4 102.85 36.4H97.35V33.875H102.2C103.333 33.875 104.2 33.675 104.8 33.275C105.417 32.875 105.725 32.275 105.725 31.475C105.725 30.6583 105.417 30.05 104.8 29.65C104.2 29.25 103.333 29.05 102.2 29.05H97.6V41.45ZM121.294 44V41.3L121.119 40.725V36C121.119 35.0833 120.844 34.375 120.294 33.875C119.744 33.3583 118.91 33.1 117.794 33.1C117.044 33.1 116.302 33.2167 115.569 33.45C114.852 33.6833 114.244 34.0083 113.744 34.425L112.519 32.15C113.235 31.6 114.085 31.1917 115.069 30.925C116.069 30.6417 117.102 30.5 118.169 30.5C120.102 30.5 121.594 30.9667 122.644 31.9C123.71 32.8167 124.244 34.2417 124.244 36.175V44H121.294ZM117.094 44.175C116.094 44.175 115.219 44.0083 114.469 43.675C113.719 43.325 113.135 42.85 112.719 42.25C112.319 41.6333 112.119 40.9417 112.119 40.175C112.119 39.425 112.294 38.75 112.644 38.15C113.01 37.55 113.602 37.075 114.419 36.725C115.235 36.375 116.319 36.2 117.669 36.2H121.544V38.275H117.894C116.827 38.275 116.11 38.45 115.744 38.8C115.377 39.1333 115.194 39.55 115.194 40.05C115.194 40.6167 115.419 41.0667 115.869 41.4C116.319 41.7333 116.944 41.9 117.744 41.9C118.51 41.9 119.194 41.725 119.794 41.375C120.41 41.025 120.852 40.5083 121.119 39.825L121.644 41.7C121.344 42.4833 120.802 43.0917 120.019 43.525C119.252 43.9583 118.277 44.175 117.094 44.175ZM134.404 44.175C133.004 44.175 131.754 43.8833 130.654 43.3C129.57 42.7 128.72 41.8833 128.104 40.85C127.487 39.8167 127.179 38.6417 127.179 37.325C127.179 35.9917 127.487 34.8167 128.104 33.8C128.72 32.7667 129.57 31.9583 130.654 31.375C131.754 30.7917 133.004 30.5 134.404 30.5C135.704 30.5 136.845 30.7667 137.829 31.3C138.829 31.8167 139.587 32.5833 140.104 33.6L137.704 35C137.304 34.3667 136.812 33.9 136.229 33.6C135.662 33.3 135.045 33.15 134.379 33.15C133.612 33.15 132.92 33.3167 132.304 33.65C131.687 33.9833 131.204 34.4667 130.854 35.1C130.504 35.7167 130.329 36.4583 130.329 37.325C130.329 38.1917 130.504 38.9417 130.854 39.575C131.204 40.1917 131.687 40.6667 132.304 41C132.92 41.3333 133.612 41.5 134.379 41.5C135.045 41.5 135.662 41.35 136.229 41.05C136.812 40.75 137.304 40.2833 137.704 39.65L140.104 41.05C139.587 42.05 138.829 42.825 137.829 43.375C136.845 43.9083 135.704 44.175 134.404 44.175ZM145.233 41.025L145.308 37.1L152.283 30.65H156.033L150.108 36.6L148.458 37.975L145.233 41.025ZM142.683 44V25.45H145.808V44H142.683ZM152.758 44L147.883 37.975L149.858 35.475L156.558 44H152.758ZM164.314 44.175C162.831 44.175 161.531 43.8833 160.414 43.3C159.314 42.7 158.456 41.8833 157.839 40.85C157.239 39.8167 156.939 38.6417 156.939 37.325C156.939 35.9917 157.231 34.8167 157.814 33.8C158.414 32.7667 159.231 31.9583 160.264 31.375C161.314 30.7917 162.506 30.5 163.839 30.5C165.139 30.5 166.298 30.7833 167.314 31.35C168.331 31.9167 169.131 32.7167 169.714 33.75C170.298 34.7833 170.589 36 170.589 37.4C170.589 37.5333 170.581 37.6833 170.564 37.85C170.564 38.0167 170.556 38.175 170.539 38.325H159.414V36.25H168.889L167.664 36.9C167.681 36.1333 167.523 35.4583 167.189 34.875C166.856 34.2917 166.398 33.8333 165.814 33.5C165.248 33.1667 164.589 33 163.839 33C163.073 33 162.398 33.1667 161.814 33.5C161.248 33.8333 160.798 34.3 160.464 34.9C160.148 35.4833 159.989 36.175 159.989 36.975V37.475C159.989 38.275 160.173 38.9833 160.539 39.6C160.906 40.2167 161.423 40.6917 162.089 41.025C162.756 41.3583 163.523 41.525 164.389 41.525C165.139 41.525 165.814 41.4083 166.414 41.175C167.014 40.9417 167.548 40.575 168.014 40.075L169.689 42C169.089 42.7 168.331 43.2417 167.414 43.625C166.514 43.9917 165.481 44.175 164.314 44.175ZM181.166 30.5C182.233 30.5 183.183 30.7083 184.016 31.125C184.866 31.5417 185.533 32.1833 186.016 33.05C186.499 33.9 186.741 35 186.741 36.35V44H183.616V36.75C183.616 35.5667 183.333 34.6833 182.766 34.1C182.216 33.5167 181.441 33.225 180.441 33.225C179.708 33.225 179.058 33.375 178.491 33.675C177.924 33.975 177.483 34.425 177.166 35.025C176.866 35.6083 176.716 36.35 176.716 37.25V44H173.591V30.65H176.566V34.25L176.041 33.15C176.508 32.3 177.183 31.65 178.066 31.2C178.966 30.7333 179.999 30.5 181.166 30.5ZM196.38 44.175C195.096 44.175 193.938 43.8917 192.905 43.325C191.888 42.7417 191.088 41.9417 190.505 40.925C189.921 39.9083 189.63 38.7083 189.63 37.325C189.63 35.9417 189.921 34.7417 190.505 33.725C191.088 32.7083 191.888 31.9167 192.905 31.35C193.938 30.7833 195.096 30.5 196.38 30.5C197.496 30.5 198.496 30.75 199.38 31.25C200.263 31.7333 200.963 32.475 201.48 33.475C201.996 34.475 202.255 35.7583 202.255 37.325C202.255 38.875 202.005 40.1583 201.505 41.175C201.005 42.175 200.313 42.925 199.43 43.425C198.546 43.925 197.53 44.175 196.38 44.175ZM196.755 41.5C197.505 41.5 198.171 41.3333 198.755 41C199.355 40.6667 199.83 40.1833 200.18 39.55C200.546 38.9167 200.73 38.175 200.73 37.325C200.73 36.4583 200.546 35.7167 200.18 35.1C199.83 34.4667 199.355 33.9833 198.755 33.65C198.171 33.3167 197.505 33.15 196.755 33.15C196.005 33.15 195.33 33.3167 194.73 33.65C194.146 33.9833 193.671 34.4667 193.305 35.1C192.955 35.7167 192.78 36.4583 192.78 37.325C192.78 38.175 192.955 38.9167 193.305 39.55C193.671 40.1833 194.146 40.6667 194.73 41C195.33 41.3333 196.005 41.5 196.755 41.5ZM200.805 44V40.85L200.93 37.3L200.68 33.75V25.45H203.78V44H200.805Z" fill="#131414"/>
</svg>
