<svg width="379" height="70" viewBox="0 0 379 70" fill="none" xmlns="http://www.w3.org/2000/svg">
<g clip-path="url(#clip0_201_1427)">
<path d="M21.1176 23.7685C21.3035 23.9544 21.4197 24.2142 21.4197 24.4972C21.4197 24.7802 21.3035 25.0399 21.1176 25.2259C20.9316 25.4118 20.676 25.528 20.3889 25.528C20.1059 25.528 19.8461 25.4118 19.6602 25.2259C19.4742 25.0399 19.358 24.7802 19.358 24.4972C19.358 24.2142 19.4742 23.9544 19.6602 23.7685C19.8461 23.5825 20.1059 23.4663 20.3889 23.4663C20.676 23.4663 20.9316 23.5825 21.1176 23.7685ZM20.3889 44.4759C20.1059 44.4759 19.8461 44.588 19.6602 44.7739C19.4742 44.964 19.358 45.2196 19.358 45.5026C19.358 45.7897 19.4742 46.0454 19.6602 46.2355C19.8461 46.4214 20.1059 46.5335 20.3889 46.5335C20.676 46.5335 20.9316 46.4214 21.1176 46.2355C21.3035 46.0454 21.4197 45.7897 21.4197 45.5026C21.4197 45.2196 21.3035 44.964 21.1176 44.7739C20.9316 44.588 20.676 44.4759 20.3889 44.4759ZM20.3889 33.969C20.1059 33.969 19.8461 34.0853 19.6602 34.2712C19.4742 34.4571 19.358 34.7169 19.358 34.9999C19.358 35.287 19.4742 35.5427 19.6602 35.7286C19.8461 35.9146 20.1059 36.0308 20.3889 36.0308C20.676 36.0308 20.9316 35.9146 21.1176 35.7286C21.3035 35.5427 21.4197 35.287 21.4197 34.9999C21.4197 34.7169 21.3035 34.4571 21.1176 34.2712C20.9316 34.0853 20.676 33.969 20.3889 33.969ZM30.4814 43.5024V60.0003C30.4814 61.8255 29.7418 63.4812 28.5441 64.6747C27.3465 65.8724 25.6922 66.612 23.867 66.612C22.0377 66.612 20.3861 65.8724 19.1898 64.6747C17.9922 63.4812 17.2525 61.8269 17.2525 60.0003C17.2525 58.5319 17.7256 57.1825 18.5281 56.0901C19.3539 54.9663 20.5242 54.1105 21.8805 53.6839C22.4971 53.4939 22.8375 52.8431 22.6475 52.2265C22.4533 51.614 21.8025 51.2694 21.1859 51.4636C19.3484 52.0405 17.7639 53.1917 16.651 54.7107C16.2012 55.3232 15.8293 55.989 15.5463 56.7026C15.2168 56.8106 14.8791 56.9009 14.5305 56.9665C14.0342 57.0636 13.5105 57.1142 12.9719 57.1142C10.716 57.1142 8.6707 56.1995 7.19414 54.723C5.71348 53.2423 4.79883 51.1997 4.79883 48.9452C4.79883 48.3409 4.86445 47.7558 4.98887 47.1939C5.10918 46.636 5.28281 46.1042 5.5084 45.6093C5.53164 45.5628 5.55488 45.5163 5.57402 45.4657C5.80234 44.8614 5.5002 44.1901 4.8959 43.9618C3.5082 43.4314 2.29141 42.272 1.41504 40.7175C0.527734 39.1356 0 37.1546 0 34.9999C0 32.8452 0.527734 30.8642 1.41504 29.2878C2.29141 27.7292 3.5082 26.5753 4.8959 26.0435V26.0394C4.91914 26.0312 4.94238 26.0202 4.96562 26.012C5.55078 25.744 5.80645 25.055 5.53984 24.4698C5.30332 23.9503 5.11738 23.3966 4.98887 22.8114C4.86445 22.2495 4.79883 21.6644 4.79883 21.0601C4.79883 18.8042 5.71348 16.7589 7.19414 15.2823C8.6707 13.8017 10.7174 12.887 12.9719 12.887C13.5105 12.887 14.0342 12.9376 14.5305 13.0347C14.8791 13.1044 15.2168 13.1892 15.5463 13.2985C15.8293 14.0122 16.2012 14.6821 16.651 15.2905C17.7639 16.8095 19.3484 17.9647 21.1859 18.5417C21.8025 18.7317 22.4533 18.3899 22.6475 17.7747C22.8375 17.1622 22.4957 16.5073 21.8805 16.3173C20.5242 15.8907 19.3539 15.039 18.5281 13.9151C17.7256 12.8228 17.2525 11.4692 17.2525 10.005V10.0009C17.2525 8.17568 17.9922 6.52412 19.1898 5.32646C20.3875 4.12881 22.0377 3.38916 23.867 3.38916C25.6922 3.38916 27.3479 4.12881 28.5441 5.32646C29.7418 6.52412 30.4814 8.17842 30.4814 10.0036V26.5015H27.6131V24.4985C27.6131 23.8546 27.0895 23.3323 26.4469 23.3323H23.5484C23.3775 22.8716 23.1109 22.4601 22.7691 22.1196C22.1607 21.5112 21.3199 21.1353 20.3902 21.1353C19.4646 21.1353 18.6225 21.5112 18.0141 22.1196C17.4057 22.728 17.0256 23.5688 17.0256 24.4985C17.0256 25.4282 17.4057 26.269 18.0141 26.8774C18.6225 27.4858 19.4633 27.8618 20.3902 27.8618C21.3199 27.8618 22.1607 27.4858 22.7691 26.8774C23.1096 26.537 23.3775 26.1255 23.5484 25.6647H25.2807V27.669C25.2807 28.313 25.8043 28.8353 26.4469 28.8353H30.4814V33.8351H23.5484C23.3775 33.3771 23.1109 32.9628 22.7691 32.6265C22.1607 32.014 21.3199 31.638 20.3902 31.638C19.4646 31.638 18.6225 32.014 18.0141 32.6265C17.4057 33.2349 17.0256 34.0757 17.0256 35.0026C17.0256 35.9323 17.4057 36.7731 18.0141 37.3815C18.6225 37.9899 19.4633 38.3659 20.3902 38.3659C21.3199 38.3659 22.1607 37.9899 22.7691 37.3815C23.1096 37.0411 23.3775 36.6296 23.5484 36.1688H30.4814V41.1728H26.4469C25.8029 41.1728 25.2807 41.6923 25.2807 42.339V44.3392H23.5484C23.3775 43.8825 23.1109 43.4669 22.7691 43.1306C22.1607 42.5222 21.3199 42.1421 20.3902 42.1421C19.4646 42.1421 18.6225 42.5222 18.0141 43.1306C17.4057 43.739 17.0256 44.5798 17.0256 45.5067C17.0256 46.4364 17.4057 47.2772 18.0141 47.8856C18.6225 48.494 19.4633 48.87 20.3902 48.87C21.3199 48.87 22.1607 48.494 22.7691 47.8856C23.1096 47.5452 23.3775 47.1337 23.5484 46.6771H26.4469C27.0908 46.6771 27.6131 46.1534 27.6131 45.5067V43.5065H30.4814V43.5024ZM11.0072 34.9999C11.0072 33.6122 11.3449 32.3407 11.9137 31.3304C12.4605 30.3583 13.2125 29.6364 14.0684 29.311C14.6686 29.0827 14.9707 28.4087 14.7424 27.8071C14.5141 27.2069 13.84 26.9048 13.2385 27.1331C11.8631 27.6567 10.6928 28.7491 9.88203 30.1915C9.12187 31.5396 8.67344 33.2062 8.67344 35.0013C8.67344 36.7991 9.12324 38.4657 9.88203 39.811C10.6914 41.2562 11.8658 42.3458 13.2385 42.8694C13.8387 43.0978 14.5141 42.7956 14.7424 42.1954C14.9707 41.5952 14.6686 40.9198 14.0684 40.6915C13.2125 40.3661 12.4605 39.6456 11.9137 38.6722C11.3436 37.6591 11.0072 36.3876 11.0072 34.9999ZM69.9098 31.8718C69.851 31.7938 69.7621 31.7323 69.6541 31.694L65.4527 30.3296C64.9879 30.1778 64.5846 29.9222 64.2633 29.5817C63.9461 29.244 63.7123 28.8298 63.5893 28.3567C63.2912 27.2179 62.9152 26.1091 62.4695 25.0317C62.0197 23.9503 61.4975 22.8962 60.9041 21.8804C60.6594 21.462 60.5281 21.004 60.5172 20.5323C60.5022 20.0634 60.6061 19.6026 60.8275 19.1679L62.8346 15.2263C62.8893 15.121 62.9043 15.0171 62.8934 14.92C62.8783 14.823 62.8277 14.73 62.7416 14.6452L58.7426 10.6462C58.6605 10.5642 58.5648 10.5149 58.4678 10.4985C58.3748 10.4835 58.2668 10.5026 58.1615 10.5573L54.224 12.5616C53.7906 12.7831 53.3244 12.887 52.8555 12.8761C52.3865 12.861 51.9258 12.7325 51.5074 12.4851C50.4916 11.8917 49.4416 11.3694 48.3602 10.9237C47.2828 10.4739 46.1699 10.1021 45.0311 9.7999C44.558 9.67549 44.1437 9.44717 43.8061 9.12588C43.4656 8.80459 43.2086 8.40537 43.0582 7.94053L41.6937 3.73506C41.6582 3.62705 41.5967 3.54092 41.516 3.4835C41.4354 3.42607 41.3342 3.39053 41.218 3.39053H39.5555V20.7183C43.0473 20.9972 46.1904 22.5325 48.5229 24.869C51.1191 27.4612 52.7242 31.046 52.7242 35.004C52.7242 38.9647 51.1191 42.5454 48.5229 45.139C46.1904 47.4755 43.0473 49.0108 39.5555 49.2938V66.6175H41.218C41.3342 66.6175 41.4354 66.586 41.516 66.5286C41.598 66.4712 41.6596 66.381 41.6937 66.273L43.0582 62.0716C43.21 61.6067 43.4656 61.2034 43.8061 60.8821C44.1437 60.5649 44.558 60.3325 45.0311 60.2081C46.1699 59.9101 47.2828 59.5341 48.3602 59.0884C49.4416 58.6386 50.4916 58.1149 51.5074 57.523C51.9258 57.2782 52.3865 57.147 52.8555 57.136C53.3244 57.121 53.7893 57.2249 54.224 57.4464L58.1615 59.4534C58.2668 59.5081 58.3748 59.5273 58.4678 59.5122C58.5648 59.4972 58.6619 59.4466 58.7426 59.3605L62.7416 55.3614C62.8264 55.2794 62.877 55.1837 62.8934 55.0907C62.9057 54.9937 62.8893 54.8856 62.8346 54.7804L60.8275 50.8429C60.6061 50.4095 60.5022 49.9433 60.5172 49.4743C60.5295 49.0054 60.6607 48.5446 60.9041 48.1263C61.4975 47.1105 62.0197 46.0605 62.4695 44.979C62.9152 43.9017 63.2912 42.7888 63.5893 41.654C63.7137 41.1769 63.9461 40.7626 64.2633 40.4249C64.5846 40.0845 64.9879 39.8315 65.4527 39.6771L69.6541 38.3126C69.7621 38.2784 69.8523 38.2155 69.9098 38.1349C69.9686 38.0528 69.9986 37.953 69.9986 37.8368V32.1821C70 32.0577 69.9686 31.9538 69.9098 31.8718ZM39.5541 28.8339V33.8337H30.4814V36.1661H39.5541V41.17H30.4814V43.5024H39.5541V46.9437C42.402 46.6688 44.96 45.4015 46.8754 43.486C49.0451 41.3122 50.3904 38.3126 50.3904 34.9985C50.3904 31.6845 49.0451 28.6849 46.8754 26.5151C44.9613 24.6011 42.4033 23.3296 39.5541 23.0548V26.5001H30.4814V28.8325H39.5541V28.8339Z" fill="#131414"/>
</g>
<path d="M94.35 29V11.5H97.025L104.675 24.275H103.275L110.8 11.5H113.475L113.5 29H110.425L110.4 16.325H111.05L104.65 27H103.2L96.7 16.325H97.45V29H94.35ZM126.152 29V26.3L125.977 25.725V21C125.977 20.0833 125.702 19.375 125.152 18.875C124.602 18.3583 123.769 18.1 122.652 18.1C121.902 18.1 121.16 18.2167 120.427 18.45C119.71 18.6833 119.102 19.0083 118.602 19.425L117.377 17.15C118.094 16.6 118.944 16.1917 119.927 15.925C120.927 15.6417 121.96 15.5 123.027 15.5C124.96 15.5 126.452 15.9667 127.502 16.9C128.569 17.8167 129.102 19.2417 129.102 21.175V29H126.152ZM121.952 29.175C120.952 29.175 120.077 29.0083 119.327 28.675C118.577 28.325 117.994 27.85 117.577 27.25C117.177 26.6333 116.977 25.9417 116.977 25.175C116.977 24.425 117.152 23.75 117.502 23.15C117.869 22.55 118.46 22.075 119.277 21.725C120.094 21.375 121.177 21.2 122.527 21.2H126.402V23.275H122.752C121.685 23.275 120.969 23.45 120.602 23.8C120.235 24.1333 120.052 24.55 120.052 25.05C120.052 25.6167 120.277 26.0667 120.727 26.4C121.177 26.7333 121.802 26.9 122.602 26.9C123.369 26.9 124.052 26.725 124.652 26.375C125.269 26.025 125.71 25.5083 125.977 24.825L126.502 26.7C126.202 27.4833 125.66 28.0917 124.877 28.525C124.11 28.9583 123.135 29.175 121.952 29.175ZM139.262 29.175C137.862 29.175 136.612 28.8833 135.512 28.3C134.429 27.7 133.579 26.8833 132.962 25.85C132.345 24.8167 132.037 23.6417 132.037 22.325C132.037 20.9917 132.345 19.8167 132.962 18.8C133.579 17.7667 134.429 16.9583 135.512 16.375C136.612 15.7917 137.862 15.5 139.262 15.5C140.562 15.5 141.704 15.7667 142.687 16.3C143.687 16.8167 144.445 17.5833 144.962 18.6L142.562 20C142.162 19.3667 141.67 18.9 141.087 18.6C140.52 18.3 139.904 18.15 139.237 18.15C138.47 18.15 137.779 18.3167 137.162 18.65C136.545 18.9833 136.062 19.4667 135.712 20.1C135.362 20.7167 135.187 21.4583 135.187 22.325C135.187 23.1917 135.362 23.9417 135.712 24.575C136.062 25.1917 136.545 25.6667 137.162 26C137.779 26.3333 138.47 26.5 139.237 26.5C139.904 26.5 140.52 26.35 141.087 26.05C141.67 25.75 142.162 25.2833 142.562 24.65L144.962 26.05C144.445 27.05 143.687 27.825 142.687 28.375C141.704 28.9083 140.562 29.175 139.262 29.175ZM155.116 15.5C156.183 15.5 157.133 15.7083 157.966 16.125C158.816 16.5417 159.483 17.1833 159.966 18.05C160.45 18.9 160.691 20 160.691 21.35V29H157.566V21.75C157.566 20.5667 157.283 19.6833 156.716 19.1C156.166 18.5167 155.391 18.225 154.391 18.225C153.658 18.225 153.008 18.375 152.441 18.675C151.875 18.975 151.433 19.425 151.116 20.025C150.816 20.6083 150.666 21.35 150.666 22.25V29H147.541V10.45H150.666V19.25L149.991 18.15C150.458 17.3 151.133 16.65 152.016 16.2C152.916 15.7333 153.95 15.5 155.116 15.5ZM164.655 29V15.65H167.78V29H164.655ZM166.23 13.45C165.647 13.45 165.164 13.2667 164.78 12.9C164.414 12.5333 164.23 12.0917 164.23 11.575C164.23 11.0417 164.414 10.6 164.78 10.25C165.164 9.88333 165.647 9.7 166.23 9.7C166.814 9.7 167.289 9.875 167.655 10.225C168.039 10.5583 168.23 10.9833 168.23 11.5C168.23 12.05 168.047 12.5167 167.68 12.9C167.314 13.2667 166.83 13.45 166.23 13.45ZM179.457 15.5C180.524 15.5 181.474 15.7083 182.307 16.125C183.157 16.5417 183.824 17.1833 184.307 18.05C184.79 18.9 185.032 20 185.032 21.35V29H181.907V21.75C181.907 20.5667 181.624 19.6833 181.057 19.1C180.507 18.5167 179.732 18.225 178.732 18.225C177.999 18.225 177.349 18.375 176.782 18.675C176.215 18.975 175.774 19.425 175.457 20.025C175.157 20.6083 175.007 21.35 175.007 22.25V29H171.882V15.65H174.857V19.25L174.332 18.15C174.799 17.3 175.474 16.65 176.357 16.2C177.257 15.7333 178.29 15.5 179.457 15.5ZM195.296 29.175C193.812 29.175 192.512 28.8833 191.396 28.3C190.296 27.7 189.437 26.8833 188.821 25.85C188.221 24.8167 187.921 23.6417 187.921 22.325C187.921 20.9917 188.212 19.8167 188.796 18.8C189.396 17.7667 190.212 16.9583 191.246 16.375C192.296 15.7917 193.487 15.5 194.821 15.5C196.121 15.5 197.279 15.7833 198.296 16.35C199.312 16.9167 200.112 17.7167 200.696 18.75C201.279 19.7833 201.571 21 201.571 22.4C201.571 22.5333 201.562 22.6833 201.546 22.85C201.546 23.0167 201.537 23.175 201.521 23.325H190.396V21.25H199.871L198.646 21.9C198.662 21.1333 198.504 20.4583 198.171 19.875C197.837 19.2917 197.379 18.8333 196.796 18.5C196.229 18.1667 195.571 18 194.821 18C194.054 18 193.379 18.1667 192.796 18.5C192.229 18.8333 191.779 19.3 191.446 19.9C191.129 20.4833 190.971 21.175 190.971 21.975V22.475C190.971 23.275 191.154 23.9833 191.521 24.6C191.887 25.2167 192.404 25.6917 193.071 26.025C193.737 26.3583 194.504 26.525 195.371 26.525C196.121 26.525 196.796 26.4083 197.396 26.175C197.996 25.9417 198.529 25.575 198.996 25.075L200.671 27C200.071 27.7 199.312 28.2417 198.396 28.625C197.496 28.9917 196.462 29.175 195.296 29.175ZM94.35 59V41.5H97.6V56.25H106.75V59H94.35ZM115.169 59.175C113.685 59.175 112.385 58.8833 111.269 58.3C110.169 57.7 109.31 56.8833 108.694 55.85C108.094 54.8167 107.794 53.6417 107.794 52.325C107.794 50.9917 108.085 49.8167 108.669 48.8C109.269 47.7667 110.085 46.9583 111.119 46.375C112.169 45.7917 113.36 45.5 114.694 45.5C115.994 45.5 117.152 45.7833 118.169 46.35C119.185 46.9167 119.985 47.7167 120.569 48.75C121.152 49.7833 121.444 51 121.444 52.4C121.444 52.5333 121.435 52.6833 121.419 52.85C121.419 53.0167 121.41 53.175 121.394 53.325H110.269V51.25H119.744L118.519 51.9C118.535 51.1333 118.377 50.4583 118.044 49.875C117.71 49.2917 117.252 48.8333 116.669 48.5C116.102 48.1667 115.444 48 114.694 48C113.927 48 113.252 48.1667 112.669 48.5C112.102 48.8333 111.652 49.3 111.319 49.9C111.002 50.4833 110.844 51.175 110.844 51.975V52.475C110.844 53.275 111.027 53.9833 111.394 54.6C111.76 55.2167 112.277 55.6917 112.944 56.025C113.61 56.3583 114.377 56.525 115.244 56.525C115.994 56.525 116.669 56.4083 117.269 56.175C117.869 55.9417 118.402 55.575 118.869 55.075L120.544 57C119.944 57.7 119.185 58.2417 118.269 58.625C117.369 58.9917 116.335 59.175 115.169 59.175ZM132.304 59V56.3L132.129 55.725V51C132.129 50.0833 131.854 49.375 131.304 48.875C130.754 48.3583 129.921 48.1 128.804 48.1C128.054 48.1 127.313 48.2167 126.579 48.45C125.863 48.6833 125.254 49.0083 124.754 49.425L123.529 47.15C124.246 46.6 125.096 46.1917 126.079 45.925C127.079 45.6417 128.113 45.5 129.179 45.5C131.113 45.5 132.604 45.9667 133.654 46.9C134.721 47.8167 135.254 49.2417 135.254 51.175V59H132.304ZM128.104 59.175C127.104 59.175 126.229 59.0083 125.479 58.675C124.729 58.325 124.146 57.85 123.729 57.25C123.329 56.6333 123.129 55.9417 123.129 55.175C123.129 54.425 123.304 53.75 123.654 53.15C124.021 52.55 124.613 52.075 125.429 51.725C126.246 51.375 127.329 51.2 128.679 51.2H132.554V53.275H128.904C127.838 53.275 127.121 53.45 126.754 53.8C126.388 54.1333 126.204 54.55 126.204 55.05C126.204 55.6167 126.429 56.0667 126.879 56.4C127.329 56.7333 127.954 56.9 128.754 56.9C129.521 56.9 130.204 56.725 130.804 56.375C131.421 56.025 131.863 55.5083 132.129 54.825L132.654 56.7C132.354 57.4833 131.813 58.0917 131.029 58.525C130.263 58.9583 129.288 59.175 128.104 59.175ZM139.265 59V45.65H142.24V49.325L141.89 48.25C142.29 47.35 142.915 46.6667 143.765 46.2C144.632 45.7333 145.707 45.5 146.99 45.5V48.475C146.857 48.4417 146.732 48.425 146.615 48.425C146.498 48.4083 146.382 48.4 146.265 48.4C145.082 48.4 144.14 48.75 143.44 49.45C142.74 50.1333 142.39 51.1583 142.39 52.525V59H139.265ZM157.216 45.5C158.282 45.5 159.232 45.7083 160.066 46.125C160.916 46.5417 161.582 47.1833 162.066 48.05C162.549 48.9 162.791 50 162.791 51.35V59H159.666V51.75C159.666 50.5667 159.382 49.6833 158.816 49.1C158.266 48.5167 157.491 48.225 156.491 48.225C155.757 48.225 155.107 48.375 154.541 48.675C153.974 48.975 153.532 49.425 153.216 50.025C152.916 50.6083 152.766 51.35 152.766 52.25V59H149.641V45.65H152.616V49.25L152.091 48.15C152.557 47.3 153.232 46.65 154.116 46.2C155.016 45.7333 156.049 45.5 157.216 45.5ZM166.755 59V45.65H169.88V59H166.755ZM168.33 43.45C167.747 43.45 167.263 43.2667 166.88 42.9C166.513 42.5333 166.33 42.0917 166.33 41.575C166.33 41.0417 166.513 40.6 166.88 40.25C167.263 39.8833 167.747 39.7 168.33 39.7C168.913 39.7 169.388 39.875 169.755 40.225C170.138 40.5583 170.33 40.9833 170.33 41.5C170.33 42.05 170.147 42.5167 169.78 42.9C169.413 43.2667 168.93 43.45 168.33 43.45ZM181.557 45.5C182.623 45.5 183.573 45.7083 184.407 46.125C185.257 46.5417 185.923 47.1833 186.407 48.05C186.89 48.9 187.132 50 187.132 51.35V59H184.007V51.75C184.007 50.5667 183.723 49.6833 183.157 49.1C182.607 48.5167 181.832 48.225 180.832 48.225C180.098 48.225 179.448 48.375 178.882 48.675C178.315 48.975 177.873 49.425 177.557 50.025C177.257 50.6083 177.107 51.35 177.107 52.25V59H173.982V45.65H176.957V49.25L176.432 48.15C176.898 47.3 177.573 46.65 178.457 46.2C179.357 45.7333 180.39 45.5 181.557 45.5ZM197.17 64.025C195.937 64.025 194.729 63.8583 193.545 63.525C192.379 63.2083 191.42 62.7417 190.67 62.125L192.07 59.775C192.654 60.2583 193.387 60.6417 194.27 60.925C195.17 61.225 196.079 61.375 196.995 61.375C198.462 61.375 199.537 61.0333 200.22 60.35C200.904 59.6833 201.245 58.675 201.245 57.325V54.95L201.495 51.925L201.395 48.9V45.65H204.37V56.975C204.37 59.3917 203.754 61.1667 202.52 62.3C201.287 63.45 199.504 64.025 197.17 64.025ZM196.77 58.4C195.504 58.4 194.354 58.1333 193.32 57.6C192.304 57.05 191.495 56.2917 190.895 55.325C190.312 54.3583 190.02 53.225 190.02 51.925C190.02 50.6417 190.312 49.5167 190.895 48.55C191.495 47.5833 192.304 46.8333 193.32 46.3C194.354 45.7667 195.504 45.5 196.77 45.5C197.904 45.5 198.92 45.725 199.82 46.175C200.72 46.625 201.437 47.325 201.97 48.275C202.52 49.225 202.795 50.4417 202.795 51.925C202.795 53.4083 202.52 54.6333 201.97 55.6C201.437 56.55 200.72 57.2583 199.82 57.725C198.92 58.175 197.904 58.4 196.77 58.4ZM197.245 55.75C198.029 55.75 198.729 55.5917 199.345 55.275C199.962 54.9417 200.437 54.4917 200.77 53.925C201.12 53.3417 201.295 52.675 201.295 51.925C201.295 51.175 201.12 50.5167 200.77 49.95C200.437 49.3667 199.962 48.925 199.345 48.625C198.729 48.3083 198.029 48.15 197.245 48.15C196.462 48.15 195.754 48.3083 195.12 48.625C194.504 48.925 194.02 49.3667 193.67 49.95C193.337 50.5167 193.17 51.175 193.17 51.925C193.17 52.675 193.337 53.3417 193.67 53.925C194.02 54.4917 194.504 54.9417 195.12 55.275C195.754 55.5917 196.462 55.75 197.245 55.75Z" fill="#131414"/>
<defs>
<clipPath id="clip0_201_1427">
<rect width="70" height="70" fill="white"/>
</clipPath>
</defs>
</svg>
