<svg width="227" height="70" viewBox="0 0 227 70" fill="none" xmlns="http://www.w3.org/2000/svg">
<g clip-path="url(#clip0_201_1465)">
<path d="M25.8108 35.9584C26.9457 35.9584 27.8643 35.0384 27.8643 33.9048C27.8643 32.7713 26.9457 31.8513 25.8108 31.8513H24.9551C24.8415 31.4967 24.6978 31.1558 24.5294 30.83L25.1372 30.2235C25.9395 29.4212 25.9395 28.1207 25.1372 27.3184C24.335 26.5162 23.0344 26.5162 22.2321 27.3184L21.6257 27.9263C21.2998 27.7579 20.9589 27.6141 20.6044 27.5005V26.6449C20.6044 25.5099 19.6844 24.5913 18.5508 24.5913C17.4173 24.5913 16.4973 25.5099 16.4973 26.6449V27.5005C16.1427 27.6141 15.8018 27.7579 15.476 27.9263L14.8695 27.3184C14.0672 26.5162 12.7667 26.5162 11.9644 27.3184C11.1622 28.1207 11.1622 29.4212 11.9644 30.2235L12.5723 30.83C12.4039 31.1558 12.2601 31.4967 12.1465 31.8513H11.2908C10.1559 31.8513 9.2373 32.7713 9.2373 33.9048C9.2373 35.0384 10.1559 35.9584 11.2908 35.9584H12.1465C12.2601 36.3129 12.4039 36.6538 12.5723 36.9797L11.9644 37.5861C11.1622 38.3884 11.1622 39.689 11.9644 40.4912C12.3655 40.8923 12.8912 41.0922 13.417 41.0922C13.9427 41.0922 14.4684 40.8923 14.8695 40.4912L15.476 39.8834C15.8018 40.0518 16.1427 40.1955 16.4973 40.3091V41.1648C16.4973 42.2997 17.4173 43.2183 18.5508 43.2183C19.6844 43.2183 20.6044 42.2997 20.6044 41.1648V40.3091C20.9589 40.1955 21.2998 40.0518 21.6257 39.8834L22.2321 40.4912C22.6333 40.8923 23.159 41.0922 23.6847 41.0922C24.2104 41.0922 24.7361 40.8923 25.1372 40.4912C25.9395 39.689 25.9395 38.3884 25.1372 37.5861L24.5294 36.9797C24.6978 36.6538 24.8415 36.3129 24.9551 35.9584H25.8108ZM16.4973 33.9048C16.4973 32.7713 17.4173 31.8513 18.5508 31.8513C19.6844 31.8513 20.6044 32.7713 20.6044 33.9048C20.6044 35.0384 19.6844 35.9584 18.5508 35.9584C17.4173 35.9584 16.4973 35.0384 16.4973 33.9048Z" fill="#131414"/>
<path d="M51.5453 16.4499C48.7251 16.4499 45.9637 17.0933 43.4625 18.3036L43.6446 17.029C43.8061 15.9064 43.0258 14.8659 41.9032 14.7057C40.7792 14.5442 39.7401 15.3245 39.5786 16.4472L38.7558 22.2026C38.5942 23.2238 39.3061 24.2684 40.3165 24.4916C40.5082 24.5162 46.3744 25.9783 46.4005 25.8716C48.8154 25.8168 49.2343 22.4421 46.87 21.8192L46.0815 21.633C55.3909 17.6916 66.1049 24.8776 65.9885 35.0002C65.9885 42.9639 59.5089 49.4435 51.5453 49.4435C43.5816 49.4435 37.102 42.9639 37.102 35.0002C37.102 31.9473 36.3614 29.0655 35.0485 26.5232C31.9654 20.546 25.7267 16.4499 18.5516 16.4499C8.32363 16.4499 0.0012939 24.7722 0.0012939 35.0002C-0.158883 48.492 14.5842 57.7234 26.6344 51.6969L26.4523 52.9715C26.2661 54.1968 27.2505 55.3262 28.4881 55.3153C29.4929 55.3153 30.3705 54.5774 30.5183 53.5533L31.3411 47.7979C31.5027 46.7766 30.7908 45.7321 29.7804 45.5089L24.1701 44.1851C21.4964 43.6635 20.5997 47.4502 23.2269 48.1813L24.0154 48.3675C14.706 52.3089 3.99202 45.1229 4.10838 35.0002C4.10838 27.0366 10.588 20.557 18.5516 20.557C26.5153 20.557 32.9949 27.0366 32.9949 35.0002C32.9949 38.0532 33.7356 40.935 35.0485 43.4773C38.1315 49.4545 44.3702 53.5506 51.5453 53.5506C76.1454 52.5361 76.1577 17.4684 51.5453 16.4499Z" fill="#131414"/>
<path d="M44.285 33.9035C43.1501 33.9035 42.2314 34.8235 42.2314 35.9571C42.2314 37.0906 43.1501 38.0106 44.285 38.0106H45.1406C45.2543 38.3652 45.398 38.7061 45.5664 39.0319L44.9586 39.6384C44.1563 40.4406 44.1563 41.7412 44.9586 42.5435C45.3597 42.9446 45.8854 43.1445 46.4111 43.1445C46.9368 43.1445 47.4625 42.9446 47.8636 42.5435L48.4701 41.9356C48.7959 42.104 49.1368 42.2478 49.4914 42.3614V43.217C49.4914 44.352 50.4114 45.2706 51.545 45.2706C52.6785 45.2706 53.5985 44.352 53.5985 43.217V42.3614C53.9531 42.2478 54.294 42.104 54.6198 41.9356L55.2263 42.5435C55.6274 42.9446 56.1531 43.1445 56.6788 43.1445C57.2045 43.1445 57.7302 42.9446 58.1314 42.5435C58.9336 41.7412 58.9336 40.4406 58.1314 39.6384L57.5235 39.0319C57.6919 38.7061 57.8356 38.3652 57.9493 38.0106H58.8049C59.9398 38.0106 60.8585 37.0906 60.8585 35.9571C60.8585 34.8235 59.9398 33.9035 58.8049 33.9035H57.9493C57.8356 33.5489 57.6919 33.2081 57.5235 32.8822L58.1314 32.2757C58.9336 31.4735 58.9336 30.1729 58.1314 29.3707C57.3291 28.5684 56.0285 28.5684 55.2263 29.3707L54.6198 29.9785C54.294 29.8101 53.9531 29.6664 53.5985 29.5527V28.6971C53.5985 27.5622 52.6785 26.6436 51.545 26.6436C50.4114 26.6436 49.4914 27.5622 49.4914 28.6971V29.5527C49.1368 29.6664 48.7959 29.8101 48.4701 29.9785L47.8636 29.3707C47.0614 28.5684 45.7608 28.5684 44.9586 29.3707C44.1563 30.1729 44.1563 31.4735 44.9586 32.2757L45.5664 32.8822C45.398 33.2081 45.2543 33.5489 45.1406 33.9035H44.285ZM51.545 33.9035C52.6785 33.9035 53.5985 34.8235 53.5985 35.9571C53.5985 37.0906 52.6785 38.0106 51.545 38.0106C50.4114 38.0106 49.4914 37.0906 49.4914 35.9571C49.4914 34.8235 50.4114 33.9035 51.545 33.9035Z" fill="#131414"/>
</g>
<path d="M94.35 44V26.5H102C103.9 26.5 105.567 26.8667 107 27.6C108.433 28.3333 109.55 29.35 110.35 30.65C111.15 31.95 111.55 33.4833 111.55 35.25C111.55 37 111.15 38.5333 110.35 39.85C109.55 41.15 108.433 42.1667 107 42.9C105.567 43.6333 103.9 44 102 44H94.35ZM97.6 41.25H101.85C103.167 41.25 104.3 41 105.25 40.5C106.217 40 106.958 39.3 107.475 38.4C108.008 37.5 108.275 36.45 108.275 35.25C108.275 34.0333 108.008 32.9833 107.475 32.1C106.958 31.2 106.217 30.5 105.25 30C104.3 29.5 103.167 29.25 101.85 29.25H97.6V41.25ZM120.979 44.175C119.496 44.175 118.196 43.8833 117.079 43.3C115.979 42.7 115.121 41.8833 114.504 40.85C113.904 39.8167 113.604 38.6417 113.604 37.325C113.604 35.9917 113.896 34.8167 114.479 33.8C115.079 32.7667 115.896 31.9583 116.929 31.375C117.979 30.7917 119.171 30.5 120.504 30.5C121.804 30.5 122.963 30.7833 123.979 31.35C124.996 31.9167 125.796 32.7167 126.379 33.75C126.963 34.7833 127.254 36 127.254 37.4C127.254 37.5333 127.246 37.6833 127.229 37.85C127.229 38.0167 127.221 38.175 127.204 38.325H116.079V36.25H125.554L124.329 36.9C124.346 36.1333 124.188 35.4583 123.854 34.875C123.521 34.2917 123.063 33.8333 122.479 33.5C121.913 33.1667 121.254 33 120.504 33C119.738 33 119.063 33.1667 118.479 33.5C117.913 33.8333 117.463 34.3 117.129 34.9C116.813 35.4833 116.654 36.175 116.654 36.975V37.475C116.654 38.275 116.838 38.9833 117.204 39.6C117.571 40.2167 118.088 40.6917 118.754 41.025C119.421 41.3583 120.188 41.525 121.054 41.525C121.804 41.525 122.479 41.4083 123.079 41.175C123.679 40.9417 124.213 40.575 124.679 40.075L126.354 42C125.754 42.7 124.996 43.2417 124.079 43.625C123.179 43.9917 122.146 44.175 120.979 44.175ZM133.562 44L127.837 30.65H131.087L136.012 42.425H134.412L139.512 30.65H142.512L136.787 44H133.562ZM152.843 44.25C151.476 44.25 150.218 44.025 149.068 43.575C147.918 43.125 146.918 42.5 146.068 41.7C145.218 40.8833 144.56 39.9333 144.093 38.85C143.626 37.75 143.393 36.55 143.393 35.25C143.393 33.95 143.626 32.7583 144.093 31.675C144.56 30.575 145.218 29.625 146.068 28.825C146.918 28.0083 147.918 27.375 149.068 26.925C150.218 26.475 151.468 26.25 152.818 26.25C154.185 26.25 155.435 26.475 156.568 26.925C157.718 27.375 158.718 28.0083 159.568 28.825C160.418 29.625 161.076 30.575 161.543 31.675C162.01 32.7583 162.243 33.95 162.243 35.25C162.243 36.55 162.01 37.75 161.543 38.85C161.076 39.95 160.418 40.9 159.568 41.7C158.718 42.5 157.718 43.125 156.568 43.575C155.435 44.025 154.193 44.25 152.843 44.25ZM152.818 41.4C153.701 41.4 154.518 41.25 155.268 40.95C156.018 40.65 156.668 40.225 157.218 39.675C157.768 39.1083 158.193 38.4583 158.493 37.725C158.81 36.975 158.968 36.15 158.968 35.25C158.968 34.35 158.81 33.5333 158.493 32.8C158.193 32.05 157.768 31.4 157.218 30.85C156.668 30.2833 156.018 29.85 155.268 29.55C154.518 29.25 153.701 29.1 152.818 29.1C151.935 29.1 151.118 29.25 150.368 29.55C149.635 29.85 148.985 30.2833 148.418 30.85C147.868 31.4 147.435 32.05 147.118 32.8C146.818 33.5333 146.668 34.35 146.668 35.25C146.668 36.1333 146.818 36.95 147.118 37.7C147.435 38.45 147.868 39.1083 148.418 39.675C148.968 40.225 149.618 40.65 150.368 40.95C151.118 41.25 151.935 41.4 152.818 41.4ZM172.788 44.175C171.705 44.175 170.713 43.925 169.813 43.425C168.93 42.925 168.221 42.175 167.688 41.175C167.171 40.1583 166.913 38.875 166.913 37.325C166.913 35.7583 167.163 34.475 167.663 33.475C168.18 32.475 168.88 31.7333 169.763 31.25C170.646 30.75 171.655 30.5 172.788 30.5C174.105 30.5 175.263 30.7833 176.263 31.35C177.28 31.9167 178.08 32.7083 178.663 33.725C179.263 34.7417 179.563 35.9417 179.563 37.325C179.563 38.7083 179.263 39.9167 178.663 40.95C178.08 41.9667 177.28 42.7583 176.263 43.325C175.263 43.8917 174.105 44.175 172.788 44.175ZM165.388 48.85V30.65H168.363V33.8L168.263 37.35L168.513 40.9V48.85H165.388ZM172.438 41.5C173.188 41.5 173.855 41.3333 174.438 41C175.038 40.6667 175.513 40.1833 175.863 39.55C176.213 38.9167 176.388 38.175 176.388 37.325C176.388 36.4583 176.213 35.7167 175.863 35.1C175.513 34.4667 175.038 33.9833 174.438 33.65C173.855 33.3167 173.188 33.15 172.438 33.15C171.688 33.15 171.013 33.3167 170.413 33.65C169.813 33.9833 169.338 34.4667 168.988 35.1C168.638 35.7167 168.463 36.4583 168.463 37.325C168.463 38.175 168.638 38.9167 168.988 39.55C169.338 40.1833 169.813 40.6667 170.413 41C171.013 41.3333 171.688 41.5 172.438 41.5ZM186.652 44.175C185.535 44.175 184.46 44.0333 183.427 43.75C182.41 43.45 181.602 43.0917 181.002 42.675L182.202 40.3C182.802 40.6833 183.518 41 184.352 41.25C185.185 41.5 186.018 41.625 186.852 41.625C187.835 41.625 188.543 41.4917 188.977 41.225C189.427 40.9583 189.652 40.6 189.652 40.15C189.652 39.7833 189.502 39.5083 189.202 39.325C188.902 39.125 188.51 38.975 188.027 38.875C187.543 38.775 187.002 38.6833 186.402 38.6C185.818 38.5167 185.227 38.4083 184.627 38.275C184.043 38.125 183.51 37.9167 183.027 37.65C182.543 37.3667 182.152 36.9917 181.852 36.525C181.552 36.0583 181.402 35.4417 181.402 34.675C181.402 33.825 181.643 33.0917 182.127 32.475C182.61 31.8417 183.285 31.3583 184.152 31.025C185.035 30.675 186.077 30.5 187.277 30.5C188.177 30.5 189.085 30.6 190.002 30.8C190.918 31 191.677 31.2833 192.277 31.65L191.077 34.025C190.443 33.6417 189.802 33.3833 189.152 33.25C188.518 33.1 187.885 33.025 187.252 33.025C186.302 33.025 185.593 33.1667 185.127 33.45C184.677 33.7333 184.452 34.0917 184.452 34.525C184.452 34.925 184.602 35.225 184.902 35.425C185.202 35.625 185.593 35.7833 186.077 35.9C186.56 36.0167 187.093 36.1167 187.677 36.2C188.277 36.2667 188.868 36.375 189.452 36.525C190.035 36.675 190.568 36.8833 191.052 37.15C191.552 37.4 191.952 37.7583 192.252 38.225C192.552 38.6917 192.702 39.3 192.702 40.05C192.702 40.8833 192.452 41.6083 191.952 42.225C191.468 42.8417 190.777 43.325 189.877 43.675C188.977 44.0083 187.902 44.175 186.652 44.175Z" fill="#131414"/>
<defs>
<clipPath id="clip0_201_1465">
<rect width="70" height="70" fill="white"/>
</clipPath>
</defs>
</svg>
