<svg width="225" height="70" viewBox="0 0 225 70" fill="none" xmlns="http://www.w3.org/2000/svg">
<g clip-path="url(#clip0_201_1474)">
<path d="M70 30.6739C70 24.85 65.2665 20.104 59.4285 20.104H59.2339V20.0339C59.2339 10.6819 51.6318 3.06592 42.2645 3.06592C36.0905 3.06592 30.4345 6.42594 27.4524 11.7459C25.6465 10.6959 23.5606 10.1218 21.4339 10.1218C15.0904 10.1218 9.89643 15.0639 9.47788 21.294C4.21402 21.5601 0 25.928 0 31.2621C0 35.9241 3.22 39.858 7.54597 40.9359V36.666C7.54597 34.3559 9.43458 32.466 11.746 32.466H59.696C62.0046 32.466 63.896 34.3561 63.896 36.666V40.2358C67.4938 38.528 70 34.86 70 30.6739Z" fill="#131414"/>
<path d="M61.0957 36.6662C61.0957 35.896 60.4658 35.2661 59.6958 35.2661H11.7457C10.9756 35.2661 10.3457 35.896 10.3457 36.6662V48.3002C10.3457 49.0701 10.9756 49.7001 11.7457 49.7001H59.6958C60.4658 49.7001 61.0957 49.0701 61.0957 48.3002V36.6662ZM19.0957 43.8831C19.0957 44.6574 18.4699 45.2831 17.6958 45.2831C16.9215 45.2831 16.2958 44.6574 16.2958 43.8831V41.0831C16.2958 40.3089 16.9215 39.6831 17.6958 39.6831C18.47 39.6831 19.0957 40.3089 19.0957 41.0831V43.8831ZM25.1116 43.8831C25.1116 44.6574 24.4857 45.2831 23.7115 45.2831C22.9374 45.2831 22.3115 44.6574 22.3115 43.8831V41.0831C22.3115 40.3089 22.9374 39.6831 23.7115 39.6831C24.4857 39.6831 25.1116 40.3089 25.1116 41.0831V43.8831ZM53.7457 43.8831H34.2984C33.5256 43.8831 32.8984 43.2573 32.8984 42.4832C32.8984 41.709 33.5256 41.0831 34.2984 41.0831H53.7459C54.5201 41.0831 55.1459 41.709 55.1459 42.4832C55.1458 43.2573 54.5199 43.8831 53.7457 43.8831Z" fill="#131414"/>
<path d="M59.6958 52.501H11.7457C10.9756 52.501 10.3457 53.1309 10.3457 53.901V65.5337C10.3457 66.3036 10.9756 66.9337 11.7457 66.9337H59.6958C60.4658 66.9337 61.0957 66.3036 61.0957 65.5337V53.901C61.0957 53.1309 60.4658 52.501 59.6958 52.501ZM19.0957 61.1166C19.0957 61.8907 18.4699 62.5166 17.6958 62.5166C16.9215 62.5166 16.2958 61.8907 16.2958 61.1166V58.3165C16.2958 57.5423 16.9215 56.9164 17.6958 56.9164C18.47 56.9164 19.0957 57.5423 19.0957 58.3165V61.1166ZM25.1116 61.1166C25.1116 61.8907 24.4857 62.5166 23.7115 62.5166C22.9374 62.5166 22.3115 61.8907 22.3115 61.1166V58.3165C22.3115 57.5423 22.9374 56.9164 23.7115 56.9164C24.4857 56.9164 25.1116 57.5423 25.1116 58.3165V61.1166ZM53.7457 61.1166H34.2984C33.5256 61.1166 32.8984 60.4907 32.8984 59.7165C32.8984 58.9423 33.5256 58.3165 34.2984 58.3165H53.7459C54.5201 58.3165 55.1459 58.9423 55.1459 59.7165C55.1458 60.4907 54.5199 61.1166 53.7457 61.1166Z" fill="#131414"/>
</g>
<path d="M99.775 44.25C98.4083 44.25 97.1 44.0583 95.85 43.675C94.6 43.275 93.6083 42.7667 92.875 42.15L94 39.625C94.7 40.175 95.5667 40.6333 96.6 41C97.6333 41.3667 98.6917 41.55 99.775 41.55C100.692 41.55 101.433 41.45 102 41.25C102.567 41.05 102.983 40.7833 103.25 40.45C103.517 40.1 103.65 39.7083 103.65 39.275C103.65 38.7417 103.458 38.3167 103.075 38C102.692 37.6667 102.192 37.4083 101.575 37.225C100.975 37.025 100.3 36.8417 99.55 36.675C98.8167 36.5083 98.075 36.3167 97.325 36.1C96.5917 35.8667 95.9167 35.575 95.3 35.225C94.7 34.8583 94.2083 34.375 93.825 33.775C93.4417 33.175 93.25 32.4083 93.25 31.475C93.25 30.525 93.5 29.6583 94 28.875C94.5167 28.075 95.2917 27.4417 96.325 26.975C97.375 26.4917 98.7 26.25 100.3 26.25C101.35 26.25 102.392 26.3833 103.425 26.65C104.458 26.9167 105.358 27.3 106.125 27.8L105.1 30.325C104.317 29.8583 103.508 29.5167 102.675 29.3C101.842 29.0667 101.042 28.95 100.275 28.95C99.375 28.95 98.6417 29.0583 98.075 29.275C97.525 29.4917 97.1167 29.775 96.85 30.125C96.6 30.475 96.475 30.875 96.475 31.325C96.475 31.8583 96.6583 32.2917 97.025 32.625C97.4083 32.9417 97.9 33.1917 98.5 33.375C99.1167 33.5583 99.8 33.7417 100.55 33.925C101.3 34.0917 102.042 34.2833 102.775 34.5C103.525 34.7167 104.2 35 104.8 35.35C105.417 35.7 105.908 36.175 106.275 36.775C106.658 37.375 106.85 38.1333 106.85 39.05C106.85 39.9833 106.592 40.85 106.075 41.65C105.575 42.4333 104.8 43.0667 103.75 43.55C102.7 44.0167 101.375 44.25 99.775 44.25ZM114.798 44.175C113.331 44.175 112.198 43.8 111.398 43.05C110.598 42.2833 110.198 41.1583 110.198 39.675V27.7H113.323V39.6C113.323 40.2333 113.481 40.725 113.798 41.075C114.131 41.425 114.589 41.6 115.173 41.6C115.873 41.6 116.456 41.4167 116.923 41.05L117.798 43.275C117.431 43.575 116.981 43.8 116.448 43.95C115.914 44.1 115.364 44.175 114.798 44.175ZM107.998 33.25V30.75H116.898V33.25H107.998ZM125.929 44.175C124.562 44.175 123.346 43.8833 122.279 43.3C121.212 42.7 120.371 41.8833 119.754 40.85C119.137 39.8167 118.829 38.6417 118.829 37.325C118.829 35.9917 119.137 34.8167 119.754 33.8C120.371 32.7667 121.212 31.9583 122.279 31.375C123.346 30.7917 124.562 30.5 125.929 30.5C127.312 30.5 128.537 30.7917 129.604 31.375C130.687 31.9583 131.529 32.7583 132.129 33.775C132.746 34.7917 133.054 35.975 133.054 37.325C133.054 38.6417 132.746 39.8167 132.129 40.85C131.529 41.8833 130.687 42.7 129.604 43.3C128.537 43.8833 127.312 44.175 125.929 44.175ZM125.929 41.5C126.696 41.5 127.379 41.3333 127.979 41C128.579 40.6667 129.046 40.1833 129.379 39.55C129.729 38.9167 129.904 38.175 129.904 37.325C129.904 36.4583 129.729 35.7167 129.379 35.1C129.046 34.4667 128.579 33.9833 127.979 33.65C127.379 33.3167 126.704 33.15 125.954 33.15C125.187 33.15 124.504 33.3167 123.904 33.65C123.321 33.9833 122.854 34.4667 122.504 35.1C122.154 35.7167 121.979 36.4583 121.979 37.325C121.979 38.175 122.154 38.9167 122.504 39.55C122.854 40.1833 123.321 40.6667 123.904 41C124.504 41.3333 125.179 41.5 125.929 41.5ZM136.042 44V30.65H139.017V34.325L138.667 33.25C139.067 32.35 139.692 31.6667 140.542 31.2C141.409 30.7333 142.484 30.5 143.767 30.5V33.475C143.634 33.4417 143.509 33.425 143.392 33.425C143.276 33.4083 143.159 33.4 143.042 33.4C141.859 33.4 140.917 33.75 140.217 34.45C139.517 35.1333 139.167 36.1583 139.167 37.525V44H136.042ZM153.691 44V41.3L153.516 40.725V36C153.516 35.0833 153.241 34.375 152.691 33.875C152.141 33.3583 151.308 33.1 150.191 33.1C149.441 33.1 148.699 33.2167 147.966 33.45C147.249 33.6833 146.641 34.0083 146.141 34.425L144.916 32.15C145.633 31.6 146.483 31.1917 147.466 30.925C148.466 30.6417 149.499 30.5 150.566 30.5C152.499 30.5 153.991 30.9667 155.041 31.9C156.108 32.8167 156.641 34.2417 156.641 36.175V44H153.691ZM149.491 44.175C148.491 44.175 147.616 44.0083 146.866 43.675C146.116 43.325 145.533 42.85 145.116 42.25C144.716 41.6333 144.516 40.9417 144.516 40.175C144.516 39.425 144.691 38.75 145.041 38.15C145.408 37.55 145.999 37.075 146.816 36.725C147.633 36.375 148.716 36.2 150.066 36.2H153.941V38.275H150.291C149.224 38.275 148.508 38.45 148.141 38.8C147.774 39.1333 147.591 39.55 147.591 40.05C147.591 40.6167 147.816 41.0667 148.266 41.4C148.716 41.7333 149.341 41.9 150.141 41.9C150.908 41.9 151.591 41.725 152.191 41.375C152.808 41.025 153.249 40.5083 153.516 39.825L154.041 41.7C153.741 42.4833 153.199 43.0917 152.416 43.525C151.649 43.9583 150.674 44.175 149.491 44.175ZM166.726 49.025C165.493 49.025 164.284 48.8583 163.101 48.525C161.934 48.2083 160.976 47.7417 160.226 47.125L161.626 44.775C162.209 45.2583 162.943 45.6417 163.826 45.925C164.726 46.225 165.634 46.375 166.551 46.375C168.018 46.375 169.093 46.0333 169.776 45.35C170.459 44.6833 170.801 43.675 170.801 42.325V39.95L171.051 36.925L170.951 33.9V30.65H173.926V41.975C173.926 44.3917 173.309 46.1667 172.076 47.3C170.843 48.45 169.059 49.025 166.726 49.025ZM166.326 43.4C165.059 43.4 163.909 43.1333 162.876 42.6C161.859 42.05 161.051 41.2917 160.451 40.325C159.868 39.3583 159.576 38.225 159.576 36.925C159.576 35.6417 159.868 34.5167 160.451 33.55C161.051 32.5833 161.859 31.8333 162.876 31.3C163.909 30.7667 165.059 30.5 166.326 30.5C167.459 30.5 168.476 30.725 169.376 31.175C170.276 31.625 170.993 32.325 171.526 33.275C172.076 34.225 172.351 35.4417 172.351 36.925C172.351 38.4083 172.076 39.6333 171.526 40.6C170.993 41.55 170.276 42.2583 169.376 42.725C168.476 43.175 167.459 43.4 166.326 43.4ZM166.801 40.75C167.584 40.75 168.284 40.5917 168.901 40.275C169.518 39.9417 169.993 39.4917 170.326 38.925C170.676 38.3417 170.851 37.675 170.851 36.925C170.851 36.175 170.676 35.5167 170.326 34.95C169.993 34.3667 169.518 33.925 168.901 33.625C168.284 33.3083 167.584 33.15 166.801 33.15C166.018 33.15 165.309 33.3083 164.676 33.625C164.059 33.925 163.576 34.3667 163.226 34.95C162.893 35.5167 162.726 36.175 162.726 36.925C162.726 37.675 162.893 38.3417 163.226 38.925C163.576 39.4917 164.059 39.9417 164.676 40.275C165.309 40.5917 166.018 40.75 166.801 40.75ZM184.309 44.175C182.826 44.175 181.526 43.8833 180.409 43.3C179.309 42.7 178.451 41.8833 177.834 40.85C177.234 39.8167 176.934 38.6417 176.934 37.325C176.934 35.9917 177.226 34.8167 177.809 33.8C178.409 32.7667 179.226 31.9583 180.259 31.375C181.309 30.7917 182.501 30.5 183.834 30.5C185.134 30.5 186.293 30.7833 187.309 31.35C188.326 31.9167 189.126 32.7167 189.709 33.75C190.293 34.7833 190.584 36 190.584 37.4C190.584 37.5333 190.576 37.6833 190.559 37.85C190.559 38.0167 190.551 38.175 190.534 38.325H179.409V36.25H188.884L187.659 36.9C187.676 36.1333 187.518 35.4583 187.184 34.875C186.851 34.2917 186.393 33.8333 185.809 33.5C185.243 33.1667 184.584 33 183.834 33C183.068 33 182.393 33.1667 181.809 33.5C181.243 33.8333 180.793 34.3 180.459 34.9C180.143 35.4833 179.984 36.175 179.984 36.975V37.475C179.984 38.275 180.168 38.9833 180.534 39.6C180.901 40.2167 181.418 40.6917 182.084 41.025C182.751 41.3583 183.518 41.525 184.384 41.525C185.134 41.525 185.809 41.4083 186.409 41.175C187.009 40.9417 187.543 40.575 188.009 40.075L189.684 42C189.084 42.7 188.326 43.2417 187.409 43.625C186.509 43.9917 185.476 44.175 184.309 44.175Z" fill="#131414"/>
<defs>
<clipPath id="clip0_201_1474">
<rect width="70" height="70" fill="white"/>
</clipPath>
</defs>
</svg>
