<svg width="252" height="118" viewBox="0 0 252 118" fill="none" xmlns="http://www.w3.org/2000/svg">
<rect x="0.5" y="0.5" width="251" height="117" rx="19.5" stroke="#DBDBDB"/>
<path d="M75.047 40.0001C73.492 40.0051 72.4139 40.1421 71.111 40.3671C67.263 41.0371 66.562 42.4441 66.562 45.0371V49.0001H75.562V51.0001H66.22H61.87C59.234 51.0001 56.927 52.2421 56.196 55.2191C55.37 58.6361 55.333 60.7761 56.196 64.3441C56.851 67.0051 58.294 69.0001 60.931 69.0001H64.563V63.8961C64.563 60.9301 67.249 58.0001 70.327 58.0001H77.563C80.086 58.0001 82.563 56.1381 82.563 53.6231V45.0371C82.563 42.5981 80.8039 40.7741 78.3449 40.3651C78.406 40.3591 76.589 39.9941 75.047 40.0001ZM70.063 44.0001C70.884 44.0001 71.563 44.6771 71.563 45.5021C71.563 46.3351 70.884 47.0001 70.063 47.0001C69.226 47.0001 68.563 46.3361 68.563 45.5021C68.563 44.6801 69.226 44.0001 70.063 44.0001Z" fill="#0277BD"/>
<path d="M74.078 78C75.633 77.995 76.711 77.858 78.014 77.633C81.862 76.963 82.563 75.556 82.563 72.963V69H73.563V67H82.906H87.256C89.892 67 92.199 65.758 92.93 62.781C93.756 59.364 93.793 57.224 92.93 53.656C92.274 50.995 90.831 49 88.194 49H84.562V54.104C84.562 57.07 81.876 60 78.798 60H71.562C69.039 60 66.562 61.862 66.562 64.377V72.963C66.562 75.402 68.321 77.226 70.78 77.635C70.719 77.641 72.536 78.006 74.078 78ZM79.063 74C78.242 74 77.563 73.323 77.563 72.498C77.563 71.665 78.242 71 79.063 71C79.9 71 80.563 71.664 80.563 72.498C80.563 73.32 79.899 74 79.063 74Z" fill="#FFC107"/>
<path d="M121.629 66.5V51.1H127.635C128.985 51.1 130.136 51.3127 131.089 51.738C132.043 52.1633 132.776 52.7793 133.289 53.586C133.803 54.3927 134.059 55.3533 134.059 56.468C134.059 57.5827 133.803 58.5433 133.289 59.35C132.776 60.142 132.043 60.758 131.089 61.198C130.136 61.6233 128.985 61.836 127.635 61.836H122.839L123.829 60.802V66.5H121.629ZM123.829 61.022L122.839 59.922H127.569C128.977 59.922 130.041 59.6213 130.759 59.02C131.493 58.4187 131.859 57.568 131.859 56.468C131.859 55.368 131.493 54.5173 130.759 53.916C130.041 53.3147 128.977 53.014 127.569 53.014H122.839L123.829 51.914V61.022ZM137.554 70.9C136.997 70.9 136.454 70.8047 135.926 70.614C135.398 70.438 134.943 70.174 134.562 69.822L135.464 68.238C135.757 68.5167 136.08 68.7293 136.432 68.876C136.784 69.0227 137.158 69.096 137.554 69.096C138.067 69.096 138.493 68.964 138.83 68.7C139.167 68.436 139.483 67.9667 139.776 67.292L140.502 65.686L140.722 65.422L145.298 54.84H147.366L141.712 67.666C141.375 68.4873 140.993 69.1327 140.568 69.602C140.157 70.0713 139.703 70.4013 139.204 70.592C138.705 70.7973 138.155 70.9 137.554 70.9ZM140.326 66.874L135.002 54.84H137.202L141.734 65.224L140.326 66.874ZM153.663 66.632C152.49 66.632 151.581 66.3167 150.935 65.686C150.29 65.0553 149.967 64.1533 149.967 62.98V52.288H152.079V62.892C152.079 63.5227 152.233 64.0067 152.541 64.344C152.864 64.6813 153.319 64.85 153.905 64.85C154.565 64.85 155.115 64.6667 155.555 64.3L156.215 65.818C155.893 66.0967 155.504 66.302 155.049 66.434C154.609 66.566 154.147 66.632 153.663 66.632ZM147.987 56.578V54.84H155.423V56.578H147.987ZM164.995 54.73C165.948 54.73 166.784 54.9133 167.503 55.28C168.236 55.6467 168.808 56.204 169.219 56.952C169.629 57.7 169.835 58.646 169.835 59.79V66.5H167.723V60.032C167.723 58.9027 167.444 58.052 166.887 57.48C166.344 56.908 165.574 56.622 164.577 56.622C163.829 56.622 163.176 56.7687 162.619 57.062C162.061 57.3553 161.629 57.788 161.321 58.36C161.027 58.932 160.881 59.6433 160.881 60.494V66.5H158.769V50.176H160.881V57.986L160.463 57.15C160.844 56.3873 161.431 55.7933 162.223 55.368C163.015 54.9427 163.939 54.73 164.995 54.73ZM178.737 66.632C177.564 66.632 176.523 66.3753 175.613 65.862C174.704 65.3487 173.985 64.6447 173.457 63.75C172.929 62.8407 172.665 61.814 172.665 60.67C172.665 59.5113 172.929 58.4847 173.457 57.59C173.985 56.6953 174.704 55.9987 175.613 55.5C176.523 54.9867 177.564 54.73 178.737 54.73C179.896 54.73 180.93 54.9867 181.839 55.5C182.763 55.9987 183.482 56.6953 183.995 57.59C184.523 58.47 184.787 59.4967 184.787 60.67C184.787 61.8287 184.523 62.8553 183.995 63.75C183.482 64.6447 182.763 65.3487 181.839 65.862C180.93 66.3753 179.896 66.632 178.737 66.632ZM178.737 64.784C179.485 64.784 180.153 64.6153 180.739 64.278C181.341 63.9407 181.81 63.464 182.147 62.848C182.485 62.2173 182.653 61.4913 182.653 60.67C182.653 59.834 182.485 59.1153 182.147 58.514C181.81 57.898 181.341 57.4213 180.739 57.084C180.153 56.7467 179.485 56.578 178.737 56.578C177.989 56.578 177.322 56.7467 176.735 57.084C176.149 57.4213 175.679 57.898 175.327 58.514C174.975 59.1153 174.799 59.834 174.799 60.67C174.799 61.4913 174.975 62.2173 175.327 62.848C175.679 63.464 176.149 63.9407 176.735 64.278C177.322 64.6153 177.989 64.784 178.737 64.784ZM193.934 54.73C194.887 54.73 195.723 54.9133 196.442 55.28C197.175 55.6467 197.747 56.204 198.158 56.952C198.569 57.7 198.774 58.646 198.774 59.79V66.5H196.662V60.032C196.662 58.9027 196.383 58.052 195.826 57.48C195.283 56.908 194.513 56.622 193.516 56.622C192.768 56.622 192.115 56.7687 191.558 57.062C191.001 57.3553 190.568 57.788 190.26 58.36C189.967 58.932 189.82 59.6433 189.82 60.494V66.5H187.708V54.84H189.732V57.986L189.402 57.15C189.783 56.3873 190.37 55.7933 191.162 55.368C191.954 54.9427 192.878 54.73 193.934 54.73Z" fill="#494B51"/>
</svg>
