<svg width="236" height="118" viewBox="0 0 236 118" fill="none" xmlns="http://www.w3.org/2000/svg">
<rect x="0.5" y="0.5" width="235" height="117" rx="19.5" stroke="#DBDBDB"/>
<path d="M75 41L68.99 47.35L62.97 53.69L57 60V41H75Z" fill="#0D91D6"/>
<path d="M75 41H74.96L68.97 47.33L62.96 53.68L57 59.97V60V60.09V77L65.69 68.31L71.87 62.13L78.06 55.94L84.25 49.75L93 41H75Z" fill="#F88909"/>
<path d="M65.69 68.3098L57 76.9998V60.0898L65.69 68.3098Z" fill="#C757BC"/>
<path d="M71.87 62.1299L65.69 68.3099L57 60.0899V59.9999L62.97 53.6899L71.87 62.1299Z" fill="#D3638F"/>
<path d="M78.0602 55.9401L71.8702 62.1301L62.9702 53.6901L68.9902 47.3501L78.0602 55.9401Z" fill="#E07063"/>
<path d="M84.2502 49.75L78.0602 55.94L68.9902 47.35L75.0002 41L84.2502 49.75Z" fill="#EC7D36"/>
<path d="M93 41L84.25 49.75L75 41H93Z" fill="#F88909"/>
<path d="M62.51 54.1499L58.99 57.8799L57 55.9999V48.9399L62.51 54.1499Z" fill="#0095D5"/>
<path d="M66.03 50.4201L62.51 54.1501L57 48.9401V41.8701L66.03 50.4201Z" fill="#2B88DA"/>
<path d="M69.56 46.7L66.03 50.42L57 41.87V41H63.53L69.56 46.7Z" fill="#557BDE"/>
<path d="M73.0798 42.97L69.5598 46.7L63.5298 41H74.9998L73.0798 42.97Z" fill="#806EE3"/>
<path d="M74 60L57 77H60.35H68.52H91L74 60Z" fill="#0095D5"/>
<path d="M76.6798 76.9999H68.5198L62.7598 71.2499L66.8398 67.1699L76.6798 76.9999Z" fill="#2B88DA"/>
<path d="M84.8598 76.9998H76.6798L66.8398 67.1698L70.9198 63.0898L84.8598 76.9998Z" fill="#557BDE"/>
<path d="M92.9999 77H84.8599L70.9199 63.09L74.9999 59L92.9999 77Z" fill="#806EE3"/>
<path d="M123.429 62.782L123.319 60.098L132.053 51.1H134.561L127.807 58.228L126.575 59.592L123.429 62.782ZM121.493 66.5V51.1H123.693V66.5H121.493ZM132.405 66.5L126.091 59.152L127.565 57.524L134.979 66.5H132.405ZM141.475 66.632C140.302 66.632 139.261 66.3753 138.351 65.862C137.442 65.3487 136.723 64.6447 136.195 63.75C135.667 62.8407 135.403 61.814 135.403 60.67C135.403 59.5113 135.667 58.4847 136.195 57.59C136.723 56.6953 137.442 55.9987 138.351 55.5C139.261 54.9867 140.302 54.73 141.475 54.73C142.634 54.73 143.668 54.9867 144.577 55.5C145.501 55.9987 146.22 56.6953 146.733 57.59C147.261 58.47 147.525 59.4967 147.525 60.67C147.525 61.8287 147.261 62.8553 146.733 63.75C146.22 64.6447 145.501 65.3487 144.577 65.862C143.668 66.3753 142.634 66.632 141.475 66.632ZM141.475 64.784C142.223 64.784 142.891 64.6153 143.477 64.278C144.079 63.9407 144.548 63.464 144.885 62.848C145.223 62.2173 145.391 61.4913 145.391 60.67C145.391 59.834 145.223 59.1153 144.885 58.514C144.548 57.898 144.079 57.4213 143.477 57.084C142.891 56.7467 142.223 56.578 141.475 56.578C140.727 56.578 140.06 56.7467 139.473 57.084C138.887 57.4213 138.417 57.898 138.065 58.514C137.713 59.1153 137.537 59.834 137.537 60.67C137.537 61.4913 137.713 62.2173 138.065 62.848C138.417 63.464 138.887 63.9407 139.473 64.278C140.06 64.6153 140.727 64.784 141.475 64.784ZM154.45 66.632C153.277 66.632 152.368 66.3167 151.722 65.686C151.077 65.0553 150.754 64.1533 150.754 62.98V52.288H152.866V62.892C152.866 63.5227 153.02 64.0067 153.328 64.344C153.651 64.6813 154.106 64.85 154.692 64.85C155.352 64.85 155.902 64.6667 156.342 64.3L157.002 65.818C156.68 66.0967 156.291 66.302 155.836 66.434C155.396 66.566 154.934 66.632 154.45 66.632ZM148.774 56.578V54.84H156.21V56.578H148.774ZM159.556 66.5V50.176H161.668V66.5H159.556ZM165.7 66.5V54.84H167.812V66.5H165.7ZM166.756 52.596C166.346 52.596 166.001 52.464 165.722 52.2C165.458 51.936 165.326 51.6133 165.326 51.232C165.326 50.836 165.458 50.506 165.722 50.242C166.001 49.978 166.346 49.846 166.756 49.846C167.167 49.846 167.504 49.978 167.768 50.242C168.047 50.4913 168.186 50.8067 168.186 51.188C168.186 51.584 168.054 51.9213 167.79 52.2C167.526 52.464 167.182 52.596 166.756 52.596ZM178.071 54.73C179.024 54.73 179.86 54.9133 180.579 55.28C181.312 55.6467 181.884 56.204 182.295 56.952C182.705 57.7 182.911 58.646 182.911 59.79V66.5H180.799V60.032C180.799 58.9027 180.52 58.052 179.963 57.48C179.42 56.908 178.65 56.622 177.653 56.622C176.905 56.622 176.252 56.7687 175.695 57.062C175.137 57.3553 174.705 57.788 174.397 58.36C174.103 58.932 173.957 59.6433 173.957 60.494V66.5H171.845V54.84H173.869V57.986L173.539 57.15C173.92 56.3873 174.507 55.7933 175.299 55.368C176.091 54.9427 177.015 54.73 178.071 54.73Z" fill="#494B51"/>
</svg>
