<svg width="260" height="118" viewBox="0 0 260 118" fill="none" xmlns="http://www.w3.org/2000/svg">
<rect x="0.5" y="0.5" width="259" height="117" rx="19.5" stroke="#DBDBDB"/>
<path d="M75 40.7617L57.125 47.1328L59.8516 70.7695L75 79.1602L90.1484 70.7695L92.875 47.1328L75 40.7617Z" fill="#DD0031"/>
<path d="M75 40.7617V45.0234V45.0039V79.1602L90.1484 70.7695L92.875 47.1328L75 40.7617Z" fill="#C3002F"/>
<path d="M75 45.0039L63.8242 70.0586H67.9922L70.2383 64.4531H79.7227L81.9688 70.0586H86.1367L75 45.0039ZM78.2656 60.9961H71.7344L75 53.1445L78.2656 60.9961Z" fill="white"/>
<path d="M119.237 66.5L126.211 51.1H128.389L135.385 66.5H133.075L126.849 52.332H127.729L121.503 66.5H119.237ZM122.207 62.65L122.801 60.89H131.469L132.107 62.65H122.207ZM143.6 54.73C144.553 54.73 145.389 54.9133 146.108 55.28C146.841 55.6467 147.413 56.204 147.824 56.952C148.235 57.7 148.44 58.646 148.44 59.79V66.5H146.328V60.032C146.328 58.9027 146.049 58.052 145.492 57.48C144.949 56.908 144.179 56.622 143.182 56.622C142.434 56.622 141.781 56.7687 141.224 57.062C140.667 57.3553 140.234 57.788 139.926 58.36C139.633 58.932 139.486 59.6433 139.486 60.494V66.5H137.374V54.84H139.398V57.986L139.068 57.15C139.449 56.3873 140.036 55.7933 140.828 55.368C141.62 54.9427 142.544 54.73 143.6 54.73ZM157.453 70.9C156.382 70.9 155.341 70.746 154.329 70.438C153.331 70.1447 152.517 69.7193 151.887 69.162L152.899 67.534C153.441 68.0033 154.109 68.37 154.901 68.634C155.693 68.9127 156.521 69.052 157.387 69.052C158.765 69.052 159.777 68.7293 160.423 68.084C161.068 67.4387 161.391 66.456 161.391 65.136V62.672L161.611 60.362L161.501 58.03V54.84H163.503V64.916C163.503 66.9693 162.989 68.48 161.963 69.448C160.936 70.416 159.433 70.9 157.453 70.9ZM157.189 66.016C156.059 66.016 155.047 65.7813 154.153 65.312C153.273 64.828 152.569 64.1607 152.041 63.31C151.527 62.4593 151.271 61.4767 151.271 60.362C151.271 59.2327 151.527 58.25 152.041 57.414C152.569 56.5633 153.273 55.9033 154.153 55.434C155.047 54.9647 156.059 54.73 157.189 54.73C158.186 54.73 159.095 54.9353 159.917 55.346C160.738 55.742 161.391 56.358 161.875 57.194C162.373 58.03 162.623 59.086 162.623 60.362C162.623 61.6233 162.373 62.672 161.875 63.508C161.391 64.344 160.738 64.9747 159.917 65.4C159.095 65.8107 158.186 66.016 157.189 66.016ZM157.431 64.168C158.208 64.168 158.897 64.0067 159.499 63.684C160.1 63.3613 160.569 62.914 160.907 62.342C161.259 61.77 161.435 61.11 161.435 60.362C161.435 59.614 161.259 58.954 160.907 58.382C160.569 57.81 160.1 57.37 159.499 57.062C158.897 56.7393 158.208 56.578 157.431 56.578C156.653 56.578 155.957 56.7393 155.341 57.062C154.739 57.37 154.263 57.81 153.911 58.382C153.573 58.954 153.405 59.614 153.405 60.362C153.405 61.11 153.573 61.77 153.911 62.342C154.263 62.914 154.739 63.3613 155.341 63.684C155.957 64.0067 156.653 64.168 157.431 64.168ZM172.444 66.632C171.447 66.632 170.567 66.4487 169.804 66.082C169.056 65.7153 168.469 65.158 168.044 64.41C167.633 63.6473 167.428 62.694 167.428 61.55V54.84H169.54V61.308C169.54 62.452 169.811 63.31 170.354 63.882C170.911 64.454 171.689 64.74 172.686 64.74C173.419 64.74 174.057 64.5933 174.6 64.3C175.143 63.992 175.561 63.552 175.854 62.98C176.147 62.3933 176.294 61.6893 176.294 60.868V54.84H178.406V66.5H176.404V63.354L176.734 64.19C176.353 64.9673 175.781 65.5687 175.018 65.994C174.255 66.4193 173.397 66.632 172.444 66.632ZM182.427 66.5V50.176H184.539V66.5H182.427ZM195.809 66.5V64.036L195.699 63.574V59.372C195.699 58.4773 195.435 57.788 194.907 57.304C194.394 56.8053 193.617 56.556 192.575 56.556C191.886 56.556 191.211 56.6733 190.551 56.908C189.891 57.128 189.334 57.4287 188.879 57.81L187.999 56.226C188.601 55.742 189.319 55.3753 190.155 55.126C191.006 54.862 191.893 54.73 192.817 54.73C194.416 54.73 195.648 55.1187 196.513 55.896C197.379 56.6733 197.811 57.8613 197.811 59.46V66.5H195.809ZM191.981 66.632C191.116 66.632 190.353 66.4853 189.693 66.192C189.048 65.8987 188.549 65.4953 188.197 64.982C187.845 64.454 187.669 63.86 187.669 63.2C187.669 62.5693 187.816 61.9973 188.109 61.484C188.417 60.9707 188.909 60.56 189.583 60.252C190.273 59.944 191.197 59.79 192.355 59.79H196.051V61.308H192.443C191.387 61.308 190.676 61.484 190.309 61.836C189.943 62.188 189.759 62.6133 189.759 63.112C189.759 63.684 189.987 64.146 190.441 64.498C190.896 64.8353 191.527 65.004 192.333 65.004C193.125 65.004 193.815 64.828 194.401 64.476C195.003 64.124 195.435 63.6107 195.699 62.936L196.117 64.388C195.839 65.0773 195.347 65.6273 194.643 66.038C193.939 66.434 193.052 66.632 191.981 66.632ZM201.72 66.5V54.84H203.744V58.008L203.546 57.216C203.868 56.4093 204.411 55.7933 205.174 55.368C205.936 54.9427 206.875 54.73 207.99 54.73V56.776C207.902 56.7613 207.814 56.754 207.726 56.754C207.652 56.754 207.579 56.754 207.506 56.754C206.376 56.754 205.482 57.0913 204.822 57.766C204.162 58.4407 203.832 59.416 203.832 60.692V66.5H201.72Z" fill="#494B51"/>
</svg>
