<svg width="285" height="118" viewBox="0 0 285 118" fill="none" xmlns="http://www.w3.org/2000/svg">
<rect x="0.5" y="0.5" width="284" height="117" rx="19.5" stroke="#DBDBDB"/>
<path d="M57 77V41H93V77H57Z" fill="#FFD600"/>
<path d="M80.538 67.947C81.23 69.071 81.982 70.148 83.575 70.148C84.913 70.148 85.615 69.483 85.615 68.563C85.615 67.462 84.889 67.071 83.417 66.43L82.61 66.086C80.281 65.098 78.732 63.86 78.732 61.245C78.732 58.835 80.577 57.001 83.46 57.001C85.513 57.001 86.988 57.712 88.052 59.574L85.538 61.181C84.985 60.193 84.387 59.804 83.46 59.804C82.514 59.804 81.915 60.401 81.915 61.181C81.915 62.145 82.515 62.535 83.9 63.132L84.707 63.476C87.452 64.645 89 65.839 89 68.523C89 71.415 86.716 73 83.65 73C80.651 73 78.948 71.495 78 69.632L80.538 67.947ZM68.952 68.029C69.458 68.935 70.227 69.632 71.333 69.632C72.391 69.632 73 69.214 73 67.589V57H76.333V68.101C76.333 71.468 74.38 73 71.528 73C68.951 73 67.091 71.254 66.333 69.632L68.952 68.029Z" fill="#131414"/>
<path d="M123.47 66.676C122.56 66.676 121.71 66.4853 120.918 66.104C120.126 65.7227 119.48 65.1727 118.982 64.454L120.258 62.958C120.683 63.5447 121.16 63.9993 121.688 64.322C122.23 64.63 122.824 64.784 123.47 64.784C125.23 64.784 126.11 63.7427 126.11 61.66V53.014H120.544V51.1H128.288V61.55C128.288 63.266 127.877 64.5493 127.056 65.4C126.249 66.2507 125.054 66.676 123.47 66.676ZM139.699 66.5V64.036L139.589 63.574V59.372C139.589 58.4773 139.325 57.788 138.797 57.304C138.284 56.8053 137.506 56.556 136.465 56.556C135.776 56.556 135.101 56.6733 134.441 56.908C133.781 57.128 133.224 57.4287 132.769 57.81L131.889 56.226C132.49 55.742 133.209 55.3753 134.045 55.126C134.896 54.862 135.783 54.73 136.707 54.73C138.306 54.73 139.538 55.1187 140.403 55.896C141.268 56.6733 141.701 57.8613 141.701 59.46V66.5H139.699ZM135.871 66.632C135.006 66.632 134.243 66.4853 133.583 66.192C132.938 65.8987 132.439 65.4953 132.087 64.982C131.735 64.454 131.559 63.86 131.559 63.2C131.559 62.5693 131.706 61.9973 131.999 61.484C132.307 60.9707 132.798 60.56 133.473 60.252C134.162 59.944 135.086 59.79 136.245 59.79H139.941V61.308H136.333C135.277 61.308 134.566 61.484 134.199 61.836C133.832 62.188 133.649 62.6133 133.649 63.112C133.649 63.684 133.876 64.146 134.331 64.498C134.786 64.8353 135.416 65.004 136.223 65.004C137.015 65.004 137.704 64.828 138.291 64.476C138.892 64.124 139.325 63.6107 139.589 62.936L140.007 64.388C139.728 65.0773 139.237 65.6273 138.533 66.038C137.829 66.434 136.942 66.632 135.871 66.632ZM148.453 66.5L143.349 54.84H145.549L150.081 65.4H149.025L153.645 54.84H155.713L150.609 66.5H148.453ZM164.556 66.5V64.036L164.446 63.574V59.372C164.446 58.4773 164.182 57.788 163.654 57.304C163.141 56.8053 162.364 56.556 161.322 56.556C160.633 56.556 159.958 56.6733 159.298 56.908C158.638 57.128 158.081 57.4287 157.626 57.81L156.746 56.226C157.348 55.742 158.066 55.3753 158.902 55.126C159.753 54.862 160.64 54.73 161.564 54.73C163.163 54.73 164.395 55.1187 165.26 55.896C166.126 56.6733 166.558 57.8613 166.558 59.46V66.5H164.556ZM160.728 66.632C159.863 66.632 159.1 66.4853 158.44 66.192C157.795 65.8987 157.296 65.4953 156.944 64.982C156.592 64.454 156.416 63.86 156.416 63.2C156.416 62.5693 156.563 61.9973 156.856 61.484C157.164 60.9707 157.656 60.56 158.33 60.252C159.02 59.944 159.944 59.79 161.102 59.79H164.798V61.308H161.19C160.134 61.308 159.423 61.484 159.056 61.836C158.69 62.188 158.506 62.6133 158.506 63.112C158.506 63.684 158.734 64.146 159.188 64.498C159.643 64.8353 160.274 65.004 161.08 65.004C161.872 65.004 162.562 64.828 163.148 64.476C163.75 64.124 164.182 63.6107 164.446 62.936L164.864 64.388C164.586 65.0773 164.094 65.6273 163.39 66.038C162.686 66.434 161.799 66.632 160.728 66.632ZM175.263 66.676C174.09 66.676 172.968 66.5 171.897 66.148C170.826 65.7813 169.983 65.312 169.367 64.74L170.181 63.024C170.768 63.5373 171.516 63.9627 172.425 64.3C173.334 64.6373 174.28 64.806 175.263 64.806C176.158 64.806 176.884 64.7033 177.441 64.498C177.998 64.2927 178.409 64.014 178.673 63.662C178.937 63.2953 179.069 62.8847 179.069 62.43C179.069 61.902 178.893 61.4767 178.541 61.154C178.204 60.8313 177.756 60.5747 177.199 60.384C176.656 60.1787 176.055 60.0027 175.395 59.856C174.735 59.7093 174.068 59.5407 173.393 59.35C172.733 59.1447 172.124 58.888 171.567 58.58C171.024 58.272 170.584 57.8613 170.247 57.348C169.91 56.82 169.741 56.1453 169.741 55.324C169.741 54.532 169.946 53.806 170.357 53.146C170.782 52.4713 171.428 51.936 172.293 51.54C173.173 51.1293 174.288 50.924 175.637 50.924C176.532 50.924 177.419 51.0413 178.299 51.276C179.179 51.5107 179.942 51.848 180.587 52.288L179.861 54.048C179.201 53.608 178.504 53.2927 177.771 53.102C177.038 52.8967 176.326 52.794 175.637 52.794C174.772 52.794 174.06 52.904 173.503 53.124C172.946 53.344 172.535 53.6373 172.271 54.004C172.022 54.3707 171.897 54.7813 171.897 55.236C171.897 55.7787 172.066 56.2113 172.403 56.534C172.755 56.8567 173.202 57.1133 173.745 57.304C174.302 57.4947 174.911 57.6707 175.571 57.832C176.231 57.9787 176.891 58.1473 177.551 58.338C178.226 58.5287 178.834 58.778 179.377 59.086C179.934 59.394 180.382 59.8047 180.719 60.318C181.056 60.8313 181.225 61.4913 181.225 62.298C181.225 63.0753 181.012 63.8013 180.587 64.476C180.162 65.136 179.502 65.6713 178.607 66.082C177.727 66.478 176.612 66.676 175.263 66.676ZM189.213 66.632C188.025 66.632 186.962 66.3753 186.023 65.862C185.099 65.3487 184.373 64.6447 183.845 63.75C183.317 62.8553 183.053 61.8287 183.053 60.67C183.053 59.5113 183.317 58.4847 183.845 57.59C184.373 56.6953 185.099 55.9987 186.023 55.5C186.962 54.9867 188.025 54.73 189.213 54.73C190.269 54.73 191.208 54.9427 192.029 55.368C192.865 55.7787 193.51 56.3947 193.965 57.216L192.359 58.25C191.978 57.678 191.508 57.26 190.951 56.996C190.408 56.7173 189.822 56.578 189.191 56.578C188.428 56.578 187.746 56.7467 187.145 57.084C186.544 57.4213 186.067 57.898 185.715 58.514C185.363 59.1153 185.187 59.834 185.187 60.67C185.187 61.506 185.363 62.232 185.715 62.848C186.067 63.464 186.544 63.9407 187.145 64.278C187.746 64.6153 188.428 64.784 189.191 64.784C189.822 64.784 190.408 64.652 190.951 64.388C191.508 64.1093 191.978 63.684 192.359 63.112L193.965 64.124C193.51 64.9307 192.865 65.554 192.029 65.994C191.208 66.4193 190.269 66.632 189.213 66.632ZM196.699 66.5V54.84H198.723V58.008L198.525 57.216C198.848 56.4093 199.391 55.7933 200.153 55.368C200.916 54.9427 201.855 54.73 202.969 54.73V56.776C202.881 56.7613 202.793 56.754 202.705 56.754C202.632 56.754 202.559 56.754 202.485 56.754C201.356 56.754 200.461 57.0913 199.801 57.766C199.141 58.4407 198.811 59.416 198.811 60.692V66.5H196.699ZM205.572 66.5V54.84H207.684V66.5H205.572ZM206.628 52.596C206.218 52.596 205.873 52.464 205.594 52.2C205.33 51.936 205.198 51.6133 205.198 51.232C205.198 50.836 205.33 50.506 205.594 50.242C205.873 49.978 206.218 49.846 206.628 49.846C207.039 49.846 207.376 49.978 207.64 50.242C207.919 50.4913 208.058 50.8067 208.058 51.188C208.058 51.584 207.926 51.9213 207.662 52.2C207.398 52.464 207.054 52.596 206.628 52.596ZM217.899 66.632C216.931 66.632 216.044 66.412 215.237 65.972C214.445 65.5173 213.807 64.85 213.323 63.97C212.854 63.09 212.619 61.99 212.619 60.67C212.619 59.35 212.846 58.25 213.301 57.37C213.77 56.49 214.401 55.83 215.193 55.39C216 54.95 216.902 54.73 217.899 54.73C219.043 54.73 220.055 54.9793 220.935 55.478C221.815 55.9767 222.512 56.6733 223.025 57.568C223.538 58.448 223.795 59.482 223.795 60.67C223.795 61.858 223.538 62.8993 223.025 63.794C222.512 64.6887 221.815 65.3853 220.935 65.884C220.055 66.3827 219.043 66.632 217.899 66.632ZM211.717 70.768V54.84H213.741V57.986L213.609 60.692L213.829 63.398V70.768H211.717ZM217.723 64.784C218.471 64.784 219.138 64.6153 219.725 64.278C220.326 63.9407 220.796 63.464 221.133 62.848C221.485 62.2173 221.661 61.4913 221.661 60.67C221.661 59.834 221.485 59.1153 221.133 58.514C220.796 57.898 220.326 57.4213 219.725 57.084C219.138 56.7467 218.471 56.578 217.723 56.578C216.99 56.578 216.322 56.7467 215.721 57.084C215.134 57.4213 214.665 57.898 214.313 58.514C213.976 59.1153 213.807 59.834 213.807 60.67C213.807 61.4913 213.976 62.2173 214.313 62.848C214.665 63.464 215.134 63.9407 215.721 64.278C216.322 64.6153 216.99 64.784 217.723 64.784ZM230.717 66.632C229.544 66.632 228.634 66.3167 227.989 65.686C227.344 65.0553 227.021 64.1533 227.021 62.98V52.288H229.133V62.892C229.133 63.5227 229.287 64.0067 229.595 64.344C229.918 64.6813 230.372 64.85 230.959 64.85C231.619 64.85 232.169 64.6667 232.609 64.3L233.269 65.818C232.946 66.0967 232.558 66.302 232.103 66.434C231.663 66.566 231.201 66.632 230.717 66.632ZM225.041 56.578V54.84H232.477V56.578H225.041Z" fill="#494B51"/>
</svg>
