<svg width="283" height="118" viewBox="0 0 283 118" fill="none" xmlns="http://www.w3.org/2000/svg">
<rect x="0.5" y="0.5" width="282" height="117" rx="19.5" stroke="#DBDBDB"/>
<path d="M53.861 56.998H56.778C57.828 56.998 59.039 57.894 59.039 58.998C59.039 60.102 57.829 60.998 56.778 60.998H53.861C52.811 60.998 52 60.103 52 58.998C52 57.893 52.811 56.998 53.861 56.998ZM94.021 55.998C92.62 55.998 91.5 57.341 91.5 58.998C91.5 60.655 92.63 61.998 94.021 61.998H98.04L99 60.998H94C93.102 60.951 92.711 60.36 92.5 59.498H98.04L99 58.498H92.5C92.713 57.637 93.092 57.003 94 56.998H98.04L99 55.998H94.021ZM85 55.998V61.424C85 61.572 85.095 61.716 85.201 61.826C85.307 61.936 85.45 61.998 85.606 61.998L89.54 62L90.54 61L86 60.998V56L85 55.998ZM78.842 55.998C77.251 55.998 75.991 57.344 75.991 59.001C75.991 60.658 77.251 61.998 78.842 61.998L82.491 61.986L83.64 60.998H78.821C77.771 60.998 76.981 60.104 76.981 58.999C76.981 57.894 77.771 56.998 78.821 56.998L82.51 57.014L83.64 55.998H78.842ZM72 55.998C71.742 55.998 71.478 56.213 71.33 56.481L68.5 61.998H69.5L72 56.998L73.691 59.998H71.04L71.981 60.978L74.162 60.972L74.82 61.997L75.901 61.988L72.624 56.481C72.394 56.112 72.25 55.998 72 55.998ZM61 55.998V61.998H62V56.998H65C65.515 56.998 66 57.462 66 57.998C66 58.534 65.515 58.998 65 58.998H62.5L65.981 61.998H67.5L65 59.998L65.337 59.989C66.077 59.99 67 59.119 67 57.998C67 56.877 66.313 56.012 65.447 55.998H61ZM53.882 55.998C52.291 55.998 51 57.342 51 58.998C51 60.654 52.291 61.998 53.882 61.998H56.76C58.351 61.998 60 60.655 60 58.998C60 57.341 58.351 55.998 56.76 55.998H53.882Z" fill="#EF0F14"/>
<path d="M128.559 66.676C127.386 66.676 126.293 66.478 125.281 66.082C124.284 65.686 123.418 65.136 122.685 64.432C121.952 63.7133 121.38 62.8773 120.969 61.924C120.558 60.9707 120.353 59.9293 120.353 58.8C120.353 57.6707 120.558 56.6293 120.969 55.676C121.38 54.7227 121.952 53.894 122.685 53.19C123.418 52.4713 124.284 51.914 125.281 51.518C126.278 51.122 127.371 50.924 128.559 50.924C129.732 50.924 130.81 51.122 131.793 51.518C132.79 51.8993 133.656 52.4493 134.389 53.168C135.137 53.872 135.709 54.7007 136.105 55.654C136.516 56.6073 136.721 57.656 136.721 58.8C136.721 59.944 136.516 60.9927 136.105 61.946C135.709 62.8993 135.137 63.7353 134.389 64.454C133.656 65.158 132.79 65.708 131.793 66.104C130.81 66.4853 129.732 66.676 128.559 66.676ZM128.559 64.718C129.41 64.718 130.194 64.5713 130.913 64.278C131.646 63.9847 132.277 63.574 132.805 63.046C133.348 62.5033 133.766 61.8727 134.059 61.154C134.367 60.4353 134.521 59.6507 134.521 58.8C134.521 57.9493 134.367 57.1647 134.059 56.446C133.766 55.7273 133.348 55.104 132.805 54.576C132.277 54.0333 131.646 53.6153 130.913 53.322C130.194 53.0287 129.41 52.882 128.559 52.882C127.694 52.882 126.894 53.0287 126.161 53.322C125.442 53.6153 124.812 54.0333 124.269 54.576C123.726 55.104 123.301 55.7273 122.993 56.446C122.7 57.1647 122.553 57.9493 122.553 58.8C122.553 59.6507 122.7 60.4353 122.993 61.154C123.301 61.8727 123.726 62.5033 124.269 63.046C124.812 63.574 125.442 63.9847 126.161 64.278C126.894 64.5713 127.694 64.718 128.559 64.718ZM139.775 66.5V54.84H141.799V58.008L141.601 57.216C141.924 56.4093 142.467 55.7933 143.229 55.368C143.992 54.9427 144.931 54.73 146.045 54.73V56.776C145.957 56.7613 145.869 56.754 145.781 56.754C145.708 56.754 145.635 56.754 145.561 56.754C144.432 56.754 143.537 57.0913 142.877 57.766C142.217 58.4407 141.887 59.416 141.887 60.692V66.5H139.775ZM155.027 66.5V64.036L154.917 63.574V59.372C154.917 58.4773 154.653 57.788 154.125 57.304C153.612 56.8053 152.834 56.556 151.793 56.556C151.104 56.556 150.429 56.6733 149.769 56.908C149.109 57.128 148.552 57.4287 148.097 57.81L147.217 56.226C147.818 55.742 148.537 55.3753 149.373 55.126C150.224 54.862 151.111 54.73 152.035 54.73C153.634 54.73 154.866 55.1187 155.731 55.896C156.596 56.6733 157.029 57.8613 157.029 59.46V66.5H155.027ZM151.199 66.632C150.334 66.632 149.571 66.4853 148.911 66.192C148.266 65.8987 147.767 65.4953 147.415 64.982C147.063 64.454 146.887 63.86 146.887 63.2C146.887 62.5693 147.034 61.9973 147.327 61.484C147.635 60.9707 148.126 60.56 148.801 60.252C149.49 59.944 150.414 59.79 151.573 59.79H155.269V61.308H151.661C150.605 61.308 149.894 61.484 149.527 61.836C149.16 62.188 148.977 62.6133 148.977 63.112C148.977 63.684 149.204 64.146 149.659 64.498C150.114 64.8353 150.744 65.004 151.551 65.004C152.343 65.004 153.032 64.828 153.619 64.476C154.22 64.124 154.653 63.6107 154.917 62.936L155.335 64.388C155.056 65.0773 154.565 65.6273 153.861 66.038C153.157 66.434 152.27 66.632 151.199 66.632ZM166.02 66.632C164.832 66.632 163.768 66.3753 162.83 65.862C161.906 65.3487 161.18 64.6447 160.652 63.75C160.124 62.8553 159.86 61.8287 159.86 60.67C159.86 59.5113 160.124 58.4847 160.652 57.59C161.18 56.6953 161.906 55.9987 162.83 55.5C163.768 54.9867 164.832 54.73 166.02 54.73C167.076 54.73 168.014 54.9427 168.836 55.368C169.672 55.7787 170.317 56.3947 170.772 57.216L169.166 58.25C168.784 57.678 168.315 57.26 167.758 56.996C167.215 56.7173 166.628 56.578 165.998 56.578C165.235 56.578 164.553 56.7467 163.952 57.084C163.35 57.4213 162.874 57.898 162.522 58.514C162.17 59.1153 161.994 59.834 161.994 60.67C161.994 61.506 162.17 62.232 162.522 62.848C162.874 63.464 163.35 63.9407 163.952 64.278C164.553 64.6153 165.235 64.784 165.998 64.784C166.628 64.784 167.215 64.652 167.758 64.388C168.315 64.1093 168.784 63.684 169.166 63.112L170.772 64.124C170.317 64.9307 169.672 65.554 168.836 65.994C168.014 66.4193 167.076 66.632 166.02 66.632ZM173.356 66.5V50.176H175.468V66.5H173.356ZM184.692 66.632C183.445 66.632 182.345 66.3753 181.392 65.862C180.453 65.3487 179.72 64.6447 179.192 63.75C178.679 62.8553 178.422 61.8287 178.422 60.67C178.422 59.5113 178.671 58.4847 179.17 57.59C179.683 56.6953 180.38 55.9987 181.26 55.5C182.155 54.9867 183.159 54.73 184.274 54.73C185.403 54.73 186.401 54.9793 187.266 55.478C188.131 55.9767 188.806 56.6807 189.29 57.59C189.789 58.4847 190.038 59.5333 190.038 60.736C190.038 60.824 190.031 60.9267 190.016 61.044C190.016 61.1613 190.009 61.2713 189.994 61.374H180.072V59.856H188.894L188.036 60.384C188.051 59.636 187.897 58.9687 187.574 58.382C187.251 57.7953 186.804 57.3407 186.232 57.018C185.675 56.6807 185.022 56.512 184.274 56.512C183.541 56.512 182.888 56.6807 182.316 57.018C181.744 57.3407 181.297 57.8027 180.974 58.404C180.651 58.9907 180.49 59.6653 180.49 60.428V60.78C180.49 61.5573 180.666 62.254 181.018 62.87C181.385 63.4713 181.891 63.9407 182.536 64.278C183.181 64.6153 183.922 64.784 184.758 64.784C185.447 64.784 186.071 64.6667 186.628 64.432C187.2 64.1973 187.699 63.8453 188.124 63.376L189.29 64.74C188.762 65.356 188.102 65.8253 187.31 66.148C186.533 66.4707 185.66 66.632 184.692 66.632ZM199.187 66.5V51.1H205.677C207.32 51.1 208.764 51.4227 210.011 52.068C211.272 52.7133 212.248 53.6153 212.937 54.774C213.641 55.9327 213.993 57.2747 213.993 58.8C213.993 60.3253 213.641 61.6673 212.937 62.826C212.248 63.9847 211.272 64.8867 210.011 65.532C208.764 66.1773 207.32 66.5 205.677 66.5H199.187ZM201.387 64.586H205.545C206.821 64.586 207.921 64.344 208.845 63.86C209.784 63.376 210.51 62.7013 211.023 61.836C211.536 60.956 211.793 59.944 211.793 58.8C211.793 57.6413 211.536 56.6293 211.023 55.764C210.51 54.8987 209.784 54.224 208.845 53.74C207.921 53.256 206.821 53.014 205.545 53.014H201.387V64.586ZM217.363 66.5V51.1H224.271C226.045 51.1 227.409 51.4593 228.363 52.178C229.316 52.882 229.793 53.85 229.793 55.082C229.793 55.918 229.602 56.622 229.221 57.194C228.854 57.766 228.355 58.206 227.725 58.514C227.094 58.822 226.412 58.976 225.679 58.976L226.075 58.316C226.955 58.316 227.732 58.47 228.407 58.778C229.081 59.086 229.617 59.5407 230.013 60.142C230.409 60.7287 230.607 61.462 230.607 62.342C230.607 63.662 230.108 64.6887 229.111 65.422C228.128 66.1407 226.661 66.5 224.711 66.5H217.363ZM219.563 64.718H224.623C225.84 64.718 226.771 64.5127 227.417 64.102C228.062 63.6913 228.385 63.046 228.385 62.166C228.385 61.2713 228.062 60.6187 227.417 60.208C226.771 59.7973 225.84 59.592 224.623 59.592H219.365V57.81H224.073C225.187 57.81 226.053 57.6047 226.669 57.194C227.285 56.7833 227.593 56.1673 227.593 55.346C227.593 54.5247 227.285 53.9087 226.669 53.498C226.053 53.0873 225.187 52.882 224.073 52.882H219.563V64.718Z" fill="#494B51"/>
</svg>
