<svg width="302" height="118" viewBox="0 0 302 118" fill="none" xmlns="http://www.w3.org/2000/svg">
<rect x="0.5" y="0.5" width="301" height="117" rx="19.5" stroke="#DBDBDB"/>
<path d="M95.0832 64.7901C94.9002 63.9611 94.1482 62.9941 92.6312 62.9941C92.3212 62.9941 91.9822 63.0331 91.5962 63.1131C90.8882 63.2591 90.2852 63.3301 89.7542 63.3541C93.8872 56.3141 96.5702 46.5351 93.9132 43.1401C90.4122 38.6671 85.6992 37.9991 83.2022 37.9991L82.9672 38.0001C82.0382 38.0151 81.0742 38.1291 80.1042 38.3391L76.5212 39.1131C76.0332 39.0521 75.5362 39.0091 75.0182 39.0001H74.9882H74.9722L74.8202 38.9991C73.2272 38.9991 71.7742 39.3371 70.4792 39.9721L69.2282 39.4791C67.5082 38.8011 64.9202 37.9941 62.3602 37.9941C62.2162 37.9941 62.0732 37.9971 61.9292 38.0021C59.4072 38.0931 57.2412 39.0501 55.6642 40.7691C53.6962 42.9151 52.8002 46.0541 53.0032 50.1001C53.0132 50.3091 55.4612 71.0001 62.4002 71.0001H62.4252L62.4892 70.9991C63.3902 70.9771 64.2492 70.6151 65.0522 69.9221C65.6652 70.3821 66.4582 70.6541 67.1972 70.7621C67.6852 70.8771 68.5632 71.0401 69.6152 71.0401C70.8992 71.0401 72.0572 70.7771 73.0552 70.3021C73.0542 71.1821 73.0492 72.2961 73.0392 73.7201L73.0382 73.7951L73.0432 73.8701C73.1402 75.2891 73.3852 76.5681 73.7542 77.5711C74.8052 80.4301 76.6202 82.0051 78.8652 82.0051C78.9582 82.0051 79.0532 82.0021 79.1492 81.9961C80.9952 81.8821 82.8662 80.8451 84.1532 79.2241C85.5462 77.4691 85.8682 75.6171 85.9922 74.1981L86.0002 74.1111V74.0231V69.9441L86.1032 69.9541L86.5392 69.9921L86.5812 69.9961L86.6232 69.9981C86.7472 70.0041 86.8752 70.0061 87.0042 70.0061C88.5112 70.0061 90.3662 69.6151 91.6202 69.0321C92.8192 68.4761 95.5592 66.9481 95.0832 64.7901Z" fill="white"/>
<path d="M84.0001 68.9998C84.0001 68.7948 84.0121 68.6238 84.0181 68.4348C84.0081 68.1838 84.0001 67.9998 84.0001 67.9998C84.0001 67.9998 84.0121 67.9908 84.0321 67.9778C84.1811 65.3048 84.9181 64.2748 85.7071 63.6878C85.5971 63.5348 85.4701 63.3698 85.3511 63.2128C85.0181 62.7758 84.6031 62.2338 84.1591 61.5388L84.0771 61.3808C84.0101 61.2168 83.8481 60.9338 83.6421 60.5618C82.4591 58.4218 79.9971 53.9698 81.6821 51.1578C82.4201 49.9258 83.8041 49.2158 85.8031 49.0408C84.9861 46.7178 81.9251 41.1148 74.9851 40.9998C74.9831 40.9998 74.9811 40.9998 74.9791 40.9998C68.9381 40.9018 66.9531 46.3918 66.3071 49.6718C67.1971 49.2948 68.2131 49.0658 69.1431 49.0658C69.1571 49.0658 69.1721 49.0658 69.1861 49.0658C71.4761 49.0828 73.0511 50.3048 73.5091 52.4198C73.8441 53.9718 74.0051 55.3298 74.0011 56.5728C73.9911 59.2918 73.4431 60.7218 72.9591 61.9838L72.8051 62.3918C72.6811 62.7258 72.5501 63.0368 72.4261 63.3288C72.3001 63.6268 72.1891 63.8918 72.1081 64.1308C72.5921 64.2408 72.9721 64.3958 73.2331 64.5108L73.3841 64.5768C73.4311 64.5968 73.4781 64.6198 73.5211 64.6458C74.3691 65.1618 74.8971 65.9548 75.0101 66.8788C75.0711 67.3768 75.0611 70.7718 75.0401 73.7338C75.1271 75.0188 75.3451 76.0978 75.6331 76.8798C76.0421 77.9938 77.0641 80.1208 79.0271 79.9988C80.3971 79.9138 81.7141 79.0798 82.5881 77.9798C83.5261 76.7988 83.8721 75.4928 84.0021 74.0218V68.9998H84.0001Z" fill="#0277BD"/>
<path d="M66.1139 63.9171C64.5009 62.2341 63.7149 59.9701 64.0099 57.8611C64.2949 55.8261 64.1339 53.8341 64.0469 52.7631C64.0179 52.4061 63.9989 52.1401 63.9999 51.9931C63.9999 51.9851 64.0019 51.9781 64.0029 51.9701C64.0029 51.9661 64.0009 51.9631 64.0009 51.9591C64.1219 48.9381 65.2869 44.1721 68.4939 41.3391C66.9319 40.7241 64.3879 39.9131 61.9999 40.0001C58.2579 40.1361 54.6359 42.7241 54.9999 50.0001C55.1369 52.7301 58.2219 69.1031 62.4399 69.0001C63.0429 68.9851 63.6689 68.5981 64.3119 67.8241C65.3289 66.6011 66.3169 65.4921 67.0199 64.7201C66.7049 64.4811 66.4009 64.2171 66.1139 63.9171ZM88.0229 49.7311C88.0379 49.8851 88.0249 50.0171 88.0009 50.1391C88.0319 51.0591 87.9329 51.9521 87.8319 52.8161C87.7579 53.4521 87.6819 54.1091 87.6609 54.7681C87.6399 55.4131 87.7309 56.0501 87.8269 56.7241C88.0519 58.3021 88.2859 60.0831 87.0619 62.1611C87.2869 62.4571 87.4849 62.7321 87.6429 62.9981C92.2529 55.5231 94.1109 46.6371 92.3379 44.3721C89.6549 40.9441 85.9409 39.9521 82.9989 40.0001C82.0779 40.0151 81.2409 40.1391 80.5259 40.2941C85.6019 42.7541 87.8629 48.0261 88.0229 49.7311ZM91.9999 65.0711C89.3349 65.6211 88.0529 65.3281 87.4309 64.9451C87.3309 65.0171 87.2309 65.0781 87.1379 65.1351C86.7659 65.3601 86.1769 65.7181 86.0329 67.9171C86.1159 67.9331 86.1889 67.9421 86.2789 67.9611L86.7139 68.0001C88.0339 68.0601 89.7629 67.6901 90.7769 67.2191C92.9619 66.2051 94.1529 64.6271 91.9999 65.0711ZM73.0229 67.1191C72.9859 66.8211 72.8249 66.5801 72.5309 66.3871L72.4229 66.3401C72.0619 66.1811 71.6529 66.0001 70.9999 66.0001H70.9959C70.8689 66.0101 70.7429 66.0191 70.6159 66.0191C70.5639 66.0191 70.5129 66.0121 70.4609 66.0101C69.9869 66.3751 69.3129 66.6571 67.6449 67.0001C64.6649 67.7591 66.4239 68.6551 67.5669 68.7941C68.6729 69.0711 71.3019 69.4081 73.0479 67.9851C73.0429 67.5371 73.0349 67.2291 73.0229 67.1191Z" fill="#0277BD"/>
<path d="M71.6809 53.5012C71.3889 53.8032 70.9279 54.0672 70.4189 53.9852C69.5909 53.8512 68.9559 52.8522 69.0019 52.4772C69.0459 52.1032 69.7529 51.9082 70.5799 52.0422C70.8669 52.0892 71.1279 52.1702 71.3479 52.2702C71.0279 51.5822 70.4489 51.1852 69.5659 51.0882C68.0009 50.9142 66.3399 51.7322 66.0059 52.1852C66.0129 52.2952 66.0259 52.4362 66.0389 52.6022C66.1319 53.7492 66.3039 55.8862 65.9889 58.1392C65.7809 59.6242 66.3819 61.3082 67.5559 62.5342C68.3129 63.3242 69.1969 63.8242 70.0689 63.9722C70.1799 63.4942 70.3779 63.0282 70.5819 62.5472C70.6949 62.2822 70.8149 62.0002 70.9279 61.6952L71.0899 61.2682C71.5329 60.1132 71.9899 58.9182 71.9989 56.5652C72.0029 55.6602 71.8919 54.6272 71.6809 53.5012ZM85.8469 57.0072C85.7429 56.2782 85.6359 55.5232 85.6619 54.7042C85.6849 53.9622 85.7669 53.2622 85.8459 52.5852C85.9079 52.0522 85.9559 51.5402 85.9839 51.0352C84.6949 51.1422 83.8389 51.5142 83.4329 52.1432C83.6009 52.0862 83.7909 52.0412 84.0009 52.0142C84.8929 51.8982 85.5439 52.1552 85.6189 52.6512C85.6739 53.0142 85.3659 53.3562 85.2309 53.4872C84.9539 53.7562 84.6049 53.9292 84.2499 53.9752C84.1859 53.9832 84.1209 53.9872 84.0579 53.9872C83.7049 53.9872 83.3679 53.8662 83.1089 53.6872C83.2209 55.6602 84.6759 58.2992 85.3919 59.5942C85.5449 59.8712 85.6629 60.0922 85.7609 60.2822C86.1539 59.1632 86.0089 58.1432 85.8469 57.0072Z" fill="#0277BD"/>
<path d="M121.331 66.5V51.1H127.337C128.687 51.1 129.838 51.3127 130.791 51.738C131.745 52.1633 132.478 52.7793 132.991 53.586C133.505 54.3927 133.761 55.3533 133.761 56.468C133.761 57.5827 133.505 58.5433 132.991 59.35C132.478 60.142 131.745 60.758 130.791 61.198C129.838 61.6233 128.687 61.836 127.337 61.836H122.541L123.531 60.802V66.5H121.331ZM123.531 61.022L122.541 59.922H127.271C128.679 59.922 129.743 59.6213 130.461 59.02C131.195 58.4187 131.561 57.568 131.561 56.468C131.561 55.368 131.195 54.5173 130.461 53.916C129.743 53.3147 128.679 53.014 127.271 53.014H122.541L123.531 51.914V61.022ZM141.637 66.632C140.463 66.632 139.422 66.3753 138.513 65.862C137.603 65.3487 136.885 64.6447 136.357 63.75C135.829 62.8407 135.565 61.814 135.565 60.67C135.565 59.5113 135.829 58.4847 136.357 57.59C136.885 56.6953 137.603 55.9987 138.513 55.5C139.422 54.9867 140.463 54.73 141.637 54.73C142.795 54.73 143.829 54.9867 144.739 55.5C145.663 55.9987 146.381 56.6953 146.895 57.59C147.423 58.47 147.687 59.4967 147.687 60.67C147.687 61.8287 147.423 62.8553 146.895 63.75C146.381 64.6447 145.663 65.3487 144.739 65.862C143.829 66.3753 142.795 66.632 141.637 66.632ZM141.637 64.784C142.385 64.784 143.052 64.6153 143.639 64.278C144.24 63.9407 144.709 63.464 145.047 62.848C145.384 62.2173 145.553 61.4913 145.553 60.67C145.553 59.834 145.384 59.1153 145.047 58.514C144.709 57.898 144.24 57.4213 143.639 57.084C143.052 56.7467 142.385 56.578 141.637 56.578C140.889 56.578 140.221 56.7467 139.635 57.084C139.048 57.4213 138.579 57.898 138.227 58.514C137.875 59.1153 137.699 59.834 137.699 60.67C137.699 61.4913 137.875 62.2173 138.227 62.848C138.579 63.464 139.048 63.9407 139.635 64.278C140.221 64.6153 140.889 64.784 141.637 64.784ZM153.951 66.632C152.983 66.632 152.059 66.5 151.179 66.236C150.314 65.972 149.632 65.6493 149.133 65.268L150.013 63.596C150.512 63.9333 151.128 64.2193 151.861 64.454C152.595 64.6887 153.343 64.806 154.105 64.806C155.088 64.806 155.792 64.6667 156.217 64.388C156.657 64.1093 156.877 63.7207 156.877 63.222C156.877 62.8553 156.745 62.5693 156.481 62.364C156.217 62.1587 155.865 62.0047 155.425 61.902C155 61.7993 154.523 61.7113 153.995 61.638C153.467 61.55 152.939 61.4473 152.411 61.33C151.883 61.198 151.399 61.022 150.959 60.802C150.519 60.5673 150.167 60.252 149.903 59.856C149.639 59.4453 149.507 58.9027 149.507 58.228C149.507 57.524 149.705 56.908 150.101 56.38C150.497 55.852 151.055 55.4487 151.773 55.17C152.507 54.8767 153.372 54.73 154.369 54.73C155.132 54.73 155.902 54.8253 156.679 55.016C157.471 55.192 158.117 55.4487 158.615 55.786L157.713 57.458C157.185 57.106 156.635 56.864 156.063 56.732C155.491 56.6 154.919 56.534 154.347 56.534C153.423 56.534 152.734 56.688 152.279 56.996C151.825 57.2893 151.597 57.6707 151.597 58.14C151.597 58.536 151.729 58.844 151.993 59.064C152.272 59.2693 152.624 59.4307 153.049 59.548C153.489 59.6653 153.973 59.768 154.501 59.856C155.029 59.9293 155.557 60.032 156.085 60.164C156.613 60.2813 157.09 60.45 157.515 60.67C157.955 60.89 158.307 61.198 158.571 61.594C158.85 61.99 158.989 62.518 158.989 63.178C158.989 63.882 158.784 64.4907 158.373 65.004C157.963 65.5173 157.383 65.9207 156.635 66.214C155.887 66.4927 154.993 66.632 153.951 66.632ZM165.633 66.632C164.46 66.632 163.55 66.3167 162.905 65.686C162.26 65.0553 161.937 64.1533 161.937 62.98V52.288H164.049V62.892C164.049 63.5227 164.203 64.0067 164.511 64.344C164.834 64.6813 165.288 64.85 165.875 64.85C166.535 64.85 167.085 64.6667 167.525 64.3L168.185 65.818C167.862 66.0967 167.474 66.302 167.019 66.434C166.579 66.566 166.117 66.632 165.633 66.632ZM159.957 56.578V54.84H167.393V56.578H159.957ZM175.456 70.9C174.385 70.9 173.344 70.746 172.332 70.438C171.334 70.1447 170.52 69.7193 169.89 69.162L170.902 67.534C171.444 68.0033 172.112 68.37 172.904 68.634C173.696 68.9127 174.524 69.052 175.39 69.052C176.768 69.052 177.78 68.7293 178.426 68.084C179.071 67.4387 179.394 66.456 179.394 65.136V62.672L179.614 60.362L179.504 58.03V54.84H181.506V64.916C181.506 66.9693 180.992 68.48 179.966 69.448C178.939 70.416 177.436 70.9 175.456 70.9ZM175.192 66.016C174.062 66.016 173.05 65.7813 172.156 65.312C171.276 64.828 170.572 64.1607 170.044 63.31C169.53 62.4593 169.274 61.4767 169.274 60.362C169.274 59.2327 169.53 58.25 170.044 57.414C170.572 56.5633 171.276 55.9033 172.156 55.434C173.05 54.9647 174.062 54.73 175.192 54.73C176.189 54.73 177.098 54.9353 177.92 55.346C178.741 55.742 179.394 56.358 179.878 57.194C180.376 58.03 180.626 59.086 180.626 60.362C180.626 61.6233 180.376 62.672 179.878 63.508C179.394 64.344 178.741 64.9747 177.92 65.4C177.098 65.8107 176.189 66.016 175.192 66.016ZM175.434 64.168C176.211 64.168 176.9 64.0067 177.502 63.684C178.103 63.3613 178.572 62.914 178.91 62.342C179.262 61.77 179.438 61.11 179.438 60.362C179.438 59.614 179.262 58.954 178.91 58.382C178.572 57.81 178.103 57.37 177.502 57.062C176.9 56.7393 176.211 56.578 175.434 56.578C174.656 56.578 173.96 56.7393 173.344 57.062C172.742 57.37 172.266 57.81 171.914 58.382C171.576 58.954 171.408 59.614 171.408 60.362C171.408 61.11 171.576 61.77 171.914 62.342C172.266 62.914 172.742 63.3613 173.344 63.684C173.96 64.0067 174.656 64.168 175.434 64.168ZM185.541 66.5V54.84H187.565V58.008L187.367 57.216C187.69 56.4093 188.232 55.7933 188.995 55.368C189.758 54.9427 190.696 54.73 191.811 54.73V56.776C191.723 56.7613 191.635 56.754 191.547 56.754C191.474 56.754 191.4 56.754 191.327 56.754C190.198 56.754 189.303 57.0913 188.643 57.766C187.983 58.4407 187.653 59.416 187.653 60.692V66.5H185.541ZM199.499 66.632C198.252 66.632 197.152 66.3753 196.199 65.862C195.26 65.3487 194.527 64.6447 193.999 63.75C193.485 62.8553 193.229 61.8287 193.229 60.67C193.229 59.5113 193.478 58.4847 193.977 57.59C194.49 56.6953 195.187 55.9987 196.067 55.5C196.961 54.9867 197.966 54.73 199.081 54.73C200.21 54.73 201.207 54.9793 202.073 55.478C202.938 55.9767 203.613 56.6807 204.097 57.59C204.595 58.4847 204.845 59.5333 204.845 60.736C204.845 60.824 204.837 60.9267 204.823 61.044C204.823 61.1613 204.815 61.2713 204.801 61.374H194.879V59.856H203.701L202.843 60.384C202.857 59.636 202.703 58.9687 202.381 58.382C202.058 57.7953 201.611 57.3407 201.039 57.018C200.481 56.6807 199.829 56.512 199.081 56.512C198.347 56.512 197.695 56.6807 197.123 57.018C196.551 57.3407 196.103 57.8027 195.781 58.404C195.458 58.9907 195.297 59.6653 195.297 60.428V60.78C195.297 61.5573 195.473 62.254 195.825 62.87C196.191 63.4713 196.697 63.9407 197.343 64.278C197.988 64.6153 198.729 64.784 199.565 64.784C200.254 64.784 200.877 64.6667 201.435 64.432C202.007 64.1973 202.505 63.8453 202.931 63.376L204.097 64.74C203.569 65.356 202.909 65.8253 202.117 66.148C201.339 66.4707 200.467 66.632 199.499 66.632ZM212.573 66.676C211.4 66.676 210.278 66.5 209.207 66.148C208.137 65.7813 207.293 65.312 206.677 64.74L207.491 63.024C208.078 63.5373 208.826 63.9627 209.735 64.3C210.645 64.6373 211.591 64.806 212.573 64.806C213.468 64.806 214.194 64.7033 214.751 64.498C215.309 64.2927 215.719 64.014 215.983 63.662C216.247 63.2953 216.379 62.8847 216.379 62.43C216.379 61.902 216.203 61.4767 215.851 61.154C215.514 60.8313 215.067 60.5747 214.509 60.384C213.967 60.1787 213.365 60.0027 212.705 59.856C212.045 59.7093 211.378 59.5407 210.703 59.35C210.043 59.1447 209.435 58.888 208.877 58.58C208.335 58.272 207.895 57.8613 207.557 57.348C207.22 56.82 207.051 56.1453 207.051 55.324C207.051 54.532 207.257 53.806 207.667 53.146C208.093 52.4713 208.738 51.936 209.603 51.54C210.483 51.1293 211.598 50.924 212.947 50.924C213.842 50.924 214.729 51.0413 215.609 51.276C216.489 51.5107 217.252 51.848 217.897 52.288L217.171 54.048C216.511 53.608 215.815 53.2927 215.081 53.102C214.348 52.8967 213.637 52.794 212.947 52.794C212.082 52.794 211.371 52.904 210.813 53.124C210.256 53.344 209.845 53.6373 209.581 54.004C209.332 54.3707 209.207 54.7813 209.207 55.236C209.207 55.7787 209.376 56.2113 209.713 56.534C210.065 56.8567 210.513 57.1133 211.055 57.304C211.613 57.4947 212.221 57.6707 212.881 57.832C213.541 57.9787 214.201 58.1473 214.861 58.338C215.536 58.5287 216.145 58.778 216.687 59.086C217.245 59.394 217.692 59.8047 218.029 60.318C218.367 60.8313 218.535 61.4913 218.535 62.298C218.535 63.0753 218.323 63.8013 217.897 64.476C217.472 65.136 216.812 65.6713 215.917 66.082C215.037 66.478 213.923 66.676 212.573 66.676ZM228.701 66.676C227.528 66.676 226.435 66.478 225.423 66.082C224.426 65.686 223.561 65.136 222.827 64.432C222.094 63.7133 221.522 62.8773 221.111 61.924C220.701 60.9707 220.495 59.9293 220.495 58.8C220.495 57.6707 220.701 56.6293 221.111 55.676C221.522 54.7227 222.094 53.894 222.827 53.19C223.561 52.4713 224.426 51.914 225.423 51.518C226.421 51.122 227.513 50.924 228.701 50.924C229.875 50.924 230.953 51.122 231.935 51.518C232.933 51.8993 233.798 52.4493 234.531 53.168C235.279 53.872 235.851 54.7007 236.247 55.654C236.658 56.6073 236.863 57.656 236.863 58.8C236.863 59.944 236.658 60.9927 236.247 61.946C235.851 62.8993 235.279 63.7353 234.531 64.454C233.798 65.158 232.933 65.708 231.935 66.104C230.953 66.4853 229.875 66.676 228.701 66.676ZM233.739 69.712C233.226 69.712 232.735 69.646 232.265 69.514C231.796 69.3967 231.327 69.1987 230.857 68.92C230.388 68.656 229.904 68.304 229.405 67.864C228.907 67.4387 228.364 66.9107 227.777 66.28L230.131 65.664C230.571 66.2067 230.989 66.6467 231.385 66.984C231.796 67.336 232.199 67.5853 232.595 67.732C232.991 67.8933 233.38 67.974 233.761 67.974C234.861 67.974 235.8 67.534 236.577 66.654L237.611 67.908C236.614 69.1107 235.323 69.712 233.739 69.712ZM228.701 64.718C229.552 64.718 230.337 64.5713 231.055 64.278C231.789 63.9847 232.419 63.5667 232.947 63.024C233.49 62.4813 233.908 61.8507 234.201 61.132C234.509 60.4133 234.663 59.636 234.663 58.8C234.663 57.9493 234.509 57.1647 234.201 56.446C233.908 55.7273 233.49 55.104 232.947 54.576C232.419 54.0333 231.789 53.6153 231.055 53.322C230.337 53.0287 229.552 52.882 228.701 52.882C227.836 52.882 227.037 53.0287 226.303 53.322C225.585 53.6153 224.954 54.0333 224.411 54.576C223.869 55.104 223.443 55.7273 223.135 56.446C222.842 57.1647 222.695 57.9493 222.695 58.8C222.695 59.636 222.842 60.4133 223.135 61.132C223.443 61.8507 223.869 62.4813 224.411 63.024C224.954 63.5667 225.585 63.9847 226.303 64.278C227.037 64.5713 227.836 64.718 228.701 64.718ZM240.226 66.5V51.1H242.426V64.586H250.764V66.5H240.226Z" fill="#494B51"/>
</svg>
