<svg width="273" height="118" viewBox="0 0 273 118" fill="none" xmlns="http://www.w3.org/2000/svg">
<rect x="-24.5" y="0.5" width="297" height="117" rx="19.5" stroke="#DBDBDB"/>
<path d="M42 74.609L49 78.609V39L42 43V74.609Z" fill="#FFA000"/>
<path d="M49 47.4331L32 57.2501V48.7501L49 38.9331V47.4331Z" fill="#FFA000"/>
<path d="M58 74.609L51 78.609V39L58 43V74.609Z" fill="#FFB300"/>
<path d="M51 47.4331L68 57.2501V48.7501L51 38.9331V47.4331Z" fill="#FFB300"/>
<path d="M55 54.7319V62.3649L62 66.4069V58.7749L55 54.7319Z" fill="#FFB300"/>
<path d="M99.6453 66.5V53.014H94.3653V51.1H107.103V53.014H101.823V66.5H99.6453ZM113.18 66.632C111.934 66.632 110.834 66.3753 109.88 65.862C108.942 65.3487 108.208 64.6447 107.68 63.75C107.167 62.8553 106.91 61.8287 106.91 60.67C106.91 59.5113 107.16 58.4847 107.658 57.59C108.172 56.6953 108.868 55.9987 109.748 55.5C110.643 54.9867 111.648 54.73 112.762 54.73C113.892 54.73 114.889 54.9793 115.754 55.478C116.62 55.9767 117.294 56.6807 117.778 57.59C118.277 58.4847 118.526 59.5333 118.526 60.736C118.526 60.824 118.519 60.9267 118.504 61.044C118.504 61.1613 118.497 61.2713 118.482 61.374H108.56V59.856H117.382L116.524 60.384C116.539 59.636 116.385 58.9687 116.062 58.382C115.74 57.7953 115.292 57.3407 114.72 57.018C114.163 56.6807 113.51 56.512 112.762 56.512C112.029 56.512 111.376 56.6807 110.804 57.018C110.232 57.3407 109.785 57.8027 109.462 58.404C109.14 58.9907 108.978 59.6653 108.978 60.428V60.78C108.978 61.5573 109.154 62.254 109.506 62.87C109.873 63.4713 110.379 63.9407 111.024 64.278C111.67 64.6153 112.41 64.784 113.246 64.784C113.936 64.784 114.559 64.6667 115.116 64.432C115.688 64.1973 116.187 63.8453 116.612 63.376L117.778 64.74C117.25 65.356 116.59 65.8253 115.798 66.148C115.021 66.4707 114.148 66.632 113.18 66.632ZM127.685 54.73C128.638 54.73 129.474 54.9133 130.193 55.28C130.926 55.6467 131.498 56.204 131.909 56.952C132.32 57.7 132.525 58.646 132.525 59.79V66.5H130.413V60.032C130.413 58.9027 130.134 58.052 129.577 57.48C129.034 56.908 128.264 56.622 127.267 56.622C126.519 56.622 125.866 56.7687 125.309 57.062C124.752 57.3553 124.319 57.788 124.011 58.36C123.718 58.932 123.571 59.6433 123.571 60.494V66.5H121.459V54.84H123.483V57.986L123.153 57.15C123.534 56.3873 124.121 55.7933 124.913 55.368C125.705 54.9427 126.629 54.73 127.685 54.73ZM139.778 66.632C138.81 66.632 137.886 66.5 137.006 66.236C136.14 65.972 135.458 65.6493 134.96 65.268L135.84 63.596C136.338 63.9333 136.954 64.2193 137.688 64.454C138.421 64.6887 139.169 64.806 139.932 64.806C140.914 64.806 141.618 64.6667 142.044 64.388C142.484 64.1093 142.704 63.7207 142.704 63.222C142.704 62.8553 142.572 62.5693 142.308 62.364C142.044 62.1587 141.692 62.0047 141.252 61.902C140.826 61.7993 140.35 61.7113 139.822 61.638C139.294 61.55 138.766 61.4473 138.238 61.33C137.71 61.198 137.226 61.022 136.786 60.802C136.346 60.5673 135.994 60.252 135.73 59.856C135.466 59.4453 135.334 58.9027 135.334 58.228C135.334 57.524 135.532 56.908 135.928 56.38C136.324 55.852 136.881 55.4487 137.6 55.17C138.333 54.8767 139.198 54.73 140.196 54.73C140.958 54.73 141.728 54.8253 142.506 55.016C143.298 55.192 143.943 55.4487 144.442 55.786L143.54 57.458C143.012 57.106 142.462 56.864 141.89 56.732C141.318 56.6 140.746 56.534 140.174 56.534C139.25 56.534 138.56 56.688 138.106 56.996C137.651 57.2893 137.424 57.6707 137.424 58.14C137.424 58.536 137.556 58.844 137.82 59.064C138.098 59.2693 138.45 59.4307 138.876 59.548C139.316 59.6653 139.8 59.768 140.328 59.856C140.856 59.9293 141.384 60.032 141.912 60.164C142.44 60.2813 142.916 60.45 143.342 60.67C143.782 60.89 144.134 61.198 144.398 61.594C144.676 61.99 144.816 62.518 144.816 63.178C144.816 63.882 144.61 64.4907 144.2 65.004C143.789 65.5173 143.21 65.9207 142.462 66.214C141.714 66.4927 140.819 66.632 139.778 66.632ZM152.449 66.632C151.276 66.632 150.234 66.3753 149.325 65.862C148.416 65.3487 147.697 64.6447 147.169 63.75C146.641 62.8407 146.377 61.814 146.377 60.67C146.377 59.5113 146.641 58.4847 147.169 57.59C147.697 56.6953 148.416 55.9987 149.325 55.5C150.234 54.9867 151.276 54.73 152.449 54.73C153.608 54.73 154.642 54.9867 155.551 55.5C156.475 55.9987 157.194 56.6953 157.707 57.59C158.235 58.47 158.499 59.4967 158.499 60.67C158.499 61.8287 158.235 62.8553 157.707 63.75C157.194 64.6447 156.475 65.3487 155.551 65.862C154.642 66.3753 153.608 66.632 152.449 66.632ZM152.449 64.784C153.197 64.784 153.864 64.6153 154.451 64.278C155.052 63.9407 155.522 63.464 155.859 62.848C156.196 62.2173 156.365 61.4913 156.365 60.67C156.365 59.834 156.196 59.1153 155.859 58.514C155.522 57.898 155.052 57.4213 154.451 57.084C153.864 56.7467 153.197 56.578 152.449 56.578C151.701 56.578 151.034 56.7467 150.447 57.084C149.86 57.4213 149.391 57.898 149.039 58.514C148.687 59.1153 148.511 59.834 148.511 60.67C148.511 61.4913 148.687 62.2173 149.039 62.848C149.391 63.464 149.86 63.9407 150.447 64.278C151.034 64.6153 151.701 64.784 152.449 64.784ZM161.42 66.5V54.84H163.444V58.008L163.246 57.216C163.569 56.4093 164.111 55.7933 164.874 55.368C165.637 54.9427 166.575 54.73 167.69 54.73V56.776C167.602 56.7613 167.514 56.754 167.426 56.754C167.353 56.754 167.279 56.754 167.206 56.754C166.077 56.754 165.182 57.0913 164.522 57.766C163.862 58.4407 163.532 59.416 163.532 60.692V66.5H161.42ZM172.474 58.382H180.416V60.274H172.474V58.382ZM172.694 66.5H170.494V51.1H181.362V53.014H172.694V66.5ZM184.15 66.5V50.176H186.262V66.5H184.15ZM195.289 66.632C194.116 66.632 193.074 66.3753 192.165 65.862C191.256 65.3487 190.537 64.6447 190.009 63.75C189.481 62.8407 189.217 61.814 189.217 60.67C189.217 59.5113 189.481 58.4847 190.009 57.59C190.537 56.6953 191.256 55.9987 192.165 55.5C193.074 54.9867 194.116 54.73 195.289 54.73C196.448 54.73 197.482 54.9867 198.391 55.5C199.315 55.9987 200.034 56.6953 200.547 57.59C201.075 58.47 201.339 59.4967 201.339 60.67C201.339 61.8287 201.075 62.8553 200.547 63.75C200.034 64.6447 199.315 65.3487 198.391 65.862C197.482 66.3753 196.448 66.632 195.289 66.632ZM195.289 64.784C196.037 64.784 196.704 64.6153 197.291 64.278C197.892 63.9407 198.362 63.464 198.699 62.848C199.036 62.2173 199.205 61.4913 199.205 60.67C199.205 59.834 199.036 59.1153 198.699 58.514C198.362 57.898 197.892 57.4213 197.291 57.084C196.704 56.7467 196.037 56.578 195.289 56.578C194.541 56.578 193.874 56.7467 193.287 57.084C192.7 57.4213 192.231 57.898 191.879 58.514C191.527 59.1153 191.351 59.834 191.351 60.67C191.351 61.4913 191.527 62.2173 191.879 62.848C192.231 63.464 192.7 63.9407 193.287 64.278C193.874 64.6153 194.541 64.784 195.289 64.784ZM206.402 66.5L202.068 54.84H204.07L207.92 65.4H206.974L210.978 54.84H212.76L216.676 65.4H215.752L219.69 54.84H221.582L217.226 66.5H215.202L211.528 56.864H212.144L208.426 66.5H206.402Z" fill="#494B51"/>
</svg>
