<svg width="244" height="118" viewBox="0 0 244 118" fill="none" xmlns="http://www.w3.org/2000/svg">
<rect x="0.5" y="0.5" width="243" height="117" rx="19.5" stroke="#DBDBDB"/>
<path d="M94.6506 37.5383C93.9794 39.1519 93.1207 40.6796 92.0904 42.0862C85.9669 35.9325 77.0099 33.557 68.6501 35.87C60.2864 38.1791 53.8155 44.8211 51.7158 53.2487C49.6161 61.6724 52.2115 70.5806 58.5067 76.5506L59.3965 77.336C66.3123 83.1692 75.9132 84.6266 84.2418 81.1024C92.5704 77.5782 98.2217 69.6742 98.8657 60.6449C99.5214 54.5146 97.7222 46.7591 94.6545 37.5383H94.6506ZM61.9295 76.6913C61.2153 77.5743 59.9195 77.711 59.0375 76.996C58.1515 76.281 58.0189 74.9839 58.7331 74.1009C59.4473 73.2179 60.743 73.0811 61.6251 73.8C62.5071 74.515 62.6437 75.8083 61.9295 76.6913ZM94.5531 69.4827C88.6169 77.3985 75.9484 74.726 67.8227 75.1089C67.8227 75.1089 66.3826 75.1949 64.9307 75.4332C64.9307 75.4332 65.481 75.1988 66.1796 74.937C71.8855 72.9483 74.5824 72.5654 78.0481 70.7799C84.5736 67.4588 91.0288 60.1877 92.3675 52.6275C89.8853 59.8986 82.349 66.1539 75.4839 68.6935C70.781 70.4282 62.2885 72.12 62.2885 72.12L61.9451 71.9324C56.165 69.1193 55.9855 56.5893 66.4997 52.5455C71.1011 50.7716 75.5034 51.7445 80.4756 50.5567C85.7835 49.2948 91.9265 45.3134 94.4243 40.1209C97.2187 48.4313 100.587 61.4419 94.5492 69.4866L94.5531 69.4827Z" fill="#68BD45"/>
<path d="M125.877 66.676C124.704 66.676 123.582 66.5 122.511 66.148C121.44 65.7813 120.597 65.312 119.981 64.74L120.795 63.024C121.382 63.5373 122.13 63.9627 123.039 64.3C123.948 64.6373 124.894 64.806 125.877 64.806C126.772 64.806 127.498 64.7033 128.055 64.498C128.612 64.2927 129.023 64.014 129.287 63.662C129.551 63.2953 129.683 62.8847 129.683 62.43C129.683 61.902 129.507 61.4767 129.155 61.154C128.818 60.8313 128.37 60.5747 127.813 60.384C127.27 60.1787 126.669 60.0027 126.009 59.856C125.349 59.7093 124.682 59.5407 124.007 59.35C123.347 59.1447 122.738 58.888 122.181 58.58C121.638 58.272 121.198 57.8613 120.861 57.348C120.524 56.82 120.355 56.1453 120.355 55.324C120.355 54.532 120.56 53.806 120.971 53.146C121.396 52.4713 122.042 51.936 122.907 51.54C123.787 51.1293 124.902 50.924 126.251 50.924C127.146 50.924 128.033 51.0413 128.913 51.276C129.793 51.5107 130.556 51.848 131.201 52.288L130.475 54.048C129.815 53.608 129.118 53.2927 128.385 53.102C127.652 52.8967 126.94 52.794 126.251 52.794C125.386 52.794 124.674 52.904 124.117 53.124C123.56 53.344 123.149 53.6373 122.885 54.004C122.636 54.3707 122.511 54.7813 122.511 55.236C122.511 55.7787 122.68 56.2113 123.017 56.534C123.369 56.8567 123.816 57.1133 124.359 57.304C124.916 57.4947 125.525 57.6707 126.185 57.832C126.845 57.9787 127.505 58.1473 128.165 58.338C128.84 58.5287 129.448 58.778 129.991 59.086C130.548 59.394 130.996 59.8047 131.333 60.318C131.67 60.8313 131.839 61.4913 131.839 62.298C131.839 63.0753 131.626 63.8013 131.201 64.476C130.776 65.136 130.116 65.6713 129.221 66.082C128.341 66.478 127.226 66.676 125.877 66.676ZM140.927 66.632C139.959 66.632 139.072 66.412 138.265 65.972C137.473 65.5173 136.835 64.85 136.351 63.97C135.882 63.09 135.647 61.99 135.647 60.67C135.647 59.35 135.874 58.25 136.329 57.37C136.798 56.49 137.429 55.83 138.221 55.39C139.028 54.95 139.93 54.73 140.927 54.73C142.071 54.73 143.083 54.9793 143.963 55.478C144.843 55.9767 145.54 56.6733 146.053 57.568C146.566 58.448 146.823 59.482 146.823 60.67C146.823 61.858 146.566 62.8993 146.053 63.794C145.54 64.6887 144.843 65.3853 143.963 65.884C143.083 66.3827 142.071 66.632 140.927 66.632ZM134.745 70.768V54.84H136.769V57.986L136.637 60.692L136.857 63.398V70.768H134.745ZM140.751 64.784C141.499 64.784 142.166 64.6153 142.753 64.278C143.354 63.9407 143.824 63.464 144.161 62.848C144.513 62.2173 144.689 61.4913 144.689 60.67C144.689 59.834 144.513 59.1153 144.161 58.514C143.824 57.898 143.354 57.4213 142.753 57.084C142.166 56.7467 141.499 56.578 140.751 56.578C140.018 56.578 139.35 56.7467 138.749 57.084C138.162 57.4213 137.693 57.898 137.341 58.514C137.004 59.1153 136.835 59.834 136.835 60.67C136.835 61.4913 137.004 62.2173 137.341 62.848C137.693 63.464 138.162 63.9407 138.749 64.278C139.35 64.6153 140.018 64.784 140.751 64.784ZM149.741 66.5V54.84H151.765V58.008L151.567 57.216C151.89 56.4093 152.433 55.7933 153.195 55.368C153.958 54.9427 154.897 54.73 156.011 54.73V56.776C155.923 56.7613 155.835 56.754 155.747 56.754C155.674 56.754 155.601 56.754 155.527 56.754C154.398 56.754 153.503 57.0913 152.843 57.766C152.183 58.4407 151.853 59.416 151.853 60.692V66.5H149.741ZM158.614 66.5V54.84H160.726V66.5H158.614ZM159.67 52.596C159.26 52.596 158.915 52.464 158.636 52.2C158.372 51.936 158.24 51.6133 158.24 51.232C158.24 50.836 158.372 50.506 158.636 50.242C158.915 49.978 159.26 49.846 159.67 49.846C160.081 49.846 160.418 49.978 160.682 50.242C160.961 50.4913 161.1 50.8067 161.1 51.188C161.1 51.584 160.968 51.9213 160.704 52.2C160.44 52.464 160.096 52.596 159.67 52.596ZM170.985 54.73C171.938 54.73 172.774 54.9133 173.493 55.28C174.226 55.6467 174.798 56.204 175.209 56.952C175.62 57.7 175.825 58.646 175.825 59.79V66.5H173.713V60.032C173.713 58.9027 173.434 58.052 172.877 57.48C172.334 56.908 171.564 56.622 170.567 56.622C169.819 56.622 169.166 56.7687 168.609 57.062C168.052 57.3553 167.619 57.788 167.311 58.36C167.018 58.932 166.871 59.6433 166.871 60.494V66.5H164.759V54.84H166.783V57.986L166.453 57.15C166.834 56.3873 167.421 55.7933 168.213 55.368C169.005 54.9427 169.929 54.73 170.985 54.73ZM184.837 70.9C183.767 70.9 182.725 70.746 181.713 70.438C180.716 70.1447 179.902 69.7193 179.271 69.162L180.283 67.534C180.826 68.0033 181.493 68.37 182.285 68.634C183.077 68.9127 183.906 69.052 184.771 69.052C186.15 69.052 187.162 68.7293 187.807 68.084C188.453 67.4387 188.775 66.456 188.775 65.136V62.672L188.995 60.362L188.885 58.03V54.84H190.887V64.916C190.887 66.9693 190.374 68.48 189.347 69.448C188.321 70.416 186.817 70.9 184.837 70.9ZM184.573 66.016C183.444 66.016 182.432 65.7813 181.537 65.312C180.657 64.828 179.953 64.1607 179.425 63.31C178.912 62.4593 178.655 61.4767 178.655 60.362C178.655 59.2327 178.912 58.25 179.425 57.414C179.953 56.5633 180.657 55.9033 181.537 55.434C182.432 54.9647 183.444 54.73 184.573 54.73C185.571 54.73 186.48 54.9353 187.301 55.346C188.123 55.742 188.775 56.358 189.259 57.194C189.758 58.03 190.007 59.086 190.007 60.362C190.007 61.6233 189.758 62.672 189.259 63.508C188.775 64.344 188.123 64.9747 187.301 65.4C186.48 65.8107 185.571 66.016 184.573 66.016ZM184.815 64.168C185.593 64.168 186.282 64.0067 186.883 63.684C187.485 63.3613 187.954 62.914 188.291 62.342C188.643 61.77 188.819 61.11 188.819 60.362C188.819 59.614 188.643 58.954 188.291 58.382C187.954 57.81 187.485 57.37 186.883 57.062C186.282 56.7393 185.593 56.578 184.815 56.578C184.038 56.578 183.341 56.7393 182.725 57.062C182.124 57.37 181.647 57.81 181.295 58.382C180.958 58.954 180.789 59.614 180.789 60.362C180.789 61.11 180.958 61.77 181.295 62.342C181.647 62.914 182.124 63.3613 182.725 63.684C183.341 64.0067 184.038 64.168 184.815 64.168Z" fill="#494B51"/>
</svg>
