<svg width="90" height="68" viewBox="0 0 90 68" fill="none" xmlns="http://www.w3.org/2000/svg">
<path d="M34.9306 68H0V45.5197C0 36.4232 0.870157 29.2654 2.61047 24.0461C4.43366 18.7522 7.74854 14.0175 12.5551 9.8421C17.3617 5.66667 23.4942 2.38596 30.9527 0L37.7897 12.9737C30.8284 15.0614 25.8147 17.9693 22.7484 21.6974C19.765 25.4254 18.1904 30.3838 18.0247 36.5724H34.9306V68ZM87.1409 68H52.2103V45.5197C52.2103 36.3487 53.0805 29.1535 54.8208 23.9342C56.644 18.7149 59.9589 14.0175 64.7654 9.8421C69.6549 5.66667 75.7874 2.38596 83.163 0L90 12.9737C83.0387 15.0614 78.025 17.9693 74.9587 21.6974C71.9753 25.4254 70.4007 30.3838 70.235 36.5724H87.1409V68Z" fill="#131414"/>
</svg>
