<svg width="40" height="41" viewBox="0 0 40 41" fill="none" xmlns="http://www.w3.org/2000/svg">
<path d="M14.025 26.0214C12.0833 27.5464 10.8333 29.9131 10.8333 32.5714V35.0714H5.83334C4.45001 35.0714 3.33334 33.9547 3.33334 32.5714V30.9047C3.33334 27.6797 5.94168 25.0714 9.16668 25.0714H10.8333C12.0167 25.0714 13.1083 25.4214 14.025 26.0214Z" fill="#494B51"/>
<path d="M30 25.0714C32.0711 25.0714 33.75 23.3925 33.75 21.3214C33.75 19.2503 32.0711 17.5714 30 17.5714C27.9289 17.5714 26.25 19.2503 26.25 21.3214C26.25 23.3925 27.9289 25.0714 30 25.0714Z" fill="#494B51"/>
<path d="M10 25.0714C12.0711 25.0714 13.75 23.3925 13.75 21.3214C13.75 19.2503 12.0711 17.5714 10 17.5714C7.92893 17.5714 6.25 19.2503 6.25 21.3214C6.25 23.3925 7.92893 25.0714 10 25.0714Z" fill="#494B51"/>
<path d="M36.6667 30.9047V32.5714C36.6667 33.9547 35.55 35.0714 34.1667 35.0714H29.1667V32.5714C29.1667 29.9131 27.9167 27.5464 25.975 26.0214C26.8917 25.4214 27.9833 25.0714 29.1667 25.0714H30.8333C34.0583 25.0714 36.6667 27.6797 36.6667 30.9047Z" fill="#494B51"/>
<path d="M20 25.9047C22.5313 25.9047 24.5833 23.8527 24.5833 21.3214C24.5833 18.7901 22.5313 16.738 20 16.738C17.4687 16.738 15.4167 18.7901 15.4167 21.3214C15.4167 23.8527 17.4687 25.9047 20 25.9047Z" fill="#494B51"/>
<path d="M20.8333 25.9048H19.1667C15.4908 25.9048 12.5 28.8956 12.5 32.5715V35.0715C12.5 36.4498 13.6217 37.5715 15 37.5715H25C26.3783 37.5715 27.5 36.4498 27.5 35.0715V32.5715C27.5 28.8956 24.5092 25.9048 20.8333 25.9048Z" fill="#494B51"/>
<path d="M32.0833 13.9747L30.0725 14.6897C29.5017 14.8922 28.9058 14.4597 28.9225 13.8539L28.9808 11.7206L27.6792 10.0289C27.31 9.54891 27.5375 8.84808 28.1183 8.67641L30.1658 8.07308L31.3725 6.31224C31.715 5.81307 32.4517 5.81307 32.7942 6.31224L34.0008 8.07308L36.0483 8.67641C36.6292 8.84724 36.8567 9.54891 36.4875 10.0289L35.1858 11.7206L35.2442 13.8539C35.2608 14.4589 34.6641 14.8922 34.0942 14.6897L32.0833 13.9747Z" fill="#494B51"/>
<path d="M7.91666 13.9747L5.90583 14.6897C5.335 14.8922 4.73917 14.4597 4.75583 13.8539L4.81417 11.7206L3.5125 10.0289C3.14333 9.54891 3.37083 8.84808 3.95167 8.67641L5.99916 8.07308L7.20583 6.31224C7.54833 5.81307 8.285 5.81307 8.6275 6.31224L9.83416 8.07308L11.8817 8.67641C12.4625 8.84724 12.69 9.54891 12.3208 10.0289L11.0192 11.7206L11.0775 13.8539C11.0942 14.4589 10.4975 14.8922 9.9275 14.6897L7.91666 13.9747Z" fill="#494B51"/>
<path d="M20 12.0997L17.6158 12.9472C16.9392 13.188 16.2325 12.6739 16.2525 11.9564L16.3217 9.42719L14.7783 7.42135C14.3408 6.85219 14.6108 6.02135 15.2992 5.81802L17.7267 5.10219L19.1575 3.01469C19.5633 2.42219 20.4375 2.42219 20.8433 3.01469L22.2742 5.10219L24.7017 5.81802C25.39 6.02135 25.66 6.85219 25.2225 7.42135L23.6792 9.42719L23.7483 11.9564C23.7683 12.6739 23.0608 13.188 22.385 12.9472L20 12.0997Z" fill="#494B51"/>
</svg>
