<svg width="70" height="71" viewBox="0 0 70 71" fill="none" xmlns="http://www.w3.org/2000/svg">
<path fill-rule="evenodd" clip-rule="evenodd" d="M23.6561 34.3448C26.8996 37.9605 29.3277 41.1097 30.9399 43.9403C36.9891 54.5618 28.3835 65.3499 16.8585 65.1558C5.33356 65.35 -3.27193 54.5618 2.77719 43.9403C4.38938 41.1097 6.81751 37.9605 10.061 34.3448C10.5345 34.5122 11.0435 34.6036 11.5731 34.6036H22.144C22.6737 34.6036 23.1826 34.5122 23.6561 34.3448ZM11.5733 32.4161H22.1441C23.4474 32.4161 24.5136 31.3499 24.5136 30.0468C24.5136 28.7434 23.4474 27.6773 22.1441 27.6773H11.5733C10.2699 27.6773 9.2038 28.7434 9.2038 30.0466C9.2038 31.35 10.2699 32.4161 11.5733 32.4161ZM29.6345 30.043C28.9769 30.043 28.4404 30.5793 28.4404 31.2371V36.5614C30.0674 38.5672 31.5976 40.6753 32.8406 42.8577C35.3651 47.2904 35.9175 52.4322 33.8248 57.1481C33.6683 57.5007 33.4995 57.8446 33.3204 58.1806H36.2872V31.2371C36.2872 30.5793 35.7508 30.043 35.0931 30.043H29.6345ZM55.9973 30.7717L55.7733 34.1C55.7638 34.2416 55.8319 34.3679 55.9555 34.4379C56.079 34.5079 56.2225 34.5012 56.339 34.4203L64.919 28.4543C65.0124 28.3893 65.0658 28.2946 65.0731 28.1811C65.0803 28.0675 65.0393 27.9669 64.9548 27.8906L57.2442 20.9298C57.1392 20.835 56.9983 20.8101 56.8672 20.8633C56.7361 20.9164 56.6523 21.0321 56.6427 21.1733L56.4107 24.623C50.1665 24.4533 41.6113 21.9066 36.1434 18.6413C30.1138 15.0407 26.1579 10.7559 23.3744 5.84155C25.2282 13.3083 30.7348 20.6966 38.9584 25.6075C44.4934 28.9127 50.4328 30.6021 55.9973 30.7717ZM68.022 60.3681H31.9147C31.0659 61.479 30.0828 62.4677 28.9968 63.3262H68.022C68.6786 63.3262 69.214 62.7907 69.214 62.1341V61.5602C69.214 60.9035 68.6786 60.3681 68.022 60.3681ZM64.2345 46.1662H58.7757C58.1181 46.1662 57.5816 46.7025 57.5816 47.3603V58.1806H65.4284V47.3603C65.4284 46.7025 64.8921 46.1662 64.2345 46.1662ZM44.205 38.2789H49.6639C50.3217 38.2789 50.858 38.8154 50.858 39.4731V58.1806H43.0111V39.473C43.0109 38.8154 43.5473 38.2789 44.205 38.2789ZM16.737 54.0132C16.025 53.9947 15.3337 53.8018 14.7826 53.4347C14.2839 53.1026 13.9028 52.6167 13.7438 51.9785C13.6022 51.4024 13.0202 51.0502 12.444 51.1918C11.8679 51.3336 11.5157 51.9155 11.6575 52.4916C11.958 53.6971 12.6688 54.6086 13.5966 55.2266C14.2303 55.6486 14.9662 55.9276 15.7369 56.0635V56.8994C15.7369 57.4942 16.2191 57.9762 16.8137 57.9762C17.4083 57.9762 17.8905 57.494 17.8905 56.8993V56.0839C18.827 55.9412 19.7812 55.5994 20.5304 55.0309C21.4307 54.3477 22.0295 53.3695 21.9983 52.0569C21.9948 51.9065 21.9862 51.7743 21.9725 51.6613C21.7979 50.2229 21.0196 49.2865 19.9878 48.6635C19.0813 48.1162 17.9944 47.8437 16.9979 47.6801C16.2791 47.5621 15.522 47.3624 14.9676 47.0003C14.538 46.7199 14.2299 46.3139 14.201 45.7201C14.1698 45.0776 14.4502 44.5593 14.8921 44.2002C15.2383 43.9187 15.6799 43.7232 16.1585 43.6268C16.3512 43.5881 16.5494 43.5657 16.7496 43.5603C16.7708 43.5616 16.7921 43.5623 16.8137 43.5623C16.8397 43.5623 16.8652 43.5613 16.8907 43.5595C17.1554 43.5634 17.422 43.5974 17.6823 43.6633C18.4828 43.8662 19.2116 44.3938 19.5954 45.3079C19.8253 45.8561 20.4563 46.1141 21.0045 45.8842C21.5528 45.6542 21.8108 45.0232 21.5808 44.475C20.905 42.8654 19.6183 41.9353 18.2039 41.5768C18.1001 41.5504 17.9956 41.5275 17.8905 41.5075V40.6731C17.8905 40.0784 17.4084 39.5963 16.8137 39.5963C16.219 39.5963 15.7369 40.0784 15.7369 40.6731V41.5236C14.9211 41.6881 14.1549 42.0325 13.5378 42.5343C12.5894 43.3054 11.9879 44.4249 12.0557 45.821C12.1238 47.2236 12.8237 48.1645 13.7981 48.8005C14.6475 49.355 15.6908 49.642 16.6529 49.7999C17.4257 49.9268 18.2506 50.1272 18.8773 50.5057C19.3787 50.8083 19.7552 51.2506 19.8356 51.9134C19.8463 52.0018 19.852 52.066 19.8531 52.107C19.8655 52.634 19.6136 53.0356 19.2348 53.3229C18.7608 53.6826 18.0953 53.8945 17.4296 53.9753C17.2483 53.9973 17.09 54.0098 16.9559 54.0129L16.9046 54.0139C16.8747 54.0114 16.8443 54.01 16.8136 54.01C16.7879 54.0104 16.7623 54.0114 16.737 54.0132ZM11.2447 25.5018L9.54081 23.7981C8.59389 22.8511 8.59389 21.3016 9.54081 20.3547C10.3462 19.5492 11.6213 19.4131 12.5797 20.0283C12.9357 20.2568 13.3445 20.2933 13.7352 20.1315C14.1258 19.9697 14.3891 19.6549 14.4794 19.2416C14.7179 18.1486 15.6966 17.3236 16.8587 17.3235C17.9997 17.3235 18.9949 18.1278 19.2381 19.2416C19.3284 19.6549 19.5916 19.9697 19.9822 20.1315C20.373 20.2934 20.7817 20.2568 21.1376 20.0283C22.079 19.424 23.3546 19.533 24.1763 20.3545V20.3547C25.1232 21.3016 25.1232 22.8511 24.1763 23.7981L22.4724 25.5018C22.3638 25.4941 22.2543 25.4898 22.1438 25.4898H11.5733C11.4628 25.4898 11.3533 25.4941 11.2447 25.5018Z" fill="#494B51"/>
</svg>
