<svg width="50" height="51" viewBox="0 0 50 51" fill="none" xmlns="http://www.w3.org/2000/svg">
<path fill-rule="evenodd" clip-rule="evenodd" d="M38.0401 31.4726H44.1047V47.959H38.0401V31.4726ZM15.1043 47.959H21.1695V41.081H15.1043V47.959ZM3.63586 47.959H9.7011V44.499H3.63586V47.959ZM46.2574 12.2308C45.9621 11.5144 45.1327 11.168 44.4157 11.4625C43.8832 11.6814 39.5107 13.5139 39.3275 13.3611C38.3109 12.5156 36.6319 10.9871 35.3503 10.6897C33.7335 10.3139 28.948 12.8749 27.9742 14.037C27.3292 14.8062 24.1867 18.4146 24.0156 18.9183C23.7866 19.5919 24.1022 20.3335 24.7433 20.6401C25.4685 20.9869 26.1307 20.5231 26.6125 19.9939C27.7781 18.6491 29.0248 17.2882 30.1335 15.9052C30.1856 15.8397 30.9025 15.383 31.006 15.383C31.1205 15.383 31.2082 15.4894 31.1831 15.603C30.5326 18.5436 30.6318 21.5101 30.5241 24.4962C30.4985 25.2059 30.4741 25.9201 30.3839 26.6251C30.3286 27.0713 27.8051 32.6317 27.415 33.5375C27.107 34.2522 27.4413 35.0895 28.1565 35.396C28.8626 35.6989 29.6924 35.3745 30.0056 34.6744L33.4969 27.642L33.5075 27.612C33.7833 26.8294 33.5569 25.6581 33.8151 24.8944C33.8424 24.8135 33.9008 24.7713 33.9867 24.7719C35.6768 24.7834 37.373 24.8486 39.054 25.0281C39.314 25.0559 40.2285 27.8392 40.3788 28.2349C40.6549 28.9611 41.4706 29.3332 42.1987 29.0588C42.9277 28.7841 43.2989 27.965 43.0219 27.2363C42.6658 26.2994 41.8432 22.5813 40.4035 22.3566C39.0606 22.1472 37.6896 22.0616 36.3327 22.0049C36.2357 22.0008 36.1589 21.921 36.1589 21.8238C36.1589 19.8162 36.2328 17.2874 36.9747 15.3918C36.996 15.3377 37.0424 15.2973 37.0987 15.2825C37.2707 15.238 38.0739 15.9936 38.2476 16.1374C38.6531 16.4733 39.2101 16.554 39.6908 16.3539C41.6206 15.5978 43.5746 14.8626 45.4897 14.0728C46.2106 13.7752 46.5544 12.9525 46.2574 12.2308ZM26.5721 47.959H32.6368V37.7157H26.5721V47.959ZM36.3249 8.98147C37.7267 8.98147 38.8669 7.84211 38.8669 6.44006C38.8669 5.03831 37.7268 3.89807 36.3249 3.89807C34.923 3.89807 33.7838 5.0385 33.7842 6.44006C33.7842 7.84124 34.9237 8.98147 36.3249 8.98147ZM17.5361 28.563C17.5947 28.621 17.6064 28.7105 17.5655 28.7819C14.5639 34.0033 8.93831 36.8269 3.82424 39.5862C10.8166 38.5095 15.6329 37.6461 20.408 31.6799C20.44 31.6399 20.4874 31.6152 20.5387 31.6122C20.7092 31.6021 22.0796 33.0491 22.3002 33.2668L23.416 25.458L15.6581 26.7087L17.5361 28.563Z" fill="#494B51"/>
</svg>
