<svg width="40" height="41" viewBox="0 0 40 41" fill="none" xmlns="http://www.w3.org/2000/svg">
<path d="M32.8906 28.274L28.1298 28.2741C26.9154 30.165 25.2967 31.7655 23.3939 32.9626H32.8906V36.4771L40 30.6189L32.8906 24.7595V28.274Z" fill="#494B51"/>
<path d="M15.4015 32.9581C22.4791 32.9098 28.2031 27.1611 28.2031 20.0719C28.2031 13.3484 23.0536 7.83315 16.4844 7.24034V3.66565L9.45312 9.52502L16.4844 15.3832V11.9872C20.4492 12.562 23.5156 15.9504 23.5156 20.0719C23.5156 24.5946 19.8352 28.275 15.3125 28.275H0V32.9625H15.4068C15.4045 32.9611 15.4038 32.9596 15.4015 32.9581Z" fill="#494B51"/>
<path d="M9.58977 25.9312C8.06383 24.4406 7.10938 22.3681 7.10938 20.0718C7.10938 17.3482 8.45836 14.9472 10.5081 13.4544L6.82555 10.386C4.13148 12.7486 2.42188 16.2071 2.42188 20.0718C2.42188 22.1894 2.96563 24.1687 3.87039 25.9312H9.58977Z" fill="#494B51"/>
</svg>
