<svg width="50" height="51" viewBox="0 0 50 51" fill="none" xmlns="http://www.w3.org/2000/svg">
<g clip-path="url(#clip0_130_71)">
<path d="M0 32.5514L6.27552 31.4539L9.03531 47.2309L2.75978 48.3285L0 32.5514Z" fill="#494B51"/>
<path d="M11.5225 43.9511C12.6143 43.0558 14.0116 42.6205 15.4189 42.7375L28.3624 43.7151H28.4033C30.86 43.699 33.2497 42.9121 35.2354 41.4663L50.0001 26.9937C48.8179 26.1583 47.228 26.1983 46.0895 27.0922L46.0724 27.1055L38.7236 32.6004C38.9072 33.0371 39.0409 33.4924 39.1232 33.9591C39.2041 34.4225 38.8939 34.8644 38.4301 34.9453L26.5056 37.0314C26.4566 37.0395 26.4071 37.0438 26.3576 37.0433C25.9142 37.0447 25.5436 36.706 25.5056 36.2641C25.4675 35.8226 25.7743 35.4253 26.2116 35.3506L37.2188 33.4253C36.4353 31.3439 34.2835 30.1137 32.0927 30.4942L24.8386 31.7631C23.4113 32.0109 21.9465 31.9343 20.5531 31.5399L19.7415 31.3087C15.7343 30.1588 11.4188 31.2968 8.50012 34.274L10.3579 44.894L11.5225 43.9511Z" fill="#494B51"/>
<path d="M27.5622 25.3719C33.8605 25.3719 38.9657 20.2667 38.9657 13.9684C38.9657 7.67049 33.8605 2.56482 27.5622 2.56482C21.2643 2.56482 16.1586 7.67049 16.1586 13.9684C16.1658 20.2639 21.2672 25.3653 27.5622 25.3719ZM25.9742 7.83605C25.9742 7.36507 26.3562 6.98352 26.8267 6.98352C27.2977 6.98352 27.6792 7.36507 27.6792 7.83605V14.2419H32.332C32.8025 14.2419 33.1845 14.624 33.1845 15.0945C33.1845 15.5654 32.8025 15.947 32.332 15.947H26.8809C26.4099 15.947 25.9742 15.4617 25.9742 14.9908V7.83605Z" fill="#494B51"/>
</g>
<defs>
<clipPath id="clip0_130_71">
<rect width="50" height="50" fill="white" transform="translate(0 0.428589)"/>
</clipPath>
</defs>
</svg>
