<svg width="356" height="356" viewBox="0 0 356 356" fill="none" xmlns="http://www.w3.org/2000/svg">
<g clip-path="url(#clip0_161_1044)">
<path d="M157.651 183.599L190.802 150.448C183.347 145.69 174.507 142.919 165.025 142.919C138.528 142.919 116.97 164.476 116.97 190.974C116.97 217.471 138.528 239.029 165.025 239.029C191.523 239.029 213.08 217.471 213.08 190.974C213.08 181.493 210.31 172.652 205.551 165.197L172.4 198.348L157.651 183.599Z" fill="#8DCBE6"/>
<path d="M330.052 190.974C330.052 162.632 322.812 134.915 309.066 110.386L267.974 116.017C283.341 137.065 292.426 162.976 292.426 190.974C292.426 261.223 235.275 318.375 165.025 318.375C94.776 318.375 37.6254 261.223 37.6254 190.974C37.6254 120.725 94.7774 63.5739 165.026 63.5739C193.024 63.5739 218.935 72.6588 239.983 88.0259L245.614 46.9344C221.085 33.188 193.368 25.9478 165.026 25.9478C120.946 25.9478 79.5041 43.1136 48.3353 74.2831C17.1659 105.452 0 146.894 0 190.974C0 235.054 17.1659 276.496 48.3353 307.665C79.5041 338.835 120.945 356 165.026 356C209.107 356 250.548 338.834 281.717 307.665C312.886 276.496 330.052 235.055 330.052 190.974Z" fill="#8DCBE6"/>
<path d="M165.026 84.4331C106.279 84.4331 58.4849 132.227 58.4849 190.974C58.4849 249.722 106.279 297.516 165.026 297.516C223.774 297.516 271.568 249.722 271.568 190.974C271.568 165.349 262.471 141.809 247.341 123.409L220.549 150.201C228.962 161.627 233.941 175.729 233.941 190.974C233.941 228.974 203.026 259.889 165.027 259.889C127.027 259.889 96.1124 228.974 96.1124 190.974C96.1124 152.975 127.027 122.06 165.027 122.06C180.272 122.06 194.374 127.039 205.8 135.452L232.593 108.66C214.192 93.5285 190.652 84.4331 165.026 84.4331Z" fill="#8DCBE6"/>
<path d="M313.104 0L266.747 46.3572L259.935 96.0651L309.643 89.2531L356 42.8959L324.71 31.2905L313.104 0Z" fill="#8DCBE6"/>
</g>
<defs>
<clipPath id="clip0_161_1044">
<rect width="356" height="356" fill="white"/>
</clipPath>
</defs>
</svg>
